<svg xmlns="http://www.w3.org/2000/svg" viewBox="0 0 3000 3000" xmlns:xlink="http://www.w3.org/1999/xlink"><g id="item_j"></g><g id="item_i"></g><mask id="hooktail_mask"><g fill="white"><path d="M0 0h3000v3000H0z"></path><path d="M0 0h3000v3000H0z"></path></g><g fill="black"><path d="M2399.9,1601.2a38.3,38.3,0,0,1,19.5,3.8l14.1,8.6c-25.9,53.4-14.1,96.3.5,123a151.2,151.2,0,0,0,38.5,45.7c10,8.6,28.1,16.7,51.7,16.7a111.4,111.4,0,0,0,13.8-.9,121.9,121.9,0,0,0,24.1-5.7h31.8v155.1H2251.8V1636.6h86.1Z"></path></g></mask><g clip-path="url(#kittyClipPath)" mask=""><g id="tailFur"><clipPath id="tailFurClipPath"><path d="M1942.6 1959.2c69 30 162.4 39.9 162.4 39.9s347.1 45 398.6-246c19.5-161.9-177.1-195.4-177.1-195.4s91.8-36.7 124.7-7c0 0-18.5-30.3-46.3-32.7 0 0 118.2-79.9 213.3 102.6 0 0-12.3-93-50.5-111.6 0 0 142.5 32.6 167.6 241.5 0 0 26.3-41.6 23.4-76.4 0 0 67.9 99.8-7.3 214.7 0 0 58.9-56.3 63.7-86.5 0 0 73.9 212.1-151.5 244.1 0 0 61.2 22.9 101.8 3.3 0 0-39.1 85.3-165.9 74.3 0 0 61.7 42.1 99.3 33.5 0 0-93.2 47.7-251.3 13.2 0 0 53.6 49.5 93.2 50.5l-10.5 2.6a635.5 635.5 0 0 1-345.6-16.1l-151-50.4-90.9-37.1v-161z" fill="none" stroke="#31323d" stroke-linecap="round" stroke-linejoin="round" stroke-width="12.5"></path></clipPath><g clip-path="url(#tailFurClipPath)"><path fill="#b78662" d="M1904.7 1480.6H2843.7V2246.17H1904.7z"></path><path fill="#ea5f5a" d="M2645.5,2231.3c-20.9-5.6-41.7-5-51.7-2.8-19.7,4.5-59.2,13.5-73.2-12.6s-41.6-44.3-63.6-43.7-19.7-8.5,5.2-11.4,43.8-27,54.6-84,89.3-140,171.4-115c0,0-48.5-45.5-135.6,10.1s-67.1,88.2-104.2,96c-58.7,12.3-67.3-38.5-37.6-53.8,24.7-12.6,73.5-15,112-36s88.5-92.8,97.8-183.8c0,0-25.5,103-145.5,107.1-134,4.7-145,46.3-158.3,41.9-5.6-1.8-410.6-54.8-410.6-54.8v413h737Z"></path><path fill="#4b4956" d="M1902.2 1929.4L1930 2302.5"></path><path fill="#2a7f96" d="M2520.1,1860.1s3.2-21,14.4-39.4,40.3-49,41.9-73.2-12.2-60.7-12.2-60.7,38.9,28.3,40.6,71.8c1.6,40.9-24.9,57.6-31.7,63.8S2529.4,1845.2,2520.1,1860.1Z"></path><path fill="#2a7f96" d="M2820.2,1752.1c3.2,4.9-11.2,199.4-99.4,217.3-75.3,15.4-85.7,24.8-123.3,48.7-44,28-104,170.7,26.7,182s243.1-14.6,254.4-166.3S2820.2,1752.1,2820.2,1752.1Z"></path><defs><clipPath id="tailShadowClipPath"><path d="M1942.6 1959.2c69 30 162.4 39.9 162.4 39.9s347.1 45 398.6-246c19.5-161.9-177.1-195.4-177.1-195.4s91.8-36.7 124.7-7c0 0-18.5-30.3-46.3-32.7 0 0 118.2-79.9 213.3 102.6 0 0-12.3-93-50.5-111.6 0 0 142.5 32.6 167.6 241.5 0 0 26.3-41.6 23.4-76.4 0 0 67.9 99.8-7.3 214.7 0 0 58.9-56.3 63.7-86.5 0 0 73.9 212.1-151.5 244.1 0 0 61.2 22.9 101.8 3.3 0 0-39.1 85.3-165.9 74.3 0 0 61.7 42.1 99.3 33.5 0 0-93.2 47.7-251.3 13.2 0 0 53.6 49.5 93.2 50.5l-10.5 2.6a635.5 635.5 0 0 1-345.6-16.1l-151-50.4-90.9-37.1v-161z" fill="none"></path></clipPath><linearGradient id="tailShadowGradient" x1="2504.56" y1="1675.22" x2="2504.56" y2="1448.67" gradientUnits="userSpaceOnUse"><stop offset="0" stop-color="#fff" stop-opacity="0"></stop><stop offset=".72" stop-color="#fff"></stop></linearGradient><linearGradient id="tailShadowGradient2" x1="1665.26" y1="2120.22" x2="2549.1" y2="2120.22" gradientUnits="userSpaceOnUse"><stop offset="0" stop-color="gray"></stop><stop offset=".27" stop-color="#7d7d7d"></stop><stop offset=".46" stop-color="#747474"></stop><stop offset=".64" stop-color="#646464"></stop><stop offset=".8" stop-color="#4d4d4d"></stop><stop offset=".95" stop-color="#303030"></stop><stop offset="1" stop-color="#242424"></stop></linearGradient><linearGradient id="tailShadowGradient3" x1="2662.04" y1="1821.69" x2="2662.04" y2="1468.7" gradientTransform="translate(-13.43 21.89)" href="#tailShadowGradient" xlink:href="#tailShadowGradient"></linearGradient><linearGradient id="tailShadowGradient4" x1="2752.98" y1="1933.56" x2="2752.98" y2="1592.06" href="#tailShadowGradient" xlink:href="#tailShadowGradient"></linearGradient><linearGradient id="tailShadowGradient5" x1="2521.14" y1="2094.95" x2="2807.7" y2="2094.95" href="#tailShadowGradient2" xlink:href="#tailShadowGradient2"></linearGradient><linearGradient id="tailShadowGradient6" x1="2408.12" y1="2162.15" x2="2697.59" y2="2162.15" href="#tailShadowGradient2" xlink:href="#tailShadowGradient2"></linearGradient><linearGradient id="tailShadowGradient7" x1="2671.02" y1="1930.16" x2="2859.95" y2="1930.16" href="#tailShadowGradient" xlink:href="#tailShadowGradient"></linearGradient></defs><g clip-path="url(#tailShadowClipPath)" style="mix-blend-mode:overlay"><path d="M2413.6 1500.9c80.6 30.4 147.9 94.3 182.8 173a2.2 2.2 0 0 0 4.3-.5c6.2-37.6 5.3-76.7-6.4-112.9-12.5-38.6-37.8-73.7-73-93.9s-80.2-24.3-116.8-6.8" opacity=".3" fill="url(#tailShadowGradient)" style="mix-blend-mode:overlay"></path><path d="M2580.5 1513.8c84.8 73.9 125.3 194.9 102.9 305a2.2 2.2 0 0 0 3.8 2c45.1-46.5 63.1-116.4 52.8-180.6-10.7-66.7-49.6-127-100.5-171.4" opacity=".3" fill="url(#tailShadowGradient3)" style="mix-blend-mode:overlay"></path><path d="M2756.9 1685.6c7.6 85.4-14.8 173.1-62.2 244.5a2.3 2.3 0 0 0 2.7 3.3c60.4-22.7 101.8-84 111.5-148.1 10.1-66.3-9.7-134.4-41.9-193.3" opacity=".3" fill="url(#tailShadowGradient4)" style="mix-blend-mode:overlay"></path><path d="M2815.2 1815.5c-.8 48.4-17 96.2-44.3 136.2-25.2 36.9-59.6 67.2-98.7 89a2.3 2.3 0 0 0 1.3 4.2 740 740 0 0 0 74.9-11.4c13.9-2.8 27.8-6.1 40.6-12.4 34.4-16.8 55.5-52.8 68.3-88.9 3.1-8.6 4.9-20.1-2.7-25.1" opacity=".3" fill="url(#tailShadowGradient7)" style="mix-blend-mode:overlay"></path></g><g clip-path="url(#tailShadowClipPath)" style="mix-blend-mode:multiply"><path d="M2042 1944.9c13.2 65.6 41.6 120.5 90.7 149.8 128.8 76.8 266.9 119.3 416.4 131.2.7 41.4-25.3 79.9-59.4 103.5s-75.3 34.3-116.1 41.5c-194.7 34.1-402.2-7.1-567.5-115.6-56.1-36.8-109.5-84.1-131.1-147.6-20.8-61.3-7.3-133.1 34.4-182.6s110.1-75.1 174.1-64.9" opacity=".25" fill="url(#tailShadowGradient2)" style="mix-blend-mode:multiply"></path><path d="M2753.1 2055.2c-69.5 37.1-154.5 43.8-229 18.1a2.3 2.3 0 0 0-2.7 3.2c9.8 17.9 26.3 31.7 44.4 41.3 19.8 10.5 41.6 16.6 63.2 22.4 28.7 7.7 58 15.1 87.7 13.7s60.3-13 77.9-36.9 18.3-61.1-3.5-81.3" opacity=".25" fill="url(#tailShadowGradient5)" style="mix-blend-mode:multiply"></path><path d="M2672.3 2157.6c-91.9 11.2-187.6-11.9-264.2-63.8 7.8 45.4 43.4 81.8 83.4 104.6 52.2 29.8 116.2 41.3 173.8 24.1 13.9-4.2 29-11.8 32.3-25.9" opacity=".25" fill="url(#tailShadowGradient6)" style="mix-blend-mode:multiply"></path></g></g></g><g id="tail"><path d="M1942.6 1959.2c69 30 162.4 39.9 162.4 39.9s347.1 45 398.6-246c19.5-161.9-177.1-195.4-177.1-195.4s91.8-36.7 124.7-7c0 0-18.5-30.3-46.3-32.7 0 0 118.2-79.9 213.3 102.6 0 0-12.3-93-50.5-111.6 0 0 142.5 32.6 167.6 241.5 0 0 26.3-41.6 23.4-76.4 0 0 67.9 99.8-7.3 214.7 0 0 58.9-56.3 63.7-86.5 0 0 73.9 212.1-151.5 244.1 0 0 61.2 22.9 101.8 3.3 0 0-39.1 85.3-165.9 74.3 0 0 61.7 42.1 99.3 33.5 0 0-93.2 47.7-251.3 13.2 0 0 53.6 49.5 93.2 50.5l-10.5 2.6a635.5 635.5 0 0 1-345.6-16.1l-151-50.4-90.9-37.1v-161z" fill="none" stroke="#31323d" stroke-linecap="round" stroke-linejoin="round" stroke-width="12.5"></path></g></g><g id="item_h"></g><g clip-path="url(#kittyClipPath)"><g id="bodyFur"><clipPath id="furClipPath"><path fill="none" d="M1852.5 1272.5c52-29.9 35-77 6.3-107-6.2-6.5-31.1-16.8-31.1-16.8l-43.4-81.3 23.9-11.2c72.7-45.6 87.2-92.1 82-118.1s-37.4-38.6-37.4-38.6l.2-7.6c27-17.8 43.5-36.4 56.6-70.6l3.8-17-6.5-18.1c-83.9-43.2-182.6-.4-288.9 74.5l-11-6.7c-18.2-9.1-38.4-18.6-58.6-22.9 47.9-36.3 46.4-135-2.2-142.6-14.5-2.3-41.4 3-51.8 26.1 1.8-11.8.7-16.9-3.7-29.3s-25.2-33.3-39.2-41.2a69.5 69.5 0 0 0-25.8-8.1c-18-.2-33.5-2.2-43.7 4-12.3 7.6-49.8 28.8-58.7 79.2-.2 1.2-14.5-16.3-35.3-6.3-22.7 10.9-24.7 18.8-32.2 26.3-12.7 12.7-19.9 77.3 10.2 88 4.6 1.7 8.1 5.9 11.1 10a237.4 237.4 0 0 0-65.6 29.2l-8.3-5.7c-132.3-100.8-236.4-77.2-236.4-77.2s-53.3 3.3-36.7 54.5 65.8 76.8 65.8 76.8c-18.9.6-67.8 23.4-37.5 83.6 31.6 62.7 77.2 80.6 107.6 88.5-6.4 19.1-11.9 34.8-19.8 57.2-71 .2-97.1 49.6-97.1 81.4 0 54.3 55.8 47.6 55.8 47.6-17.3 35.5-.7 65.7 38.7 73.4 0 0-35.7 189.2-37.6 196.9l-86.8 456.2a248.6 248.6 0 0 0 12.7 117.6l-.6.2c-38.1 9.1-130.5 43.4-184.5 78.3-26.5 17.1-10.1 55.9 23.2 55.3l266.9-5.2c4.5 2.7 9.1 5.4 13.8 7.9v3.3c.4 23.3-6.6 42.4-29.9 43.5-15.6.8-28.2 9.9-30.7 21.1-4.7 21.5 5.9 38.9 27.3 40.4l84.3 5c26.4 1.6 51.8-11.3 65.3-34.1a72.2 72.2 0 0 0 8.8-23.9l5-26.6h533.6l3.4 20.7a71.6 71.6 0 0 0 43.2 54.3 52.6 52.6 0 0 0 22.2 3.9l91.9-3c22-2.2 30.1-15.7 27.8-36.9-.7-7-6.2-24.5-24.4-25.6-15.8-.8-25.3-8.6-28.1-21.9a243.5 243.5 0 0 0 65.3-28l261.5 5.1c33.3.6 49.3-37.5 23.2-55.3-43-29.4-132.4-61.7-179.8-75.5l-.8-.3a247.8 247.8 0 0 0 6.4-155.8l-134.6-437.7-4.4-14.7c-3.6-11.7-5.5-17.7-9.2-29.6l-2.2-7.2-40.3-131.3c6.9-11.7 22.5-39.5.6-65.1.1 0-3.9 5.7 16.4-6z"></path></clipPath><g clip-path="url(#furClipPath)"><path fill="#b78662" d="M18.2 11.6H2984.2V2977.46H18.2z"></path><path fill="#b78662" d="M731.9 563.3H2241.3V2387.39H731.9z"></path><path fill="#2a7f96" d="M1886.5,1951c34.5-56.5-4.7-100.8-12.8-109.1a.6.6,0,0,0-.9.6c4.9,18.5,1.5,38.7-2.1,52-11.1,40.4-67.9,29.9-99.9,45.4-23.6,11.4-32.6,31.5-37.4,27.2-2.2-2,.8-4.6.8-4.6,27-30,28-103,39-145,9.7-37.2,48.5-41.5,57.2-42a.5.5,0,0,0,.2-1c-14.1-6.7-78.8-1.7-100.4,76.3-30.3,108.9-69.4,115-71.9,115.3h-.3c-12.9-4.4,33.5-23,28.2-156.6-4.1-102.9,69.5-141.9,90.4-150.9.6-.2.3-1.1-.3-1-87,18.8-150.5,106.7-168.1,145.9s-22,64-34.7,70.6c-3.8-8.2-8.7-24.6-8.7-42.6,0-27.4,5.4-32.7,45.4-94,51.5-79.1,8.8-127.2,1.1-134.9a.5.5,0,0,0-.9.4c16.6,101.7-94.6,122.6-111.5,189-3.4,13.3-8.5,22.9-11.2,25.5a.5.5,0,0,1-.9-.4c.5-12.5,14.5-58.2,4.7-89-6.6-20.5,3.3-24.6,10.6-70.3,5.8-36.3-32.6-56.2-40.3-59.9-.5-.2-1,.3-.7.7,29.9,60.3-30.5,105.4-64.5,129.2-21.4,15-23.5,38-19.6,59.1a.5.5,0,0,1-.8.5l-5.4-2.7c-27-12-22.6-49.2-19.6-69.2s-3.7-81.2-47.7-99.2c-37.6-15.3-46.3-51.6-48.1-61.9,0-.5-.9-.6-1,0-6.2,26.8-7.6,54.3,9.8,65.1,49.8,30.8,44,85.9,24,111h-.1c-33,34.3-50.9,82-30.9,108s27,73,27,85,0,26-6,25-6.9-9.2-6.9-9.2c-3.3-23-11.1-44.9-26.1-62.8-42.4-50.6-20.6-96.7-50-142-35.7-54.9-76.5-30.3-83.1-25.7a.5.5,0,0,0,.2.9c78.5,19.3,44.8,78,26.9,124.8-11.8,30.6,14.2,63,24.3,78.3,4.9,7.5-2,7.7-3.2,7.7h-.3c-49.6-39.6-88.6-10.1-95.7-4a.6.6,0,0,0,.4,1c32.7-2.2,72.6,20.7,80.5,59.1s-89-27-152-39-88.4,50.3-89,51.9h-.1c-32.9,122.4,46.2,180.4,50.2,183.3.2,0,.2.1.2.3l21,94.2v.2l-26.8,114.7a.5.5,0,0,0,.5.7H1951.4a.6.6,0,0,0,.6-.6v-29.4l1.5-61.4v-.2l53.7-117,.2-.2,45-35.7h.1l52.2-58.1a.9.9,0,0,0,0-.7c-120.4-158.9-205.3-132.6-217.5-127.7C1886.7,1952,1886.3,1951.5,1886.5,1951Z"></path><path fill="#ea5f5a" d="M870.4,1998.3s67.8-13.8,94.1,43,43,73.4,70.7,56.8l11.9,80.2,1.9,80.4-91.4,22.2s-26.3-97-99.7-110.8c0,0,51.2-11.1,87.3,4.1,0,0-84.5-44.3-103.9-73.4S817.7,2016.3,870.4,1998.3Z"></path><path fill="#ea5f5a" d="M2071.9,2135.4c-30,20.7-64.6,38.8-64.6,38.8,36-15.2,87.3-4.1,87.3-4.1-73.5,13.8-99.8,110.8-99.8,110.8l-91.4-22.2-8.4-6.3-24,16.5-22.5,1.5s-4.9-81.5,9-135c25.5-37.5,135-136.5,162-19.5Z"></path><path fill="#ea5f5a" d="M1180.5,2280.9l14-87.3s-23.6-124.6-105.3-180c0,0,49.9,108,12.5,152.3s-55.4,22.2-55.4,22.2l2.7,83.1-96.9,18-49.9,83.1,22.2,24.9H1164Z"></path><path fill="#ea5f5a" d="M1717.2,2280.9l-7.3-45.4-9.1-13.7,2.4-28.2s23.5-124.6,105.2-180c0,0-49.8,108-12.4,152.3s55.4,22.2,55.4,22.2l-2.8,83.1,97,18,49.8,83.1-22.1,24.9H1733.6Z"></path><path fill="#ea5f5a" d="M1201.4,2153.5c36,9.6,49.8,12.4,66.5-43s34.5-56,34.5-56c0,80.7,65.5,146.1,146.2,146.1a146.2,146.2,0,0,0,138.1-98.3s16,6.7,26.5,45.7c9.3,34.6,67.5,6,67.5-59.5l43,254.5H1164.5Z"></path><path fill="#ea5f5a" d="M1500.5,2091.4a107.4,107.4,0,0,1-72.4-186.7,113.7,113.7,0,1,0,112.1,179.1A107.1,107.1,0,0,1,1500.5,2091.4Z"></path><path fill="#ea5f5a" d="M807.9,1919.4s20.1,41.1,67.2,38.1,125.5-101.3,199.7-97.3c0,0-33-19.9-44.1-47.2-14.5-35.2-57.2-112.4-144.5-95.3S774.8,1882.2,807.9,1919.4Z"></path><path fill="#ea5f5a" d="M1818.3,1869.2s29.1-62.2,82.3-50.2,99.4,151.5,157.6,149.5,70.7-72.1,72.2-100.3c6-109.4-89.3-144.5-183.6-136.5C1882.8,1737.2,1824.4,1788.9,1818.3,1869.2Z"></path><path fill="#ea5f5a" d="M1030.4,1726.9c-11.3-57,6.5-121.6,6.5-121.6,5.7,54.3,12.7,88.7,24.9,108.7,0,0,7,16.6,33.9,31.4,30.7,17,31.5,44.4,30.7,62.9-.6,13.8-5.7,39.6-5.7,39.6s-11.3-24.7-28.2-37.9C1066.7,1789.8,1041.7,1784.1,1030.4,1726.9Z"></path><path fill="#2a7f96" d="M1186.2,1460.5s-26.3,16.1-29.8,102c-3.3,83.9,26.8,104,37.8,116,12.4,13.6,38,39,37,69,0,0,25-57-3-132S1155,1523.2,1186.2,1460.5Z"></path><path fill="#2a7f96" d="M1651.2,1689.5s12-101,61-133,70-50,75-70-9,112-48,140S1665.2,1671.5,1651.2,1689.5Z"></path><path fill="#ea5f5a" d="M1736.2,1766.5s13-28,36-49,76-52,88-85,3-71,3-71,37,35,32,98c-5.3,65.5-58,70-70,76S1755.2,1749.5,1736.2,1766.5Z"></path><path fill="#2a7f96" d="M1583.9,926.3c24.7,0,61.6,13.3,61.6,13.3-14.4-25.7-40.2-51.2-56-65.4,27.8-24.7,44.3-55.6,44.3-89,0-81.6-98-242.2-218.9-242.2s-218.8,160.6-218.8,242.2c0,33.4,16.4,64.3,44.2,89-15.7,14.2-41.6,39.7-55.9,65.4,0,0,36.8-13.3,61.6-13.3s45.7-14,45.7-14,2.7,43.1-16.4,55.2c0,0,26.4,0,57.7-35.5,0,0-3.4,14,21,34.9,15.3,13.2,15.4,25.1,15.3,27.1,0,.1.1.1.2,0,2.4-2.3,24-24.2,17.1-50,.6-.4,15.7,9.9,27.9,49.8,10.2-12.2,19.7-30.5,29-51-6.3,26.7,14.6,51.5,14.6,51.5s-.6-13.4,17.8-27.4c25.6-19.4,21-34.9,21-34.9,31.2,35.5,57.7,35.5,57.7,35.5-19.1-12.1-16.5-55.2-16.5-55.2S1559.1,926.3,1583.9,926.3Z"></path><path fill="#2a7f96" d="M1603.3,848.8l50.9,36.4,49.3,52.7,49.3,76.6,38.9,63.3c5.2-8.1,1193.7-742.5,1192.5-747.9-2-8.7,0-319.9,0-319.9H1959.8Z"></path><path fill="#2a7f96" d="M1222.2 857.9L818 10 18.2 10 18.2 913.2 1064.2 1089.7 1103 999.6 1131.2 942.8 1156 913.2 1194.3 877.9 1222.2 857.9z"></path><path fill="#ea5f5a" d="M920.7,2083.5s21.9,128,127.9,164.8v13.9H729.3V2163Z"></path><path fill="#ea5f5a" d="M2030.9,2083.5s-21.9,128-127.9,164.8v13.9h319.3V2163Z"></path></g></g><g id="shadow" style="mix-blend-mode:multiply"><defs><clipPath id="bodyShadow__b"><path fill="none" d="M1852.5 1272.5c52-29.9 36.3-78.3 6.3-107a65.8 65.8 0 0 0-31.1-16.8l-42.7-81.3 23.2-11.2c62.6-34.7 86.6-81.7 81.3-107.7s-9.6-33.5-9.6-33.5l-28.9-18.2c16.1-19.2 53.9-44.7 58.6-75.5l3.8-17-6.5-18.1c-73.4-45.3-182.6-.4-288.9 74.5l-11-6.7c-18.2-9.1-41-16.5-61.2-20.8 42.5-33.5 61.7-125.3 3.4-143.9-16.5-5.2-49.2 6.9-57 24.9 3.4-12 7.8-36.1-32-64.2-11.2-7.9-36-13.5-37-13.5-18-.2-31-2.7-41.2 3.5-12.3 7.6-46.6 28.3-58.7 79.2-.3 1.2-24-10.8-25.2-10.6-29 3.1-32.3 17.7-39.7 24-13.8 11.5-33 83.3 7.3 98.7 4.6 1.8 8.4 1.8 11.4 5.9a237.4 237.4 0 0 0-65.6 29.2l-8.3-5.7c-132.3-100.8-236.4-77.2-236.4-77.2s-53.3 3.3-36.7 54.5 65.8 76.8 65.8 76.8c-18.9.6-62.3 23.3-39.7 79.3 36.9 91.6 109.8 92.6 109.8 92.6-5.2 20.8-20.2 57.4-20.2 57.4-61.9-7.3-101.5 45-96.7 81.4 6.3 48.6 52.4 48 52.4 48-17.3 35.4 4.5 59.2 18.3 62.6l9.7 5.9s7.7 3.9 14.3 4.8c0 0-23.6 132-28.2 146.1l-1.8 9.8c-2.3 14.2-5.9 33-7.8 40.7l-86.8 456.2a248.6 248.6 0 0 0 12.7 117.6l-.6.2c-38.1 9.1-130.5 43.4-184.5 78.3-26.5 17.1-10.1 55.9 23.2 55.3l266.9-5.2c4.5 2.7 9.1 5.4 13.8 7.9v3.3c.4 23.3-6.6 42.4-29.9 43.5-15.6.8-28.2 9.9-30.7 21.1-4.7 21.5 5.9 38.9 27.3 40.4l84.3 5c26.4 1.6 51.8-11.3 65.3-34.1a72.2 72.2 0 0 0 8.8-23.9l5-26.6h533.6l3.4 20.7a71.6 71.6 0 0 0 43.2 54.3 52.6 52.6 0 0 0 22.2 3.9l91.9-3c22-2.2 30.1-15.7 27.8-36.9-.7-7-6.2-24.5-24.4-25.6-15.8-.8-25.3-8.6-28.1-21.9a243.5 243.5 0 0 0 65.3-28l261.5 5.1c33.3.6 49.3-37.5 23.2-55.3-43-29.4-132.4-61.7-179.8-75.5l-.8-.3a247.8 247.8 0 0 0 6.4-155.8l-134.6-437.7-4.4-14.7c-3.6-11.7-5.5-17.7-9.2-29.6l-42.5-138.5c17.6-15.4 15.6-58.5-.9-64.6.1 0-2.4 5.2 17.9-6.5z"></path></clipPath><linearGradient id="bodyShadow__a" x1="922.57" x2="1128.9" y1="944.4" y2="944.4" gradientUnits="userSpaceOnUse"><stop offset="0" stop-color="gray"></stop><stop offset=".14" stop-color="#797979"></stop><stop offset=".35" stop-color="#646464"></stop><stop offset=".6" stop-color="#434343"></stop><stop offset=".89" stop-color="#141414"></stop><stop offset="1"></stop></linearGradient><linearGradient id="bodyShadow__c" x1="688.66" x2="916.32" y1="932.23" y2="932.23" gradientTransform="matrix(-1, 0, 0, 1, 2627.47, 0)" xlink:href="#bodyShadow__a"></linearGradient></defs><g style="isolation:isolate"><g clip-path="url(#bodyShadow__b)"><path fill="#7f7f7f" d="M1060.8 1346.5c-5.5 37.7-22.7 254.7-25.6 291-9.5 118.4-22.8 231-30.1 289.3a927.6 927.6 0 0 0-6.8 98.5v3.3c23.6 26 47.7 88.8 52.6 176.8l1.4 49s-31.4-.7-81-.7c-62 0-110.9-111.8-79.2-278.2 17.8-93.5 77.8-536.8 124.5-640.5 31.8 18.4 44.2 11.5 44.2 11.5z" opacity=".2"></path><path fill="#7f7f7f" d="M1226.5 2040.4c-24.3 147.7 54.2 178.3 68.5 181.6 86.5 15.5 223.8 8.8 268.5-7 41.8-14.7 129.9-58.5 108-189.4l43 256.8h-533.6z" opacity=".2"></path><path fill="#7f7f7f" d="M1854.3 2157.4s29.9-91.4 66.3-124.9c-39.4 75 14.1 92.7 28.1 87.7 53.7-19.2 74.9-66.7 79.2-150l65.3 116.3s-55 256-204 214l-38.7-18.1z" opacity=".2"></path><path style="mix-blend-mode:multiply" fill="url(#bodyShadow__a)" d="M1116.2 976.8l-10 18.7a770.3 770.3 0 0 1-40.2 91.2c-90-32.7-116.5-70.6-114.5-137.2.6-20.3 29.3-38.9 43.3-32 23.1 11.3 35.4 19.3 35.4 19.3-43.3-25.7-108.8-92.8-107.4-116.7 0 0-2-14 6.7-18 0 0 78.7 8.7 141.3 64.7s58 90.7 58 90.7l-10.6 16z" opacity=".4"></path><path style="mix-blend-mode:multiply" fill="url(#bodyShadow__c)" d="M1784.3 1074c79.5-32.2 124.6-77.1 122.6-136.2-.7-20.3-31.7-29.3-44.1-33.5-5.4-13.8-41.1 9.2-41.1 9.2 47.7-25.8 118.4-81.2 116.9-105.1 0 0 2.2-14-7.4-18 0 0-86.8 8.7-156 64.7s-64 90.7-64 90.7" opacity=".4"></path><path fill="#7f7f7f" d="M1127.7 1045c30.1-102.9 91.7-159.8 165.5-181.2l-16.1-26.6c-147.4 42.8-172.9 163.5-172.9 163.5s-10.2 17.7-10 20.8c-10 20-25.5 60.1-25.5 60.1-231-9.6-153.3 161.2-82 245.9 15.5 18.4 69.5 14.3 69.5 14.3l-3.4-4.4s-38.3-41-20-67.3c10.4-14.9 25.8-24.6 25.8-24.6-71.6 31-84.1-49-66.8-70s37.7-25 37.7-25c17-.8 21.2.9 21.2.9 4.4-4 44 6.1 77-106.4z" opacity=".2"></path><path fill="#7f7f7f" d="M1240.8 781.5s-9 37.8 22 49.3c22.4 8.3 29.2 23 29.9 33 0 0 41.8-44.3 8.5-65s-49.7-47.1-43-50.4c0 0-12.7 5.7-17.4 33.1z" opacity=".2"></path><path fill="#7f7f7f" d="M1339.9 745.5s1.2-9.4-9.8-17.6c0 0-1.8-8.7-5.7-14.2 0 0 6.4-41.6 24.4-52.2a118 118 0 0 1 38.4-15.5s-43 32.1-47.3 99.5z" opacity=".2"></path><path fill="#7f7f7f" d="M1532 695.1s-20.9-8-42.7 22.5c-13.7 19.2 2.9 45.4 4.1 40.6 3.4-13.6 2.8-18.7 9.8-35.3 8-18.8 28.8-27.8 28.8-27.8z" opacity=".2"></path></g></g></g><g id="highlight" style="mix-blend-mode:overlay"><defs><clipPath id="bodyHighlight__c"><path fill="none" d="M1852.5 1272.5c52-29.9 35-77 6.3-107-6.2-6.5-31.1-16.8-31.1-16.8l-43.4-81.3 23.9-11.2c72.7-45.6 87.2-92.1 82-118.1s-37.4-38.6-37.4-38.6l.2-7.6c27-17.8 43.5-36.4 56.6-70.6l3.8-17-6.5-18.1c-83.9-43.2-182.6-.4-288.9 74.5l-11-6.7c-18.2-9.1-38.4-18.6-58.6-22.9 47.9-36.3 46.4-135-2.2-142.6-14.5-2.3-41.4 3-51.8 26.1 1.8-11.8.7-16.9-3.7-29.3s-25.2-33.3-39.2-41.2a69.5 69.5 0 0 0-25.8-8.1c-18-.2-33.5-2.2-43.7 4-12.3 7.6-49.8 28.8-58.7 79.2-.2 1.2-14.5-16.3-35.3-6.3-22.7 10.9-24.7 18.8-32.2 26.3-12.7 12.7-19.9 77.3 10.2 88 4.6 1.7 8.1 5.9 11.1 10a237.4 237.4 0 0 0-65.6 29.2l-8.3-5.7c-132.3-100.8-236.4-77.2-236.4-77.2s-53.3 3.3-36.7 54.5 65.8 76.8 65.8 76.8c-18.9.6-67.8 23.4-37.5 83.6 31.6 62.7 77.2 80.6 107.6 88.5-6.4 19.1-11.9 34.8-19.8 57.2-71 .2-97.1 49.6-97.1 81.4 0 54.3 55.8 47.6 55.8 47.6-17.3 35.5-.7 65.7 38.7 73.4 0 0-35.7 189.2-37.6 196.9l-86.8 456.2a248.6 248.6 0 0 0 12.7 117.6l-.6.2c-38.1 9.1-130.5 43.4-184.5 78.3-26.5 17.1-10.1 55.9 23.2 55.3l266.9-5.2c4.5 2.7 9.1 5.4 13.8 7.9v3.3c.4 23.3-6.6 42.4-29.9 43.5-15.6.8-28.2 9.9-30.7 21.1-4.7 21.5 5.9 38.9 27.3 40.4l84.3 5c26.4 1.6 51.8-11.3 65.3-34.1a72.2 72.2 0 0 0 8.8-23.9l5-26.6h533.6l3.4 20.7a71.6 71.6 0 0 0 43.2 54.3 52.6 52.6 0 0 0 22.2 3.9l91.9-3c22-2.2 30.1-15.7 27.8-36.9-.7-7-6.2-24.5-24.4-25.6-15.8-.8-25.3-8.6-28.1-21.9a243.5 243.5 0 0 0 65.3-28l261.5 5.1c33.3.6 49.3-37.5 23.2-55.3-43-29.4-132.4-61.7-179.8-75.5l-.8-.3a247.8 247.8 0 0 0 6.4-155.8l-134.6-437.7-4.4-14.7c-3.6-11.7-5.5-17.7-9.2-29.6l-2.2-7.2-40.3-131.3c6.9-11.7 22.5-39.5.6-65.1.1 0-3.9 5.7 16.4-6z"></path></clipPath><linearGradient id="bodyHighlight__a" x1="1921.01" x2="1921.01" y1="2255.56" y2="1289.47" gradientUnits="userSpaceOnUse"><stop offset="0" stop-color="#fff" stop-opacity="0"></stop><stop offset=".72" stop-color="#fff"></stop></linearGradient><linearGradient id="bodyHighlight__d" x1="2116.32" x2="2116.32" y1="2248.97" y2="2113.28" xlink:href="#bodyHighlight__a"></linearGradient><linearGradient id="bodyHighlight__e" x1="1044.74" x2="1044.74" y1="2253.08" y2="2117.39" gradientTransform="matrix(-1, 0, 0, 1, 1878.82, 0)" xlink:href="#bodyHighlight__a"></linearGradient><linearGradient id="bodyHighlight__f" x1="987.94" x2="987.94" y1="2254.49" y2="1345.43" xlink:href="#bodyHighlight__a"></linearGradient><linearGradient id="bodyHighlight__g" x1="1689.27" x2="1689.27" y1="1190.22" y2="877.32" xlink:href="#bodyHighlight__a"></linearGradient><linearGradient id="bodyHighlight__h" x1="1875.99" x2="1927.87" y1="1342.88" y2="1442.08" gradientTransform="matrix(-0.57, -0.48, 0.57, -0.67, 2140.35, 3038.82)" xlink:href="#bodyHighlight__a"></linearGradient><linearGradient id="bodyHighlight__b" x1="1561.13" x2="1561.13" y1="829.6" y2="673.11" gradientUnits="userSpaceOnUse"><stop offset="0" stop-color="#fff" stop-opacity="0"></stop><stop offset=".15" stop-color="#fff"></stop></linearGradient><linearGradient id="bodyHighlight__i" x1="1503.71" x2="1343.55" y1="721.73" y2="563.49" gradientUnits="userSpaceOnUse"><stop offset="0" stop-color="#fff" stop-opacity="0"></stop><stop offset=".2" stop-color="#fff"></stop></linearGradient><linearGradient id="bodyHighlight__j" x1="1355.39" x2="1204.9" y1="776.62" y2="604.59" gradientTransform="matrix(0.75, -0.02, -0.02, 1, 331.65, 31.2)" xlink:href="#bodyHighlight__b"></linearGradient><linearGradient id="bodyHighlight__k" x1="1766.93" x2="1766.93" y1="891.55" y2="768" xlink:href="#bodyHighlight__a"></linearGradient><linearGradient id="bodyHighlight__l" x1="1068.87" x2="1068.87" y1="897.76" y2="752.77" xlink:href="#bodyHighlight__b"></linearGradient><linearGradient id="bodyHighlight__m" x1="1804.06" x2="1851.88" y1="1339.6" y2="1241.45" xlink:href="#bodyHighlight__a"></linearGradient></defs><g style="isolation:isolate"><g clip-path="url(#bodyHighlight__c)" opacity=".3"><path style="mix-blend-mode:overlay" fill="url(#bodyHighlight__a)" d="M1802.2 1349.1c60.7 163.8 122.1 415.7 168.6 620.3s-80.7 286.2-80.7 286.2l61.1-35.6s62.8-74.9 72.2-107.8c20.7-71.9 22.8-66.1.8-180.7-32-166.4-141-630.9-151-642-32 72.5-71 59.6-71 59.6z"></path><path fill="url(#bodyHighlight__d)" d="M1999.2 2162.4s113.2 21.1 98.3 83.6l92.7 3 43.3-6.5-4.3-68.5-206.9-60.7z"></path><path fill="url(#bodyHighlight__e)" d="M951.2 2166.5s-113.2 21.1-98.3 83.6l-92.7 3-43.3-6.5 4.3-68.5 206.9-60.7z"></path><path fill="url(#bodyHighlight__f)" d="M1012.8 1345.4l46.1 2.1s-138.6 704.6-94.1 764.1c58.8 78.6 83.4 111.3 83.4 111.3l3.9 31.6s-139.1-70-135-209 95.7-700.1 95.7-700.1z"></path><path style="mix-blend-mode:overlay" fill="url(#bodyHighlight__g)" d="M1550.8 836.8s48.9 38.1 76.8 64.4 54.1 81.7 102.6 166.2c31 54 97.5 81.3 97.5 81.3l-28.5-53.3s-69.7-127.3-117.8-179.9c-28.4-31.2-73.3-64.6-124.2-79.7z"></path><path style="mix-blend-mode:overlay" fill="url(#bodyHighlight__h)" d="M1827.7 1148.7c4.2 6.2 12.3 1.6 16.5 7.8s40 25 41 69c.4 20.4-14 41-50 48 35.3-6.9 29-67 3-86-18-18-11.5-28.8-13.2-33"></path><path style="mix-blend-mode:overlay" fill="url(#bodyHighlight__b)" d="M1537 694.1s46.4 5 1.7 155.7c0 0 42.1-53.9 46.1-93 3.1-30.6-10.7-69.8-47.8-62.7z"></path><path style="mix-blend-mode:overlay" fill="url(#bodyHighlight__i)" d="M1414.9 639.1c1.9.9 23.5 10.2 45.1 39 13.5 18.1 19.7 38.2 24.6 53.3 0 0 19.5-28.6-.6-56.3-26.2-35.9-69.1-36-69.1-36z"></path><path style="mix-blend-mode:overlay" fill="url(#bodyHighlight__j)" d="M1272 727.5s41.8 3.3 70.8 37.3c0 0 4.4-17.3-21.4-51.1-6.8-9-23.1-22.9-49.4 13.8z"></path><path style="mix-blend-mode:overlay" fill="url(#bodyHighlight__k)" d="M1629.9 869.6a16 16 0 0 1 9.4 9.8c1.4 4.1 7.8 21 20.3 6.1 109.2-129.9 285.8-97.9 236.2-109.5-19.6-4.6-68-23.6-161 20.6-118.4 56.4-104.9 73-104.9 73z"></path><path style="mix-blend-mode:overlay" fill="url(#bodyHighlight__l)" d="M905.2 812.5s109.8-60.4 271 85.3l58.2-40.9s-150.5-141.2-268.6-94.8c-79.2 31.1-60.6 50.4-60.6 50.4z"></path><path style="mix-blend-mode:overlay" fill="url(#bodyHighlight__m)" d="M1802.2 1279.5s39 56.6 0 69.6c0 0 42.6 6.4 43-44.6.2-35.3-43-25-43-25"></path></g></g></g><g id="bodyMask"></g><g id="body"><path fill="none" stroke="#31323d" stroke-linecap="round" stroke-miterlimit="10" stroke-width="12.5" d="M1714.5 2282.4h-533.6"></path><path fill="none" stroke="#31323d" stroke-linecap="round" stroke-miterlimit="10" stroke-width="12.5" d="M1835.6 1343.6l190.7 620.5c39 137.9-45.2 275-175.8 309.8"></path><path fill="none" stroke="#31323d" stroke-linecap="round" stroke-miterlimit="10" stroke-width="12.5" d="M1050.7 2253.7c-89.1-47.1-145.6-146.2-131.5-254.1l124.4-653.1"></path><path fill="#31323d" d="M1228.6 2040.8c-3.4 30.5-8.1 60.7-13.2 90.9-2.6 15.1-5.4 30.1-8.2 45.2l-8.3 45.1-16.6 90.4a75.9 75.9 0 0 1-8.8 23.5 75.1 75.1 0 0 1-16.1 19.4 77.9 77.9 0 0 1-45.9 18.8c-2.1.2-4.2.2-6.3.2h-6l-11.5-.7-22.9-1.3-45.9-2.8a56.5 56.5 0 0 1-6.4-.7 38.7 38.7 0 0 1-6.7-1.7 36.8 36.8 0 0 1-12.3-7.3 35.3 35.3 0 0 1-8.3-11.7 43.4 43.4 0 0 1-3.1-13.5 58.3 58.3 0 0 1 1-13.3 31.5 31.5 0 0 1 .9-3.6 36.8 36.8 0 0 1 1.5-3.5 29.7 29.7 0 0 1 4.1-6.3 36.8 36.8 0 0 1 11-8.7 45 45 0 0 1 12.7-4.6 49.5 49.5 0 0 1 6.6-.8l2.6-.2 2.3-.3a25.8 25.8 0 0 0 4.2-1.2 16.9 16.9 0 0 0 3.8-1.9c4.6-3 7.7-8.4 9.4-14.8a54.6 54.6 0 0 0 1.6-10.1 47.1 47.1 0 0 0 .3-5.3v-5.5l-1-22.9-1.8-45.8c-.6-15.3-1.3-30.5-1.8-45.8v.5c-.6-5-1.3-9.9-2.1-14.9s-1.6-9.8-2.6-14.7-2.1-9.7-3.4-14.4-2.7-9.5-4.3-14.2-3.5-9.3-5.5-13.8-4.3-8.9-6.6-13.3a195.2 195.2 0 0 0-16.5-24.9 2.3 2.3 0 0 1 .4-3.2 2.2 2.2 0 0 1 2.9.2 157.1 157.1 0 0 1 19.8 23.9c2.9 4.3 5.5 8.8 8 13.4a151.2 151.2 0 0 1 6.7 14.1q3 7.4 5.4 14.7t4.2 15c1.3 5.1 2.3 10.2 3.3 15.2s1.7 10.2 2.4 15.3v.5c.9 15.3 1.6 30.6 2.4 45.9l2.3 45.9 1.1 22.9.2 2.9v3.1c0 2.1-.1 4.1-.2 6.2a69.1 69.1 0 0 1-2 12.5 51 51 0 0 1-2 6.3 39.9 39.9 0 0 1-3.1 6.2 32.4 32.4 0 0 1-9.8 10.4 35.6 35.6 0 0 1-13.2 5.3l-3.3.5-1.7.2h-1.5a35.5 35.5 0 0 0-4.7.6 29.9 29.9 0 0 0-8.8 3.2 23.3 23.3 0 0 0-6.9 5.4 14.1 14.1 0 0 0-2.2 3.4 12.2 12.2 0 0 0-.7 1.7 19.3 19.3 0 0 0-.5 2 39.2 39.2 0 0 0-.7 9.6 27.7 27.7 0 0 0 2 8.7 20.2 20.2 0 0 0 4.9 6.9 20.5 20.5 0 0 0 7.3 4.3 31.5 31.5 0 0 0 4.4 1.1c1.6.2 2.9.4 5 .5l45.8 2.6 22.9 1.4 11.4.7h5.4l5.2-.2a64.3 64.3 0 0 0 37.6-15.2 61.6 61.6 0 0 0 13.1-15.7 66.5 66.5 0 0 0 7.4-19.3l17.3-90 8.7-45c2.9-15.1 5.8-30.1 8.9-45.1 6.2-30 12.7-59.9 20.7-89.5a2.2 2.2 0 0 1 2.7-1.6 2.1 2.1 0 0 1 1.6 2.6z"></path><path fill="#31323d" d="M1095.2 2319.6h-1.5l-1.7.2a17.3 17.3 0 0 0-3.2 1.1 21.2 21.2 0 0 0-5.7 3.6 30.1 30.1 0 0 0-7.8 11.3 56.8 56.8 0 0 0-3.9 13.7 118.3 118.3 0 0 0-1.4 14.6 6.3 6.3 0 0 1-6.5 6 6.2 6.2 0 0 1-6-6.5 2.5 2.5 0 0 1 .1-.8 109.3 109.3 0 0 1 3.6-15.8 70 70 0 0 1 6.6-15.2 37.8 37.8 0 0 1 11.4-12.5 27.7 27.7 0 0 1 7.8-3.6 20.4 20.4 0 0 1 4.3-.8h4.5a2.3 2.3 0 0 1 1.8 2.6 2 2 0 0 1-2 1.8z"></path><path fill="#31323d" d="M1052.7 2314.9h-.7l-.9.2-1.6.4-1.6.7-1.5.7a26.2 26.2 0 0 0-5.5 3.9 33.7 33.7 0 0 0-7.8 11.2c-1 2.1-1.6 4.4-2.4 6.6a8.5 8.5 0 0 0-.4 1.7l-.4 1.7c-.3 1.2-.6 2.3-.8 3.5s-.7 4.7-.9 7l-.5 7.2v.4a6.3 6.3 0 0 1-12.5-.7 1.9 1.9 0 0 1 .1-.8l1.5-7.9c.6-2.6 1.4-5.2 2.1-7.8s1-2.6 1.4-3.8l.7-1.9c.3-.7.5-1.3.8-1.9a63.7 63.7 0 0 1 3.9-7.3 40.7 40.7 0 0 1 11.1-12.3 35.3 35.3 0 0 1 7.5-3.8l2-.7 2-.5 2.1-.3h2.3a2.2 2.2 0 0 1 2.1 2.3 2.1 2.1 0 0 1-1.8 2.1z"></path><path fill="#31323d" d="M1673.7 2025.2c8.1 34.9 15 70 21.4 105.1l4.7 26.4 4.5 26.4 9.1 52.8 9.1 52.8 2.3 13.2a67.2 67.2 0 0 0 3.1 11.7 78.2 78.2 0 0 0 5.3 10.9 67 67 0 0 0 7.1 9.7 69.8 69.8 0 0 0 8.9 8.2 67.2 67.2 0 0 0 10.2 6.4c.8.5 1.8.8 2.7 1.3l2.7 1.1a38.6 38.6 0 0 0 5.5 1.7 41.3 41.3 0 0 0 11.6 1.3l53.2-1.8 26.7-.8 6.7-.2h6.6l2.7-.4 2.7-.5 2.6-.8 1.2-.5 1.2-.5a3.9 3.9 0 0 0 1.1-.6l1.1-.6 2-1.4c.5-.5 1.1-1 1.6-1.6l.7-.9.4-.4.3-.5a21.9 21.9 0 0 0 3.3-9.5 26.6 26.6 0 0 0 .3-2.8v-4.4c0-.5-.1-1-.1-1.5v-1.5c0-.2-.1-.5-.1-.7v-.6a23 23 0 0 0-1.3-5 23.7 23.7 0 0 0-2.3-4.8l-.6-1.1-.8-1c-.5-.7-1.1-1.2-1.6-1.9a20.7 20.7 0 0 0-3.8-2.8l-1-.5-1.1-.4-2.3-.7h-4l-1.9-.2a42.6 42.6 0 0 1-15.4-4.6 31.9 31.9 0 0 1-12-11.9 38.7 38.7 0 0 1-4.7-15.4 24.8 24.8 0 0 1-.2-3.8v-3.7l.2-6.7.6-26.9.6-26.8c0-1.1.1-2.3.2-3.4l.2-3.5.6-6.9.8-6.8c.3-2.3.6-4.5 1-6.8a261.4 261.4 0 0 1 14.1-52.9c.7-2.1 1.6-4.2 2.5-6.3l2.7-6.3c.9-2.1 1.9-4.2 2.8-6.2s1.9-4.2 3-6.2c4.2-8.1 8.5-16 13.4-23.7a271.6 271.6 0 0 1 33.4-42.6 2.2 2.2 0 0 1 3.2-.1 2.2 2.2 0 0 1 .2 2.9 375.6 375.6 0 0 0-28.7 44.6c-4.3 7.7-8.1 15.6-11.7 23.6-1 2-1.8 4-2.7 6s-1.7 4-2.5 6.1l-2.3 6.1c-.8 2.1-1.6 4.1-2.2 6.2a278.7 278.7 0 0 0-12.7 50.7c-.4 2.1-.6 4.3-.8 6.5l-.7 6.5c-.3 2.1-.3 4.3-.5 6.4l-.2 3.3c-.1 1-.2 2.1-.2 3.2l-.3 26.8-.4 26.7v6.7a7.1 7.1 0 0 0 .1 1.5v1.5a29.6 29.6 0 0 0 3.3 12.9 17.3 17.3 0 0 0 6.8 6.6 27 27 0 0 0 10.2 2.9h1.4l1.7.2 2.1.2h1.1l1 .3a32.5 32.5 0 0 1 4.2 1.1l2 .8 2 1a32.6 32.6 0 0 1 7 5.2 41.2 41.2 0 0 1 2.8 3.1l1.2 1.7 1.1 1.8a39.9 39.9 0 0 1 3.5 7.2 50.9 50.9 0 0 1 2.1 7.9v1.1a2.8 2.8 0 0 1 .1.9l.2 1.9c0 .6.1 1.2.1 1.8v3.8c0 .6-.1 1.3-.1 1.9s-.2 2.6-.4 3.9a35.2 35.2 0 0 1-5.4 15.5l-.6.9-.7.9-1.4 1.7c-1 1.1-2.1 2.1-3.1 3l-3.5 2.6-1.8 1-1.9 1-1.9.8a6.2 6.2 0 0 1-1.9.7c-1.2.4-2.5.9-3.8 1.2l-3.8.8-4 .6h-3.4l-3.4.2-6.7.2-26.8.9-53.9 1.7a63.3 63.3 0 0 1-15-1.7 61.8 61.8 0 0 1-7.3-2.3l-3.4-1.5a33.6 33.6 0 0 1-3.3-1.6 90 90 0 0 1-12.5-7.8 82.2 82.2 0 0 1-19.4-21.9 80.9 80.9 0 0 1-6.3-13.3 78.1 78.1 0 0 1-3.7-14.2l-2.2-13.2-8.6-52.9-8.6-52.9-4.3-26.4-4.1-26.5c-5.4-35.3-10.4-70.7-14-106.4a2.2 2.2 0 0 1 2-2.4 2.3 2.3 0 0 1 2.2 1.2z"></path><path fill="#31323d" d="M1783.1 2307.4h2.4l2.3.2 4.5.8a32.5 32.5 0 0 1 8.4 3.5 37.6 37.6 0 0 1 13.3 12.7c.9 1.3 1.6 2.7 2.4 4l1.9 4.2a72.5 72.5 0 0 1 2.7 8.7 83.7 83.7 0 0 1 2.4 17.8 6.2 6.2 0 0 1-5.9 6.5 6.3 6.3 0 0 1-6.6-6v-.7a82.3 82.3 0 0 0-.2-15.7 47.2 47.2 0 0 0-1.4-7.5c-.3-1.2-.8-2.4-1.2-3.6a36.5 36.5 0 0 0-1.4-3.5 31.8 31.8 0 0 0-9.4-11.5 33.6 33.6 0 0 0-6.7-3.7l-3.7-1.1-1.9-.4-1.8-.3h-.2a2.2 2.2 0 0 1-2-2.4 2.3 2.3 0 0 1 2.1-2z"></path><path fill="#31323d" d="M1833.8 2304.2h2.4l2.3.2 4.4.8a34.7 34.7 0 0 1 8.5 3.5 37.6 37.6 0 0 1 13.3 12.7 41 41 0 0 1 2.3 4 38.9 38.9 0 0 1 1.9 4.2 73.2 73.2 0 0 1 2.8 8.7 98.8 98.8 0 0 1 2.4 17.8 6.3 6.3 0 0 1-6 6.5 6.2 6.2 0 0 1-6.5-5.9v-.8a82.3 82.3 0 0 0-.2-15.7 66.3 66.3 0 0 0-1.5-7.5c-.3-1.2-.7-2.4-1.1-3.6a36.8 36.8 0 0 0-1.5-3.5 29.9 29.9 0 0 0-9.4-11.5 27 27 0 0 0-6.7-3.6 25.3 25.3 0 0 0-3.6-1.2l-1.9-.4-1.8-.3h-.2a2.2 2.2 0 0 1-2-2.4 2.1 2.1 0 0 1 2.1-2z"></path><path fill="#31323d" d="M1202.7 867.7c-8-5.7-16.4-11.1-24.8-16.3s-17-10.3-25.7-15.1a496.8 496.8 0 0 0-53.6-25.7c-9.1-3.7-18.4-7-27.8-9.9a240.6 240.6 0 0 0-28.4-7.1c-4.8-.9-9.6-1.6-14.4-2.2l-7.3-.6-7.3-.4a262.1 262.1 0 0 0-29.4 0 122.2 122.2 0 0 0-28.1 4.6 51.9 51.9 0 0 0-12.2 5.4 25.1 25.1 0 0 0-8.6 8.2 21.5 21.5 0 0 0-3.2 11.2 38.8 38.8 0 0 0 2 12.8c2.6 8.7 7.3 17.2 12.6 25.2 1.4 2.1 2.7 4 4.2 6l2.2 2.9 1 1.4.3.3v.2l.6.7c3.2 3.7 6.6 7.3 10.1 10.8 6.9 7 14 13.9 21.4 20.5a318 318 0 0 0 47.7 35.3 2.5 2.5 0 0 1 .9 3.4 2.6 2.6 0 0 1-3.1 1.1c-4.8-2-9.4-4.2-13.9-6.5s-9-5-13.3-7.7a255.5 255.5 0 0 1-25-17.6q-6-4.8-11.7-9.9c-3.8-3.3-7.6-6.8-11.2-10.4s-7.3-7.2-10.8-11l-.7-.7-.2-.3-.2-.2-.3-.4-1.3-1.6-2.2-3.1c-1.6-2.1-3.1-4.2-4.6-6.4-5.8-8.6-11.1-17.8-14.5-28.3a53.8 53.8 0 0 1-2.7-16.8A35.5 35.5 0 0 1 924 802a38.5 38.5 0 0 1 12.7-12.7 64 64 0 0 1 15.2-6.8c10.4-3.3 20.9-4.7 31.2-5.4a289.9 289.9 0 0 1 30.9-.2l7.6.4 7.8.7c5.2.6 10.3 1.3 15.4 2.3 20.4 3.7 40 10.1 58.9 17.8a479.5 479.5 0 0 1 54.8 26.9 532.4 532.4 0 0 1 51.3 33 6 6 0 0 1-7.1 9.7z"></path><path fill="#31323d" d="M1290.4 864.8c-3.2-4.5-5.8-9-8.7-13.1a72.3 72.3 0 0 0-9-11.2 42.4 42.4 0 0 0-11.2-8l-1.6-.7-1.6-.7-1.2-.5-1.2-.6-2.3-1.4a28.1 28.1 0 0 1-7.3-7.3 46.4 46.4 0 0 1-7.1-17 73.4 73.4 0 0 1-1.9-17.3 104.7 104.7 0 0 1 5.8-33.7 88.6 88.6 0 0 1 7.5-15.5 77.7 77.7 0 0 1 10.3-14 67.9 67.9 0 0 1 13.5-11.4 47 47 0 0 1 17.1-6.9 37.3 37.3 0 0 1 19 1.5 41.5 41.5 0 0 1 15.5 9.8 55.1 55.1 0 0 1 10.3 13.9 58.2 58.2 0 0 1 3.4 7.7 55.3 55.3 0 0 1 2.4 7.9 2.5 2.5 0 0 1-1.9 3.1 2.6 2.6 0 0 1-2.6-1c-3.2-4.2-6.3-8.4-9.5-12.3a71.9 71.9 0 0 0-10.2-10.4 32.7 32.7 0 0 0-11.5-6.6 24.8 24.8 0 0 0-12.4-.6 34.4 34.4 0 0 0-12.1 5.4 58.6 58.6 0 0 0-10.6 9.4 81.1 81.1 0 0 0-14.7 24.9 99.1 99.1 0 0 0-3.8 14.2 91.6 91.6 0 0 0-1.5 14.7 74.6 74.6 0 0 0 1.2 14.3 36 36 0 0 0 4.7 12.4 16.2 16.2 0 0 0 3.8 4l1.1.7c.2.2.4.2.6.3l.6.3 2 1 2 1a51.2 51.2 0 0 1 14.3 10.9 50.6 50.6 0 0 1 9.2 14.9 61 61 0 0 1 4.2 16 2.6 2.6 0 0 1-2.2 2.9 2.4 2.4 0 0 1-2.4-1z"></path><path fill="none" stroke="#31323d" stroke-linecap="round" stroke-miterlimit="10" stroke-width="12.5" d="M931.3 2117.4c-38.1 9.1-130.5 43.4-184.5 78.3-26.5 17.1-10.1 55.9 23.2 55.3l280.4-5.5"></path><path fill="#31323d" d="M840.4 2200.1a58.8 58.8 0 0 0-7.8 2.5 63.6 63.6 0 0 0-7.5 3.4c-4.7 2.7-8.9 6-11.7 10.1a20.7 20.7 0 0 0-3.8 13.3 37.6 37.6 0 0 0 4.5 14 6.3 6.3 0 0 1-2.6 8.5 6.4 6.4 0 0 1-8.5-2.6l-.3-.7a47.2 47.2 0 0 1-3.5-19.2 31.5 31.5 0 0 1 2.2-10 30.5 30.5 0 0 1 5.4-8.6 41.9 41.9 0 0 1 15.5-10.5 53.9 53.9 0 0 1 8.6-2.8 51.9 51.9 0 0 1 8.9-1.7 2.1 2.1 0 0 1 2.4 1.9 2.2 2.2 0 0 1-1.7 2.5z"></path><path fill="#31323d" d="M793 2202.1a21.9 21.9 0 0 0-3.4 1l-3.2 1.4a29.8 29.8 0 0 0-6 3.6 19.9 19.9 0 0 0-7.6 10.2 21.1 21.1 0 0 0-1 6.1 8.6 8.6 0 0 0 .1 1.6 9.2 9.2 0 0 0 .1 1.6c.1.5.1 1 .2 1.6l.3 1.6a51.7 51.7 0 0 0 5 12.6 6.4 6.4 0 0 1-2.6 8.5 6.3 6.3 0 0 1-8.5-2.6 2.1 2.1 0 0 1-.3-.7h-.1a61.9 61.9 0 0 1-3.9-16.2v-4.4a34.2 34.2 0 0 1 .4-4.4 28.8 28.8 0 0 1 2.6-8.5 24.7 24.7 0 0 1 5.1-7.2 28.6 28.6 0 0 1 6.8-5.2 41.3 41.3 0 0 1 7.5-3.2l3.9-1.1a25.7 25.7 0 0 1 4-.6 2.2 2.2 0 0 1 .8 4.3z"></path><path fill="none" stroke="#31323d" stroke-linecap="round" stroke-miterlimit="10" stroke-width="12.5" d="M2020.7 2120.2c47.4 13.8 136.8 46.1 179.8 75.5 26.1 17.8 10.1 55.9-23.2 55.3l-261.6-5.1"></path><path fill="#31323d" d="M2107.6 2193.7a64.1 64.1 0 0 1 8.9 2.1 55.8 55.8 0 0 1 8.6 3.2 43.9 43.9 0 0 1 15.4 11.2 29.7 29.7 0 0 1 5.4 8.7 34.4 34.4 0 0 1 2.2 10.1 47 47 0 0 1-3.5 19.5h-.1a6.2 6.2 0 1 1-11.6-4.5l.3-.7a36.5 36.5 0 0 0 4.4-14.3 21.2 21.2 0 0 0-3.8-13.7 37.8 37.8 0 0 0-11.7-10.7 73.9 73.9 0 0 0-7.4-3.8 62.2 62.2 0 0 0-7.9-2.8h-.1a2.2 2.2 0 0 1 .9-4.3z"></path><path fill="#31323d" d="M2155.1 2195.7a25.9 25.9 0 0 1 4 .9c1.4.3 2.7.8 4 1.2a47.4 47.4 0 0 1 7.5 3.7 31.1 31.1 0 0 1 6.6 5.5 27.8 27.8 0 0 1 5.1 7.4 31.7 31.7 0 0 1 2.6 8.6 576 576 0 0 1 .4 4.5v4.4a60.2 60.2 0 0 1-4 16.6 6.3 6.3 0 0 1-11.7-4.4l.3-.8a46.6 46.6 0 0 0 5-12.9 25.6 25.6 0 0 0-.4-12.9 23.6 23.6 0 0 0-7.6-10.8 36.8 36.8 0 0 0-6-4 31.3 31.3 0 0 0-3.2-1.5 27.9 27.9 0 0 0-3.4-1.2h-.1a2.1 2.1 0 0 1-1.5-2.7 2.2 2.2 0 0 1 2.4-1.6z"></path><path fill="#31323d" d="M1061.1 1347.8a53.2 53.2 0 0 1-30.4.9 55.5 55.5 0 0 1-27.2-16.5 52.1 52.1 0 0 1-8.7-14 47.9 47.9 0 0 1-3.4-16.2 51.7 51.7 0 0 1 1.8-16.2 61.1 61.1 0 0 1 6.2-14.6 6.1 6.1 0 0 1 8.5-2.2 6.2 6.2 0 0 1 2.6 7.9h-.1a69 69 0 0 0-4.1 12.1 42.3 42.3 0 0 0-1 12.2 36 36 0 0 0 2.5 11.7 38.4 38.4 0 0 0 6.1 10.3 44.5 44.5 0 0 0 9.1 8.2 52.5 52.5 0 0 0 11.3 5.8c8 3 16.8 4.5 26.2 5.6h.1a2.4 2.4 0 0 1 2.2 2.8 2.5 2.5 0 0 1-1.7 2.2z"></path><path fill="none" stroke="#31323d" stroke-linecap="round" stroke-miterlimit="10" stroke-width="12" d="M986.4 914.8s-60.6 14.6-27.4 85.8c18.6 39.8 64 72.3 107 86.1"></path><path fill="#31323d" d="M1616.6 854.1c16.9-12.5 34.4-24 52.3-34.9a590.5 590.5 0 0 1 55.5-29.8c19.1-8.8 38.9-16.6 59.6-21.8a188.7 188.7 0 0 1 31.8-5.4c2.7-.3 5.3-.4 8-.5l7.9-.3q8-.3 15.9 0c10.7.4 21.5 1.3 32.2 3.8a82 82 0 0 1 16.1 5.3 46.4 46.4 0 0 1 14.7 10.2 35.3 35.3 0 0 1 5.6 7.7 33.8 33.8 0 0 1 3.1 9.1 41.8 41.8 0 0 1-.5 18 75.7 75.7 0 0 1-5.6 16 131.6 131.6 0 0 1-8 14.3c-3 4.5-6.1 8.9-9.4 13.1l-1.3 1.7-.3.4-.5.5-.7.8-2.7 2.9-5.6 5.6a315.8 315.8 0 0 1-23.6 21.2 260.7 260.7 0 0 1-25.7 18.4 196.4 196.4 0 0 1-28 14.7 2.5 2.5 0 0 1-3.3-1.4 2.5 2.5 0 0 1 1-3.1h.1a313.9 313.9 0 0 0 49.1-36.7c7.6-6.8 15-13.9 22.1-21.3l5.2-5.5 2.5-2.9.6-.7.2-.2.3-.3 1.1-1.4c3-4 5.9-8.1 8.6-12.4 5.2-8.4 9.7-17.3 11.6-26.3a29.7 29.7 0 0 0 .3-12.9 20.6 20.6 0 0 0-5.5-10.4 35.1 35.1 0 0 0-10.9-7.2 71.2 71.2 0 0 0-13.5-4.4 159.7 159.7 0 0 0-29.6-3.2c-5.1-.1-10.2-.1-15.2.1-2.6 0-5.1.2-7.7.3l-7.5.4a178 178 0 0 0-29.6 5.1 295.2 295.2 0 0 0-29 9.1c-9.6 3.6-19 7.5-28.3 11.8-37.2 17.1-72.7 38.6-106.3 62.2h-.1a6 6 0 0 1-8.3-1.5 6 6 0 0 1 1.3-8.2z"></path><path fill="none" stroke="#31323d" stroke-linecap="round" stroke-miterlimit="10" stroke-width="12" d="M1850.8 897.8s62.7 16.4 29.4 87.5c-16.9 36.4-56.4 66.7-95.9 82.1"></path><path fill="#31323d" d="M1536.3 855.1a65.1 65.1 0 0 1 3.6-19.7 53.2 53.2 0 0 1 4.5-9.3 99.2 99.2 0 0 1 5.7-8.2l2.8-3.7 2.7-3.8c1.7-2.5 3.4-5 4.9-7.6a110.3 110.3 0 0 0 8.3-16 87.4 87.4 0 0 0 5.4-16.9 95.2 95.2 0 0 0 2.2-17.6 86.1 86.1 0 0 0-1.4-17.5 79 79 0 0 0-2-8.4c-.4-1.4-.8-2.8-1.3-4.1s-.5-1.4-.7-2l-.4-.9-.4-.7-.2-.5-.2-.6-.4-.7-.8-1.4c-.5-1-1.1-1.9-1.7-2.9a49.1 49.1 0 0 0-4-5.3 38.8 38.8 0 0 0-9.8-8.4 29.7 29.7 0 0 0-11.9-3.8 36.4 36.4 0 0 0-13 1.1 57.3 57.3 0 0 0-24 13.1 76.1 76.1 0 0 0-17.3 22.9 2.6 2.6 0 0 1-3.4 1.1 2.5 2.5 0 0 1-1.3-2.7 61.6 61.6 0 0 1 14.7-28.7 59.8 59.8 0 0 1 28.1-17.8 49.6 49.6 0 0 1 17.3-2 43.6 43.6 0 0 1 17.3 4.9 53.1 53.1 0 0 1 13.8 11 58.2 58.2 0 0 1 5.2 6.8c.8 1.2 1.6 2.4 2.3 3.7l1.1 1.9.5 1 .2.6.3.6-.2-.5.4.8.3.7.5 1.2c.4.9.7 1.7 1 2.5s1.1 3.3 1.6 5a69 69 0 0 1 2.3 10 92.9 92.9 0 0 1 1.3 20.4 103.7 103.7 0 0 1-9.6 39.2 123.4 123.4 0 0 1-9.8 17.4c-1.9 2.8-3.9 5.4-6 8l-3.1 3.8-3.3 3.6c-4.2 4.6-7.9 9-10.7 14.1a79.8 79.8 0 0 0-6.4 17 2.6 2.6 0 0 1-5-.8z"></path><path fill="#31323d" d="M1320.8 718.8c.3-2.9.7-5.6 1.2-8.3s1.2-5.4 1.9-8a111.5 111.5 0 0 1 5.3-15.7c1.1-2.6 2.2-5.1 3.5-7.6s2.6-5 4-7.4a102.1 102.1 0 0 1 10-13.7 80.9 80.9 0 0 1 27.6-20.7 76.3 76.3 0 0 1 16.8-5.3l2.1-.4 2.1-.3 4.2-.6c2.8-.3 5.6-.6 8.5-.7a100.2 100.2 0 0 1 33.9 4.1 86.9 86.9 0 0 1 30.3 16.5 78.1 78.1 0 0 1 12 12.4 74.6 74.6 0 0 1 8.9 14.8 67.3 67.3 0 0 1 5.2 16.3 51.1 51.1 0 0 1 .4 17 2.5 2.5 0 0 1-4.9 0h-.1a75.3 75.3 0 0 0-10.2-28.2 79.9 79.9 0 0 0-8.7-12 73.5 73.5 0 0 0-10.7-10.2 75.7 75.7 0 0 0-26.1-13.2 94.3 94.3 0 0 0-29.5-3.4c-2.5 0-5 .2-7.5.4l-3.8.5-1.9.2-1.8.3a68.8 68.8 0 0 0-13.9 4 70.1 70.1 0 0 0-23.8 16.9 106.6 106.6 0 0 0-9.5 11.6c-1.5 2.1-2.9 4.3-4.2 6.4s-2.7 4.4-3.9 6.7a139.1 139.1 0 0 0-6.8 14c-2.1 4.7-4 9.7-5.7 14.6a2.6 2.6 0 0 1-3.2 1.6 2.6 2.6 0 0 1-1.7-2.6z"></path><path fill="#31323d" d="M1802.5 1346.6c8.2-.1 16.8-1.6 23.7-5a31.5 31.5 0 0 0 4.7-3 33.2 33.2 0 0 0 3.7-3.8 34.7 34.7 0 0 0 5-10 41.3 41.3 0 0 0 .7-22.3 31.6 31.6 0 0 0-1.7-5.2 28.2 28.2 0 0 0-2.5-4.9 44.1 44.1 0 0 0-6.8-8.8v-.2a6.2 6.2 0 0 1 .1-8.8 6.3 6.3 0 0 1 8.3-.3 42.7 42.7 0 0 1 9.8 11.3 42.2 42.2 0 0 1 3.4 6.7 47.1 47.1 0 0 1 2.2 7.3 49.7 49.7 0 0 1-2.8 29.1 42.5 42.5 0 0 1-7.9 12.6 26.2 26.2 0 0 1-6 5 29.8 29.8 0 0 1-6.7 3.3 52.6 52.6 0 0 1-13.9 2.7q-3.5.2-6.9 0a52.3 52.3 0 0 1-6.8-.7 2.5 2.5 0 0 1-2.1-2.9 2.5 2.5 0 0 1 2.4-2.1z"></path><path fill="#31323d" d="M1550.6 827.5c11.5 3 22.6 6.6 33.6 10.6 5.5 2.1 11 4.2 16.4 6.5s10.8 4.8 16.1 7.7h.4l9.6 6.3 9.7 6.3c6.6 4.4 12.9 9 19 14a254.1 254.1 0 0 1 33.5 32.9c5 5.9 10 11.9 14.7 18s9.4 12.3 14 18.5c9.1 12.5 17.7 25.3 26.2 38.2 16.8 25.8 32.6 52.2 47.7 79q11.3 20.1 22.1 40.5c3.6 6.8 7.2 13.6 10.7 20.5s6.9 13.8 10.1 20.9l-4.4-3.7a84.6 84.6 0 0 1 15.4 5.2 86.3 86.3 0 0 1 14.1 8.2 82.2 82.2 0 0 1 12.3 10.5 77 77 0 0 1 5.4 6 27.8 27.8 0 0 1 2.6 3.2 26.2 26.2 0 0 1 2.4 3.4 71.5 71.5 0 0 1 11.4 30.9 67 67 0 0 1-3.9 32.8 59 59 0 0 1-8.4 14.6 61 61 0 0 1-12.2 11.6 62.5 62.5 0 0 1-7 4.3l-3.7 1.9-3.6 1.6a84.3 84.3 0 0 1-15.3 4.7 93.5 93.5 0 0 1-15.8 2 117.1 117.1 0 0 1-15.7-.6 111.8 111.8 0 0 1-15.3-3 69.9 69.9 0 0 1-7.4-2.3 72.2 72.2 0 0 1-7.2-2.9 2.5 2.5 0 0 1-1.1-3.3 2.3 2.3 0 0 1 2.7-1.2h.1c2.3.6 4.8 1 7.1 1.5l7.2 1.1 7.3.7 7.2.2a102.3 102.3 0 0 0 28.2-3.3 90.2 90.2 0 0 0 13.2-4.7l3.1-1.5 3-1.6a55 55 0 0 0 5.6-3.8 51.2 51.2 0 0 0 9.3-9.3 49.1 49.1 0 0 0 6.2-11.5c6.2-16.5 3.1-36.3-6.8-51.1a18.5 18.5 0 0 0-1.9-2.7 24.7 24.7 0 0 0-2.1-2.7 56.8 56.8 0 0 0-4.7-5.1 80.8 80.8 0 0 0-10.3-9.1 75.3 75.3 0 0 0-24.6-11.7l-3.2-.9-1.3-2.9c-3.2-6.8-6.4-13.7-9.8-20.5s-6.9-13.5-10.5-20.3c-7.1-13.5-14.3-26.9-21.8-40.3-14.9-26.6-30.4-52.9-46.9-78.5-8.3-12.8-16.8-25.5-25.6-37.8-4.5-6.2-9-12.3-13.7-18.2s-9.4-11.9-14.2-17.7a237.3 237.3 0 0 0-32-31.4c-5.8-4.7-11.8-9.2-18-13.3l-9.6-6.3-9.6-6.2.4.2c-4.9-2.6-10-4.9-15.2-7.1s-10.4-4.3-15.7-6.3c-10.7-3.9-21.6-7.4-32.4-10.3h-.1a6 6 0 1 1 3-11.6z"></path><path fill="#31323d" d="M1277.3 844.6c-31.3 8.9-61.1 23.5-86.2 44.2-1.6 1.3-3.2 2.5-4.7 3.9s-3.1 2.6-4.5 4l-4.4 4.1-4.3 4.5-4.3 4.5-4.3 4.4c-2.7 2.9-5.4 6-7.9 9.1-10.2 12.6-19.1 26.5-27.4 40.7s-15.8 29-22.9 44-13.7 30.1-20.1 45.4-12.3 30.8-18.1 46.4c-2.8 7.8-5.6 15.6-8.3 23.5-1.3 3.8-2.7 7.9-4.2 11.9s-3 7.9-4.6 11.8l-1.6 4.1-4.4-.3-4.6-.3-3.9-.2a75.2 75.2 0 0 0-8.2.5 76.1 76.1 0 0 0-16.3 3.3 81.5 81.5 0 0 0-15.2 6.4 85 85 0 0 0-13.8 9.2 93.1 93.1 0 0 0-11.8 11.7c-.9 1.1-1.8 2.1-2.6 3.2a37.1 37.1 0 0 0-2.3 3.2 69.9 69.9 0 0 0-4 7 65.1 65.1 0 0 0-6.4 31.5c.6 10.7 4.4 21 11.5 28.5a44.2 44.2 0 0 0 27.9 13 54.1 54.1 0 0 0 16-1.2 81.9 81.9 0 0 0 15.8-5.4 203.4 203.4 0 0 0 29.9-17.1h.1a2 2 0 0 1 2.9.6 2 2 0 0 1-.1 2.4 76.7 76.7 0 0 1-12.9 13.2 96.5 96.5 0 0 1-15.5 10.2 83.6 83.6 0 0 1-17.7 6.6 65.6 65.6 0 0 1-19.3 1.9 54 54 0 0 1-9.8-1.5 51.8 51.8 0 0 1-9.4-3.1A50.7 50.7 0 0 1 959 1263a50 50 0 0 1-11-16.7 64.5 64.5 0 0 1-4.4-19.2 74.3 74.3 0 0 1 1.3-19.4 76.2 76.2 0 0 1 6-18.4c1.4-2.9 3-5.7 4.7-8.5s1.9-2.7 2.9-4l3-3.7a106 106 0 0 1 13.5-13.3 96.7 96.7 0 0 1 33.5-17.8 98.1 98.1 0 0 1 18.7-3.6 75.8 75.8 0 0 1 9.6-.3l4.9.3 4.3.4-6 3.7c1.5-3.8 3-7.6 4.4-11.5s2.8-7.6 4.1-11.6c2.8-8 5.6-15.9 8.5-23.7 5.8-15.8 11.8-31.4 18.2-46.9s13.2-30.8 20.4-46 14.9-30.2 23.3-44.8 17.7-28.9 28.5-42.2c2.7-3.4 5.5-6.6 8.4-9.8l4.5-4.6 4.3-4.5 4.4-4.5 4.7-4.5 4.9-4.3c1.6-1.4 3.2-2.8 4.9-4.1 26.5-21.8 57.8-37.2 90.6-46.5a6 6 0 1 1 3.2 11.6z"></path></g></g><g id="item_g"></g><g id="env_front"><defs><linearGradient id="wild__a" x1="652.93" x2="778.08" y1="2220.37" y2="2249.7" gradientUnits="userSpaceOnUse"><stop offset="0" stop-color="#fff" stop-opacity="0"></stop><stop offset="1"></stop></linearGradient><linearGradient id="wild__f" x1="674.6" x2="726.6" y1="2227.32" y2="2239.51" xlink:href="#wild__a"></linearGradient><linearGradient id="wild__g" x1="783.81" x2="911.11" y1="1711.76" y2="2324.35" xlink:href="#wild__a"></linearGradient><linearGradient id="wild__b" x1="684.51" x2="801.31" y1="2205.29" y2="2193.74" gradientUnits="userSpaceOnUse"><stop offset="0" stop-color="#fff"></stop><stop offset="1" stop-color="#231f20"></stop></linearGradient><linearGradient id="wild__h" x1="686.96" x2="800.46" y1="2199.01" y2="2187.78" xlink:href="#wild__b"></linearGradient><linearGradient id="wild__c" x1="923.89" x2="990.63" y1="2348.34" y2="2348.34" gradientUnits="userSpaceOnUse"><stop offset="0" stop-color="#fff" stop-opacity="0"></stop><stop offset=".8"></stop></linearGradient><linearGradient id="wild__d" x1="927.03" x2="1032.1" y1="2370.2" y2="2370.2" gradientUnits="userSpaceOnUse"><stop offset="0" stop-color="#fff" stop-opacity="0"></stop><stop offset="1"></stop></linearGradient><linearGradient id="wild__i" x1="1020.32" x2="1232.26" y1="2158.57" y2="2282.38" xlink:href="#wild__a"></linearGradient><linearGradient id="wild__j" x1="993.43" x2="1074.15" y1="2293.66" y2="2293.66" xlink:href="#wild__a"></linearGradient><linearGradient id="wild__k" x1="939.18" x2="989.18" y1="2298.45" y2="2298.45" gradientTransform="translate(-253.3 127.5) rotate(-6.5)" xlink:href="#wild__a"></linearGradient><linearGradient id="wild__l" x1="1821.63" x2="1946.79" y1="2220.37" y2="2249.7" gradientTransform="matrix(-1, 0, 0, 1, 4121.56, 0)" xlink:href="#wild__a"></linearGradient><linearGradient id="wild__m" x1="1843.3" x2="1895.3" y1="2227.32" y2="2239.51" gradientTransform="matrix(-1, 0, 0, 1, 4121.56, 0)" xlink:href="#wild__a"></linearGradient><linearGradient id="wild__n" x1="1961.79" x2="2089.09" y1="1709.83" y2="2322.42" gradientTransform="matrix(-1, 0, 0, 1, 4121.56, 0)" xlink:href="#wild__a"></linearGradient><linearGradient id="wild__o" x1="1853.22" x2="1970.01" y1="2205.29" y2="2193.74" gradientTransform="matrix(-1, 0, 0, 1, 4121.56, 0)" xlink:href="#wild__b"></linearGradient><linearGradient id="wild__p" x1="1855.67" x2="1969.17" y1="2199.01" y2="2187.78" gradientTransform="matrix(-1, 0, 0, 1, 4121.56, 0)" xlink:href="#wild__b"></linearGradient><linearGradient id="wild__q" x1="2143.6" x2="2210.34" y1="2348.34" y2="2348.34" gradientTransform="matrix(-1, 0, 0, 1, 4121.56, 0)" xlink:href="#wild__c"></linearGradient><linearGradient id="wild__r" x1="2146.73" x2="2251.81" y1="2370.2" y2="2370.2" gradientTransform="matrix(-1, 0, 0, 1, 4121.56, 0)" xlink:href="#wild__d"></linearGradient><linearGradient id="wild__s" x1="2239" x2="2453.59" y1="2153.89" y2="2279.25" gradientTransform="matrix(-1, 0, 0, 1, 4121.56, 0)" xlink:href="#wild__a"></linearGradient><linearGradient id="wild__t" x1="2213.14" x2="2293.86" y1="2293.66" y2="2293.66" gradientTransform="matrix(-1, 0, 0, 1, 4121.56, 0)" xlink:href="#wild__a"></linearGradient><linearGradient id="wild__u" x1="2151.13" x2="2201.12" y1="2435.83" y2="2435.83" gradientTransform="matrix(-0.99, -0.11, -0.11, 0.99, 4374.9, 127.54)" xlink:href="#wild__a"></linearGradient><linearGradient id="wild__e" x1="927.73" x2="762.39" y1="2235.26" y2="2160.32" gradientUnits="userSpaceOnUse"><stop offset="0" stop-color="#fff" stop-opacity="0"></stop><stop offset=".72" stop-color="#fff"></stop></linearGradient><linearGradient id="wild__v" x1="828.2" x2="757.71" y1="2221.53" y2="2229.23" xlink:href="#wild__e"></linearGradient><linearGradient id="wild__w" x1="875.65" x2="812.09" y1="2234.03" y2="2240.97" gradientTransform="translate(129.5 -43.5) rotate(3.3)" xlink:href="#wild__e"></linearGradient><linearGradient id="wild__x" x1="878.96" x2="845" y1="2188.09" y2="2191.8" xlink:href="#wild__e"></linearGradient><linearGradient id="wild__y" x1="1108.79" x2="922.46" y1="2212.79" y2="2349.01" xlink:href="#wild__e"></linearGradient><linearGradient id="wild__z" x1="1191.64" x2="791.41" y1="2128.41" y2="2138.55" xlink:href="#wild__e"></linearGradient><linearGradient id="wild__A" x1="1148.43" x2="997.8" y1="2367.91" y2="2355.22" xlink:href="#wild__e"></linearGradient><linearGradient id="wild__B" x1="1159.61" x2="1035.6" y1="2388.02" y2="2357.86" xlink:href="#wild__e"></linearGradient><linearGradient id="wild__C" x1="1070.85" x2="1022" y1="2265.5" y2="2301.22" xlink:href="#wild__e"></linearGradient><linearGradient id="wild__D" x1="1137.49" x2="1076.55" y1="2271.76" y2="2316.31" xlink:href="#wild__e"></linearGradient><linearGradient id="wild__E" x1="2096.44" x2="1931.1" y1="2235.26" y2="2160.32" gradientTransform="matrix(-1, 0, 0, 1, 4121.56, 0)" xlink:href="#wild__e"></linearGradient><linearGradient id="wild__F" x1="1996.91" x2="1926.41" y1="2221.53" y2="2229.23" gradientTransform="matrix(-1, 0, 0, 1, 4121.56, 0)" xlink:href="#wild__e"></linearGradient><linearGradient id="wild__G" x1="2042.44" x2="1978.88" y1="2167.15" y2="2174.09" gradientTransform="matrix(-1, 0.06, 0.06, 1, 3992.09, -43.52)" xlink:href="#wild__e"></linearGradient><linearGradient id="wild__H" x1="2047.67" x2="2013.71" y1="2188.09" y2="2191.8" gradientTransform="matrix(-1, 0, 0, 1, 4121.56, 0)" xlink:href="#wild__e"></linearGradient><linearGradient id="wild__I" x1="2328.49" x2="2142.17" y1="2212.79" y2="2349.01" gradientTransform="matrix(-1, 0, 0, 1, 4121.56, 0)" xlink:href="#wild__e"></linearGradient><linearGradient id="wild__J" x1="2456.12" x2="1920.47" y1="2129.2" y2="2142.77" gradientTransform="matrix(-1, 0, 0, 1, 4121.56, 0)" xlink:href="#wild__e"></linearGradient><linearGradient id="wild__K" x1="2368.13" x2="2217.5" y1="2367.91" y2="2355.22" gradientTransform="matrix(-1, 0, 0, 1, 4121.56, 0)" xlink:href="#wild__e"></linearGradient><linearGradient id="wild__L" x1="2379.31" x2="2255.31" y1="2388.02" y2="2357.86" gradientTransform="matrix(-1, 0, 0, 1, 4121.56, 0)" xlink:href="#wild__e"></linearGradient><linearGradient id="wild__M" x1="2290.56" x2="2241.71" y1="2265.5" y2="2301.22" gradientTransform="matrix(-1, 0, 0, 1, 4121.56, 0)" xlink:href="#wild__e"></linearGradient><linearGradient id="wild__N" x1="2357.2" x2="2296.26" y1="2271.76" y2="2316.31" gradientTransform="matrix(-1, 0, 0, 1, 4121.56, 0)" xlink:href="#wild__e"></linearGradient></defs><g style="isolation:isolate"><path fill="none" d="M0 0H3000V3000H0z"></path><g><path fill="#2a7f96" d="M1227.2,2318.5c-11.1-4.8-21.9-22.2-24.7-46.1l2.2-3.4c22-36,4.5-77,4.5-77s-1-46.8,20-159.6c-97-80.5-231.3-6.6-231.3-6.6,20,17,28.8,55.7,20.3,98.2s5.5,59.5,5.5,59.5c-.5-24,13-44.4,13-44.4,19.9,70.7-28.9,102-28.9,102,17.1,24.8,51.2-9.4,51.2-9.4-8.3,11-25.4,18.1-31.7,22-20,12.2-14.2,22.7-14.2,22.7s-20.9,2.3-27.4,9.7c-4.9,5.7-6.6,14.7-7,16.7-29.1,3.4-57.4,20.2-63.5,74.4,0,0,24.6-31.7,63-31.1l1.8-1.8c-1.1,3-2.1,6.1-3,9.4-12.3,45.7,4.6,61.7,4.6,61.7s5-27.3,20-47.8c1.3,1.1,4.1-5,5.6-4s14.2,9.1,29.5,13.6c0,0,3,4.8,5,4.8.2,36.1,20.8,48.3,20.8,48.3s2-24.7,12.8-46.4l8.9.9c72.3,7.4,82-54.3,82-54.3-2.3,9-1.4,16.8,6,22.2s8.7,20,8.7,20c31.5-28.7,14.8-52.7,4.3-67.9C1203.3,2326.3,1227.2,2318.5,1227.2,2318.5Z"></path><path fill="#b78662" d="M1071.1,2317.3c-5.2-7.4-14.9-11.8-14.9-11.8-7.4-3.2-11.1-3-18.9-3a59.4,59.4,0,0,0-14.6,2.4h-1.2S929.9,2286.4,920,2374c0,0,19.8-28.5,58.2-27.9h1.2a75.4,75.4,0,0,0-2.4,7.6c-12.3,45.7,1.7,60.7,1.7,60.7s16.6-73.7,66.5-68.4l2.7.8a83.9,83.9,0,0,0-5.4,21.3c-5.8,47,20,62.2,20,62.2s6-76.2,55.6-78.6l10.9-.8s.7-12,.5-13.4c-3.7-31-35.7-31-35.7-31a66.1,66.1,0,0,0-22.6,10.6"></path></g><g><path fill="#2a7f96" d="M767,2171.4s5.9-21.9,44.4-22.3a121.1,121.1,0,0,1-9-19.8s25.3,23.7,86.3-5.3c0,0,12.5-13.7,39-22,3.3,25.1,19.5,50.4,28.6,63.7,0,0,7.8,11,32.6,41.8,9,11.3,25.5,22.7,25.5,22.7s5.3,21.6-16.5,27.9c-37.3,10.9-89.6,1.3-89.6,1.3s-23.6,2.3-26,1.4L859.2,2250s-54.4.2-82.4,39.2c0,0,2-26.6,11.7-38.2,0,0-45.2-5.4-63.9,32.6,0,0-1.2-30.1,5.7-43.5,0,0-23.1,3.8-32.5,22.8,0,0-5.4-47.7,37.2-63C735,2199.9,741.2,2178,767,2171.4Z"></path><path fill="#b78662" d="M776.8,2289.2c9.6-2.7,10.2-15.1,23.5-21.1,0,0,41.1-23.8,86.6-18.1,1.6-5-4.8-23.1-4.8-23.1-6.5-34-48.5-20.6-48.5-20.6s-4.7-2.2-14.1,1.2c-8.9-9.3-46.6-9.6-46.6-9.6a118.3,118.3,0,0,0-15,4.9c-1.8-.8-5.6,0-5.6,0s-63.1-11.5-54.5,60.1c0,0-1.7-25.5,32.5-22.8l-3.7,28.9c0,4,0,6.9.3,13.4,0,0,14.6-35.5,56-28.7L781,2264C781.9,2264,775.9,2289.4,776.8,2289.2Z"></path></g><g><path fill="#2a7f96" d="M1674.7,2318.5c11.1-4.8,21.9-22.2,24.7-46.1l-2.2-3.4c-22-36-4.5-77-4.5-77s-1.1-54.8-22.1-167.6c97.1-80.5,252.4,5.8,252.4,5.8-20,17-47.8,51.3-39.3,93.8s-5.5,59.5-5.5,59.5c.5-24-13.1-44.4-13.1-44.4-19.9,70.7,28.9,102,28.9,102-17.1,24.8-51.1-9.4-51.1-9.4,8.2,11,25.4,18.1,31.6,22,20.1,12.2,14.2,22.7,14.2,22.7s21,2.3,27.4,9.7c4.9,5.7,6.7,14.7,7.1,16.7,29,3.4,57.3,20.2,63.5,74.4,0,0-24.7-31.7-63-31.1l-1.9-1.8a86.2,86.2,0,0,1,3.1,9.4c12.3,45.7-4.6,61.7-4.6,61.7s-5.1-27.3-20.1-47.8c-1.3,1.1-4.1-5-5.6-4,0,0-14.1,9.1-29.5,13.6,0,0-2.9,4.8-4.9,4.8-.2,36.1-20.9,48.3-20.9,48.3s-1.9-24.7-12.7-46.4l-8.9.9c-72.4,7.4-82.1-54.3-82.1-54.3,2.4,9,1.4,16.8-5.9,22.2s-8.7,20-8.7,20c-31.6-28.7-14.8-52.7-4.3-67.9C1698.6,2326.3,1674.7,2318.5,1674.7,2318.5Z"></path><path fill="#b78662" d="M1830.7,2317.3c5.2-7.4,15-11.8,15-11.8,7.3-3.2,11.1-3,18.8-3a59.4,59.4,0,0,1,14.6,2.4h1.3s91.5-18.4,101.5,69.2c0,0-19.9-28.5-58.2-27.9h-1.2a75.4,75.4,0,0,1,2.4,7.6c12.3,45.7-1.7,60.7-1.7,60.7s-16.6-73.7-66.5-68.4l-2.8.8a79.9,79.9,0,0,1,5.5,21.3c5.8,47-20.1,62.2-20.1,62.2s-6-76.2-55.5-78.6l-10.9-.8s-.7-12-.5-13.4c3.6-31,35.6-31,35.6-31a66.1,66.1,0,0,1,22.6,10.6"></path></g><g><path fill="#2a7f96" d="M2185.9,2171.4s-5.9-21.9-44.4-22.3a115.8,115.8,0,0,0,8.9-19.8s-25.2,23.7-86.2-5.3c0,0-12.5-13.7-39.1-22-3.3,25.1-19.4,50.4-28.5,63.7,0,0-7.9,11-32.6,41.8-9,11.3-25.5,22.7-25.5,22.7a21.5,21.5,0,0,0-.6,4.5c-.1,2.2-15.7,5.9-14.9,8.8s18.6,6.5,22.2,9.6a26.5,26.5,0,0,0,9.8,5c37.2,10.9,89.6,1.3,89.6,1.3s23.5,2.3,26,1.4l23.1-10.8s54.4.2,82.4,39.2c0,0-2.1-26.6-11.8-38.2,0,0,45.2-5.4,64,32.6,0,0,1.2-30.1-5.7-43.5,0,0,23,3.8,32.4,22.8,0,0,5.4-47.7-37.2-63C2217.8,2199.9,2211.7,2178,2185.9,2171.4Z"></path><path fill="#b78662" d="M2176.1,2289.2c-9.7-2.7-10.3-15.1-23.6-21.1,0,0-41-23.8-86.5-18.1-1.6-5,4.8-23.1,4.8-23.1,6.5-34,48.4-20.6,48.4-20.6s4.8-2.2,14.2,1.2c8.9-9.3,46.6-9.6,46.6-9.6a118.3,118.3,0,0,1,15,4.9c1.8-.8,5.5,0,5.5,0s63.2-11.5,54.5,60.1c0,0,1.7-25.5-32.4-22.8l3.6,28.9c0,4,0,6.9-.3,13.4,0,0-14.5-35.5-55.9-28.7l1.9,10.3C2171,2264,2177,2289.4,2176.1,2289.2Z"></path></g><g><g opacity=".3"><path style="mix-blend-mode:multiply" fill="url(#wild__a)" d="M733.6,2272.2c7.8-7.3,22.2-17.9,41.8-20.4l12.8,1.9c.9,1.8,3.2-8.6,3.2-8.6s1.6-19.8,13-22.2c0,0-57.8-1.3-73.8,44.1Z"></path><path style="mix-blend-mode:multiply" fill="url(#wild__f)" d="M730.8,2255.8l2.8-18.3,6.4-15.6c-15.4-2.6-27.4,11-32.7,27,0,1.7.7,5.1.8,6.9,0,0,2-17.3,22.2-15.7L728,2246c-2.2,6.2-2.7,9.6-2.5,14Z"></path><path style="mix-blend-mode:multiply" fill="url(#wild__g)" d="M783.3,2286.4c6.3-8.6,29.6-27.7,67.3-35.4l8.8-2.4c2.4.9,25,14.3,25,14.3s10.7-6.3,26.9-3.4c28.9,5.3,86,11.3,103.1-7.7,3.6-4.1-4.6-13.1-4.6-13.1s2.8-6.5,0-11.3c-6.9-11.6-18.7-13.2-23.7-21.9-3.4,3.9-53-81.8-56.1-79.2s1.4,48,27.3,91.7a27,27,0,0,1-22.1,3.9c-21.3-3.8-35.2,9.8-51.2,11.1-2.1.1-6.4-11.3-8.4-11.1C810.1,2229.9,788.5,2275.5,783.3,2286.4Z"></path><path style="mix-blend-mode:multiply" fill="url(#wild__b)" d="M865.1,2173.3s-33.9-5.3-64.3,22.3l18.7,11.9,9.2-3.5,2.1-4.5a42.5,42.5,0,0,1,22.9-21.6Z" opacity=".6"></path><path style="mix-blend-mode:multiply" fill="url(#wild__h)" d="M784.9,2178.6s-17.9-4.2-28.7,20.2l7.8,4,9.9-3.3,1.1-3.2c2.3-7,2.9-7.4,6.8-12.1Z" opacity=".6"></path></g><g opacity=".3"><path fill="url(#wild__c)" d="M978.2,2346.1l1.4-1.3c4.4-8.1,11-19.8,11-19.8s-3,2.4-3.6,2.4c-37.6-2.6-51.7,21-63.1,43.3-.1.6,2.3,3.3,7-3.5C930.9,2367.2,939.8,2345.5,978.2,2346.1Z"></path><path style="mix-blend-mode:multiply" fill="url(#wild__d)" d="M980.7,2414.4a4.9,4.9,0,0,0,.9,1s7.1-30.2,22.1-50.6a46.3,46.3,0,0,0,4.2,3.2,82.8,82.8,0,0,0,29.3,9.2h2.9c-1.1-31.8,17.9-51.8,17.9-51.8C975.3,2318.7,979,2397.1,980.7,2414.4Z"></path><path style="mix-blend-mode:multiply" fill="url(#wild__i)" d="M1150.1,2366.4a23.3,23.3,0,0,0,12-19.4c19.8,12.2,18.8,27.9,18.8,27.9,26.3-30.9,18.6-47.5,18.6-60.8a29.7,29.7,0,0,0,27.7,4.4c-11.1-4.8-21.9-22.2-24.7-46.1l2.2-3.4c22-36,4.5-77,4.5-77s-2.9-69.2,18-159.6c-9.1,24.3-14.6,39.1-21,53.3-25.8,65-23.7,87.9-12.5,118.3-11.6-24.7-33.2-38.2-33.2-38.2-16.9,22.5-.6,76.2,1.7,81.9,6.8,16.5,10.6,27.4,49.3,64.9,1.9,1.9-29.6-2.4-47.1-28-11.6-17-15.2,37.1-50.9,42.8-66.4,10.5-56.4,82.5-52.6,101.7l1.6,1.2s2-24.7,12.8-46.4l8.9.9C1137.1,2389.4,1150.1,2366.4,1150.1,2366.4Z"></path><path style="mix-blend-mode:multiply" fill="url(#wild__j)" d="M1106,2275.9s-48.2-10-57.6,26.9l17.9,9.8S1067.9,2289.2,1106,2275.9Z" opacity=".4"></path><path style="mix-blend-mode:multiply" fill="url(#wild__k)" d="M1030.5,2285.6s-30.1-6.1-33.7,19.5l17.8,3.2S1013.1,2293.7,1030.5,2285.6Z" opacity=".4"></path></g><g opacity=".3"><path style="mix-blend-mode:multiply" fill="url(#wild__l)" d="M2219.3,2272.2c-7.9-7.3-22.2-17.9-41.8-20.4l-12.8,1.9c-.9,1.8-3.2-8.6-3.2-8.6s-1.7-19.8-13-22.2c0,0,57.8-1.3,73.7,44.1Z"></path><path style="mix-blend-mode:multiply" fill="url(#wild__m)" d="M2222,2255.8l-2.7-18.3-6.4-15.6c15.4-2.6,27.3,11,32.7,27-.1,1.7-.7,5.1-.8,6.9,0,0-2-17.3-22.2-15.7l2.3,5.9c2.1,6.2,2.6,9.6,2.5,14Z"></path><path style="mix-blend-mode:multiply" fill="url(#wild__n)" d="M2169.6,2286.4c-6.3-8.6-29.7-27.7-67.3-35.4l-8.8-2.4c-2.5.9-25.1,14.3-25.1,14.3s-10.6-6.3-26.8-3.4c-29,5.3-86,11.3-103.1-7.7-3.6-4.1-18.9-10.1-18.9-10.1s20.6-9.5,23.5-14.3c6.8-11.6,18.6-13.2,23.7-21.9,3.3,3.9,52.9-81.8,56.1-79.2s-1.4,48-27.3,91.7a27,27,0,0,0,22.1,3.9c21.3-3.8,35.2,9.8,51.1,11.1,2.2.1,6.4-11.3,8.5-11.1C2142.8,2229.9,2164.4,2275.5,2169.6,2286.4Z"></path><path style="mix-blend-mode:multiply" fill="url(#wild__o)" d="M2087.8,2173.3s33.9-5.3,64.3,22.3l-18.7,11.9-9.2-3.5-2.1-4.5a43,43,0,0,0-23-21.6Z" opacity=".6"></path><path style="mix-blend-mode:multiply" fill="url(#wild__p)" d="M2168,2178.6s17.9-4.2,28.7,20.2l-7.9,4-9.8-3.3-1.1-3.2c-2.3-7-3-7.4-6.8-12.1Z" opacity=".6"></path></g><g opacity=".3"><path fill="url(#wild__q)" d="M1923.7,2346.1l-1.4-1.3-11.1-19.8c.6-.1,3.1,2.4,3.7,2.4,37.5-2.6,51.6,21,63.1,43.3,0,.6-2.4,3.3-7-3.5C1971,2367.2,1962,2345.5,1923.7,2346.1Z"></path><path style="mix-blend-mode:multiply" fill="url(#wild__r)" d="M1921.2,2414.4l-.9,1s-7.2-30.2-22.2-50.6a46.3,46.3,0,0,1-4.2,3.2,81.9,81.9,0,0,1-29.2,9.2h-3c1.2-31.8-17.9-51.8-17.9-51.8C1926.5,2318.7,1922.9,2397.1,1921.2,2414.4Z"></path><path style="mix-blend-mode:multiply" fill="url(#wild__s)" d="M1751.8,2366.4a23.5,23.5,0,0,1-12.1-19.4c-19.8,12.2-18.8,27.9-18.8,27.9-26.3-30.9-18.5-47.5-18.5-60.8a29.7,29.7,0,0,1-27.7,4.4c11.1-4.8,21.9-22.2,24.7-46.1l-2.2-3.4c-22-36-4.5-77-4.5-77s.8-76.2-20-166.6c9.1,24.3,16.5,46.1,23,60.3,25.8,65,23.6,87.9,12.4,118.3,11.7-24.7,33.3-38.2,33.3-38.2,16.8,22.5.6,76.2-1.8,81.9-6.7,16.5-10.6,27.4-49.2,64.9-2,1.9,29.5-2.4,47.1-28,11.6-17,15.1,37.1,50.9,42.8,66.4,10.5,56.3,82.5,52.6,101.7l-1.7,1.2s-1.9-24.7-12.7-46.4l-8.9.9C1764.8,2389.4,1751.8,2366.4,1751.8,2366.4Z"></path><path style="mix-blend-mode:multiply" fill="url(#wild__t)" d="M1795.9,2275.9s48.1-10,57.6,26.9l-17.9,9.8S1833.9,2289.2,1795.9,2275.9Z" opacity=".4"></path><path style="mix-blend-mode:multiply" fill="url(#wild__u)" d="M1871.3,2285.6s30.2-6.1,33.7,19.5l-17.8,3.2S1888.7,2293.7,1871.3,2285.6Z" opacity=".4"></path></g></g><g><g><path style="mix-blend-mode:overlay" fill="url(#wild__e)" d="M932.2,2123.9c-2.6-1.4-4.5-19.3-4.5-19.3-21.6.1-39,19.4-39,19.4-61,29-85.6,7.2-85.6,7.2,8.5,22,5.5,17.2,5.5,17.2-26.8,3.4-41.6,23-41.6,23h-.1a49.6,49.6,0,0,0-26,23l-4.4,8.3c-23.8,7.3-38.1,10.8-37.7,53,0,0,1.7,8.1,2,7.1,10.3-55.4,47.1-51.7,47.1-51.7a35.5,35.5,0,0,1,4-4.5c1.1-1-1.5-5.4-1.9-6.8s5-19.2,27.2-22.6c2.6-.4-2.6,21.2-.4,21,3.8-.4,6.8-.9,7.6-2.8,5.4-13,18-21.1,29-24.6,1.1-.3-12.6,1.1-28.9,6.2-5.3,1.7-7.7-.3-7.3-.8,11.9-14.9,43.8-17.1,43.8-17.1l-14.6-22.7c2,1.5,3.2.4,3.9,2.6,1.1,3.8,5.2,19.7,25.8,18.7.5-.1-4.6-2.1-9.3-5.5s-5.9-7.5-5.4-7.3C869.1,2165.2,918.4,2121.4,932.2,2123.9Z" opacity=".3"></path><path style="mix-blend-mode:overlay" fill="url(#wild__v)" d="M731.1,2258.3c-.3,5.9,3.9-26.1,32.6-42.9,13.4-7.8,34.1-10.7,58.5-7.9C822.2,2207.5,735.2,2171,731.1,2258.3Z" opacity=".3"></path><path style="mix-blend-mode:overlay" fill="url(#wild__w)" d="M786.8,2271.4c-.3,2.7,29.8-64.1,83.8-59.7C870.6,2211.7,794.8,2188.1,786.8,2271.4Z" opacity=".3"></path><path style="mix-blend-mode:overlay" fill="url(#wild__x)" d="M875.6,2176.6s-26.4,5.2-25.7,27.4c0,0-18.5-.4-18.1-1.2S834.4,2175.3,875.6,2176.6Z" opacity=".3"></path></g><g><path style="mix-blend-mode:overlay" fill="url(#wild__y)" d="M1065.5,2225.5s2,18.2-11,28.2-26.1,12.3-24,25.4l-8.3,4.6-9.1-1.3s-19.2,2.5-20,19l6,6.9-10,13.4s-43.6-5.6-59.6,38.7l-8.1-2.5s16.8-46.6,51.5-55.5h3.9s0-24.4,32.2-24.8a100.7,100.7,0,0,1,12.2-21.7c2.6-3.6,6.7-3.4,10.3-7s15.2-3.4,19.2-6.2C1057.6,2237.9,1060.3,2233,1065.5,2225.5Z" opacity=".3"></path><path style="mix-blend-mode:overlay" fill="url(#wild__z)" d="M1045.5,2119.4c13.4,15.5,16.1,38.3,14.3,58.9-3.6,43.6-24.3,65-46.7,61.6-6-2.5-4.6,2.3-6.8-.9,0,0,51.7-30.4,30.4-99.9,0,0-13.5,20.4-13,44.4,0,0-14-17-5.5-59.5s4.5-76.5-15.5-93.5c0,0-2.8-4.8-2.4-4.7,37.4,16,48.8,47.4,21.3,129.6Z" opacity=".3"></path><path style="mix-blend-mode:overlay" fill="url(#wild__A)" d="M977.6,2414.4s-7.6-117.8,82.2-92.7l11.4-2.8s-23.2-43.1-71-6.3S979.1,2395.3,977.6,2414.4Z" opacity=".3"></path><path style="mix-blend-mode:overlay" fill="url(#wild__B)" d="M1061.1,2428.9s-36.2-101.5,54.6-111.6c0,0-.1-8.6-20.2-8.6,0,0-47.4,7.5-51,65.3S1061.1,2428.9,1061.1,2428.9Z" opacity=".3"></path><path style="mix-blend-mode:overlay" fill="url(#wild__C)" d="M1063.8,2274.7s-21.3,2-24,24.7h-21.1S1032.8,2268.8,1063.8,2274.7Z" opacity=".3"></path><path style="mix-blend-mode:overlay" fill="url(#wild__D)" d="M1128,2282.4s-33.4,10.7-16.4,26.3c0,0-30.4-5.2-39.4,5C1072.2,2313.7,1087.3,2269.6,1128,2282.4Z" opacity=".3"></path></g><g><path style="mix-blend-mode:overlay" fill="url(#wild__E)" d="M2020.6,2123.9c2.6-1.4,4.5-19.3,4.5-19.3,21.6.1,39.1,19.4,39.1,19.4,61,29,85.6,7.2,85.6,7.2-8.5,22-5.6,17.2-5.6,17.2,26.8,3.4,41.7,23,41.7,23h0a49.2,49.2,0,0,1,26,23l4.5,8.3c23.8,7.3,38,10.8,37.6,53,0,0-1.6,8.1-2,7.1-10.3-55.4-47.1-51.7-47.1-51.7a28.7,28.7,0,0,0-3.9-4.5c-1.2-1,1.4-5.4,1.9-6.8s-5-19.2-27.2-22.6c-2.6-.4,2.5,21.2.4,21-3.8-.4-6.8-.9-7.6-2.8-5.4-13-18.1-21.1-29.1-24.6-1.1-.3,12.7,1.1,28.9,6.2,5.3,1.7,7.7-.3,7.4-.8-11.9-14.9-43.9-17.1-43.9-17.1l14.7-22.7c-2,1.5-3.3.4-3.9,2.6-1.1,3.8-5.3,19.7-25.8,18.7-.5-.1,4.5-2.1,9.3-5.5s5.9-7.5,5.4-7.3C2083.8,2165.2,2034.4,2121.4,2020.6,2123.9Z" opacity=".3"></path><path style="mix-blend-mode:overlay" fill="url(#wild__F)" d="M2221.8,2258.3c.3,5.9-4-26.1-32.7-42.9-13.4-7.8-34.1-10.7-58.5-7.9C2130.6,2207.5,2217.6,2171,2221.8,2258.3Z" opacity=".3"></path><path style="mix-blend-mode:overlay" fill="url(#wild__G)" d="M2166.1,2271.4c.3,2.7-29.8-64.1-83.8-59.7C2082.3,2211.7,2158,2188.1,2166.1,2271.4Z" opacity=".3"></path><path style="mix-blend-mode:overlay" fill="url(#wild__H)" d="M2077.3,2176.6s26.3,5.2,25.7,27.4c0,0,18.4-.4,18-1.2S2118.5,2175.3,2077.3,2176.6Z" opacity=".3"></path></g><g><path style="mix-blend-mode:overlay" fill="url(#wild__I)" d="M1836.4,2225.5s-2,18.2,11,28.2,26.1,12.3,23.9,25.4l8.3,4.6,9.1-1.3s19.3,2.5,20,19l-6,6.9,10,13.4s43.6-5.6,59.7,38.7l8-2.5s-16.8-46.6-51.4-55.5h-4s0-24.4-32.2-24.8a102.7,102.7,0,0,0-12.1-21.7c-2.7-3.6-6.8-3.4-10.3-7s-15.3-3.4-19.3-6.2C1844.3,2237.9,1841.5,2233,1836.4,2225.5Z" opacity=".3"></path><path style="mix-blend-mode:overlay" fill="url(#wild__J)" d="M1856.4,2119.4c-13.4,15.5-16.1,38.3-14.4,58.9,3.7,43.6,24.3,65,46.7,61.6,6-2.5,4.7,2.3,6.9-.9,0,0-51.8-30.4-30.5-99.9,0,0,13.6,20.4,13.1,44.4,0,0,14-17,5.5-59.5s14.5-72.2,34.5-89.2a51.7,51.7,0,0,0,2.4-4.6c-19.3,8.5-71.3,38.7-48.7,98.7,3.4,9,9.2,25.7,7.2,29.5Z" opacity=".3"></path><path style="mix-blend-mode:overlay" fill="url(#wild__K)" d="M1924.2,2414.4s7.6-117.8-82.2-92.7l-11.3-2.8s23.1-43.1,71-6.3S1922.7,2395.3,1924.2,2414.4Z" opacity=".3"></path><path style="mix-blend-mode:overlay" fill="url(#wild__L)" d="M1840.7,2428.9s36.2-101.5-54.5-111.6c0,0,.1-8.6,20.2-8.6,0,0,47.4,7.5,51,65.3S1840.7,2428.9,1840.7,2428.9Z" opacity=".3"></path><path style="mix-blend-mode:overlay" fill="url(#wild__M)" d="M1838.1,2274.7s21.2,2,23.9,24.7h21.1S1869,2268.8,1838.1,2274.7Z" opacity=".3"></path><path style="mix-blend-mode:overlay" fill="url(#wild__N)" d="M1773.8,2282.4s33.5,10.7,16.5,26.3c0,0,30.4-5.2,39.4,5C1829.7,2313.7,1814.5,2269.6,1773.8,2282.4Z" opacity=".3"></path></g></g><g><path fill="none" stroke="#31323d" stroke-linecap="round" stroke-linejoin="round" stroke-width="12.29" d="M883.7,2250.2c-81.2-4.7-106.9,41.3-106.9,41.3,14.8-89.3,71.2-87.5,71.2-87.5s36-2.2,38.9,46"></path><path fill="#31323d" d="M821.2,2211.9a44.9,44.9,0,0,0-5.2-3.7,36.1,36.1,0,0,0-5.6-2.7,39.3,39.3,0,0,0-5.8-1.9l-3-.6-1.4-.3h-1.3l-.9-.2-1.3-.2-1.5-.3-3-.4-6-.3-6,.3a54,54,0,0,0-5.8.9,43.7,43.7,0,0,0-20.6,10c-5.8,5.1-10.2,11.8-13.6,19.2a103.9,103.9,0,0,0-7,23.8c-.7,4.1-1.3,8.3-1.7,12.6s-.6,8.5-.7,12.8v2.8h0v-.3a5.2,5.2,0,0,0-.2-1.1,6.1,6.1,0,0,0-1.1-2.1,5.2,5.2,0,0,0-2-1.4,4.9,4.9,0,0,0-4.4.3,4.5,4.5,0,0,0-1.9,1.7,4.1,4.1,0,0,0-.5.9c-.1.3,0,.2,0,.1h0l.3-.8a59.3,59.3,0,0,1,3.1-6.8,49,49,0,0,1,9.3-12,45.1,45.1,0,0,1,5.9-4.7,51.4,51.4,0,0,1,6.4-3.8,64.6,64.6,0,0,1,13.8-4.8,102.2,102.2,0,0,1,28-2.2,6.2,6.2,0,0,1-.5,12.3h-.1a87.2,87.2,0,0,0-24.6,1.9c-7.8,1.8-15,5.1-20.5,10.3a33.3,33.3,0,0,0-6.9,8.9,41.2,41.2,0,0,0-2.4,5.2l-.2.7-.2.4-.7,1.3a5.7,5.7,0,0,1-2.4,2.2,7.3,7.3,0,0,1-6.1.4,8.7,8.7,0,0,1-2.6-1.8,7.3,7.3,0,0,1-1.5-2.9,9.9,9.9,0,0,1-.3-1.5v-.4h0v-3c.1-4.5.3-9,.7-13.6s.9-9,1.7-13.6a113.4,113.4,0,0,1,7.7-26.8,78.2,78.2,0,0,1,7.1-12.6,56.8,56.8,0,0,1,9.9-10.9,51.6,51.6,0,0,1,12.5-8.1,51,51,0,0,1,14.1-4.3,60.1,60.1,0,0,1,7.3-.7c2.4-.1,4.8,0,7.2.1s4.8.6,7.1,1l3.6.8,1.7.5,1.9.6-.9-.2,1.1.2,1,.2,1.8.6,3.6,1.3a41.7,41.7,0,0,1,6.6,3.5,52,52,0,0,1,5.9,4.6,42,42,0,0,1,4.8,5.5,2.5,2.5,0,0,1-3.7,3.4Z"></path><path fill="none" stroke="#31323d" stroke-linecap="round" stroke-linejoin="round" stroke-width="12.5" d="M755.4,2203.3c-21.1-2.1-58-.6-57.6,59.6,0,0,10.4-20.2,32.5-22.8"></path><path fill="none" stroke="#31323d" stroke-linecap="round" stroke-linejoin="round" stroke-width="12.5" d="M906.1,2258.6s9,6.3,74.6.7a144.7,144.7,0,0,0,38.4-9.3"></path><path fill="#31323d" d="M835.3,2161.9l-1.7.2H832l-3.1-.2a26.3,26.3,0,0,1-6.2-1.3,36.2,36.2,0,0,1-11.1-6c-1.6-1.4-3.2-2.9-4.6-4.4a37.5,37.5,0,0,1-3.8-5.1,54.3,54.3,0,0,1-5.6-11l-.3-.8c-.1-.4-.1-.8-.2-1.1a9.7,9.7,0,0,1,.1-2.4,7.7,7.7,0,0,1,2.3-4.1,8.2,8.2,0,0,1,4.6-2.1,10.9,10.9,0,0,1,2.6.3l1.2.4.5.2.3.2,4.6,2a63.5,63.5,0,0,0,9.7,2.8,68.2,68.2,0,0,0,20.7,1.2,101.9,101.9,0,0,0,20.9-4.2l5.1-1.7,4.9-1.9a81.7,81.7,0,0,0,9.3-4.8l4.4-2.9,2.1-1.5,2.3-1.7a61.7,61.7,0,0,1,10.5-6.5,69.7,69.7,0,0,1,23.6-7,6.2,6.2,0,0,1,1.9,12.3h-.1a87.6,87.6,0,0,0-10.1,2.5,59.6,59.6,0,0,0-9.4,3.8,62.2,62.2,0,0,0-8.7,5.4l-2.2,1.7-2.5,1.8c-1.7,1.2-3.4,2.2-5.2,3.3a109.6,109.6,0,0,1-10.8,5.5L874,2137l-5.7,1.8a123.1,123.1,0,0,1-23.6,4.5,80.6,80.6,0,0,1-24.4-1.6,57,57,0,0,1-11.8-4.1,59.5,59.5,0,0,1-5.5-3.1h.7a2.5,2.5,0,0,0,1.2.1,3.7,3.7,0,0,0,2-.9,3.2,3.2,0,0,0,.9-1.7,1.7,1.7,0,0,0,0-1v-.4h-.1c1.9,6.7,4.9,12.9,9.5,17.7a29.1,29.1,0,0,0,8,5.9,34.1,34.1,0,0,0,4.8,1.8l2.5.6h1.2l1.1.2h.4a2.4,2.4,0,0,1,2.2,2.7A2.4,2.4,0,0,1,835.3,2161.9Z"></path><path fill="#31323d" d="M760.1,2170.9a82.3,82.3,0,0,1,9.5-10.1,73.1,73.1,0,0,1,11.5-8.3,92.8,92.8,0,0,1,12.8-6,127.4,127.4,0,0,1,12.9-4,6.3,6.3,0,0,1,7.7,4.3,6.4,6.4,0,0,1-4,7.6l-12.1,4.2a110.6,110.6,0,0,0-11.1,5c-7,3.8-13.4,8.8-20,14.2h-.1a5,5,0,0,1-7.1-7Z"></path><path fill="#31323d" d="M822.4,2207.5V2206a5.9,5.9,0,0,0,.2-1.3l.6-2.4a33.9,33.9,0,0,1,1.5-4.5,35.3,35.3,0,0,1,4.6-8.3,37.7,37.7,0,0,1,14.1-11.7,51,51,0,0,1,8.2-3.1,62.5,62.5,0,0,1,8.4-1.7,79,79,0,0,1,16.8-.4,2.3,2.3,0,0,1,2.3,2.6,2.6,2.6,0,0,1-2.3,2.4h-.1a79.3,79.3,0,0,0-15.4,2.1,60.8,60.8,0,0,0-7.2,2.4,35.5,35.5,0,0,0-6.4,3.4,28.4,28.4,0,0,0-9.6,9.9,27,27,0,0,0-2.5,6.1,19.8,19.8,0,0,0-.6,3.2,10,10,0,0,0-.2,1.6v1.1h0a6.3,6.3,0,1,1-12.5,0Z"></path><path fill="#31323d" d="M870.2,2247.4l.5.4.7.4,1.4,1,2.9,1.7a49.8,49.8,0,0,0,6.3,2.7,30.4,30.4,0,0,0,13,1.5,24.7,24.7,0,0,0,6.5-1.6,26,26,0,0,0,6.3-3,62.3,62.3,0,0,0,11.6-9.3h0a2.5,2.5,0,0,1,3.6,0,2.6,2.6,0,0,1,.4,3,47.1,47.1,0,0,1-10.5,13.2c-1.1,1-2.3,1.8-3.5,2.7l-1.9,1.2-1,.6-1,.5a31.7,31.7,0,0,1-8.6,3.2,39,39,0,0,1-18.3-.5,51.2,51.2,0,0,1-8.5-3.2,38.4,38.4,0,0,1-3.9-2.2,7.6,7.6,0,0,1-1.9-1.2l-1-.7-1.1-.8a6.4,6.4,0,0,1-.9-8.8,6.3,6.3,0,0,1,8.6-1Z"></path><path fill="#31323d" d="M768.8,2193.1l.4-1.1.3-.9c.3-.6.5-1.2.8-1.7a20.6,20.6,0,0,1,1.7-3.3,39,39,0,0,1,4.1-5.9,38.1,38.1,0,0,1,10.9-9.1,41.1,41.1,0,0,1,6.5-2.8l3.4-.9,3.4-.5a49.3,49.3,0,0,1,13.3.2,2.5,2.5,0,0,1,2.1,2.9,2.6,2.6,0,0,1-2.5,2.1h0a44.5,44.5,0,0,0-11.6,1.5l-2.7.9-2.5,1.1a27.1,27.1,0,0,0-11.7,10.9,29.7,29.7,0,0,0-2.4,4.7c-.3.9-.6,1.7-.8,2.5l-.3,1.2-.2.6v.4a6.3,6.3,0,1,1-12.2-2.8Z"></path><path fill="#31323d" d="M732.5,2196.7a10.4,10.4,0,0,1,.3-1.2l.3-.9a12.2,12.2,0,0,0,.7-1.7,32.4,32.4,0,0,1,1.7-3.2,41.3,41.3,0,0,1,4.1-5.9,31.9,31.9,0,0,1,11.4-8.3,33.6,33.6,0,0,1,6.6-2.1,38.1,38.1,0,0,1,6.7-.7,48.5,48.5,0,0,1,12.7,1.4,2.5,2.5,0,0,1,1.9,3,2.5,2.5,0,0,1-2.6,1.9h0a43.3,43.3,0,0,0-11.4.5,30.7,30.7,0,0,0-5.2,1.4,34.2,34.2,0,0,0-4.7,2.3,23.3,23.3,0,0,0-6.9,7.1,20.1,20.1,0,0,0-2.2,4.4c-.3.8-.6,1.6-.8,2.3a5,5,0,0,0-.2,1.2,1.1,1.1,0,0,0-.1.5c0,.2-.1.4,0,.4a6.3,6.3,0,0,1-7.4,4.9A6.2,6.2,0,0,1,732.5,2196.7Z"></path><path fill="none" stroke="#31323d" stroke-linecap="round" stroke-miterlimit="10" stroke-width="12.5" d="M1018,2233a252.4,252.4,0,0,1-90.3-128.3"></path><g><path fill="none" stroke="#31323d" stroke-linecap="round" stroke-linejoin="round" stroke-width="12.29" d="M2069.1,2250.2c81.2-4.7,107,41.3,107,41.3-14.8-89.3-71.3-87.5-71.3-87.5s-36-2.2-38.8,46"></path><path fill="#31323d" d="M2128,2208.5a35.7,35.7,0,0,1,4.8-5.5,44.4,44.4,0,0,1,5.9-4.6,41.7,41.7,0,0,1,6.6-3.5l3.5-1.3,1.9-.6.9-.2,1.2-.2-1,.2,1.9-.6,1.8-.5,3.5-.8c2.4-.4,4.7-.8,7.1-1s4.9-.2,7.3-.1a58.5,58.5,0,0,1,7.2.7,50.7,50.7,0,0,1,14.2,4.3,53.6,53.6,0,0,1,12.5,8.1,60.2,60.2,0,0,1,9.9,10.9,70.8,70.8,0,0,1,7,12.6,113.7,113.7,0,0,1,7.8,26.8c.7,4.6,1.3,9.1,1.7,13.6s.6,9.1.7,13.6v3h0v.4a8.9,8.9,0,0,1-.2,1.5,7.6,7.6,0,0,1-1.6,2.9,6.8,6.8,0,0,1-2.6,1.8,7.1,7.1,0,0,1-6-.4,6.7,6.7,0,0,1-2.5-2.2l-.7-1.3v-.4l-.3-.7a41.2,41.2,0,0,0-2.4-5.2,35,35,0,0,0-6.8-8.9c-5.5-5.2-12.7-8.5-20.5-10.3a87.7,87.7,0,0,0-24.6-1.9h-.1a6.2,6.2,0,0,1-6.4-5.9,6.2,6.2,0,0,1,5.9-6.4h0a102.5,102.5,0,0,1,28,2.2,63.8,63.8,0,0,1,13.7,4.8,61.1,61.1,0,0,1,6.5,3.8,52.9,52.9,0,0,1,5.9,4.7,48.6,48.6,0,0,1,9.2,12,46,46,0,0,1,3.1,6.8l.3.8h.1c0,.1,0,.2-.1-.1a2,2,0,0,0-.5-.9,4.9,4.9,0,0,0-1.8-1.7,5.1,5.1,0,0,0-4.5-.3,4.3,4.3,0,0,0-1.9,1.4,5,5,0,0,0-1.2,2.1,4.5,4.5,0,0,0-.1,1.1v.3h0v-2.8c-.1-4.3-.4-8.6-.8-12.8s-.9-8.5-1.7-12.6a94.8,94.8,0,0,0-7-23.8,55.4,55.4,0,0,0-13.6-19.2,42.9,42.9,0,0,0-20.5-10,55.8,55.8,0,0,0-5.9-.9,56.8,56.8,0,0,0-5.9-.3,60.8,60.8,0,0,0-6.1.3l-3,.4-1.4.3-1.3.2-.9.2h-1.3l-1.5.3a13.6,13.6,0,0,0-2.9.6,40.6,40.6,0,0,0-5.9,1.9,41.1,41.1,0,0,0-5.6,2.7,36.8,36.8,0,0,0-5.1,3.7h-.1a2.5,2.5,0,0,1-3.6-3.4Z"></path><path fill="none" stroke="#31323d" stroke-linecap="round" stroke-linejoin="round" stroke-width="12.5" d="M2197.4,2203.3c21.2-2.1,58.1-.6,57.6,59.6,0,0-10.3-20.2-32.4-22.8"></path><path fill="none" stroke="#31323d" stroke-linecap="round" stroke-linejoin="round" stroke-width="12.5" d="M2046.7,2258.6s-9,6.3-74.5.7c-20.6-1.8-56.1-13.3-56.1-13.3"></path><path fill="#31323d" d="M2118,2157l1.2-.2h1.2l2.5-.6a38,38,0,0,0,4.7-1.8,28.2,28.2,0,0,0,8.1-5.9c4.6-4.8,7.6-11,9.5-17.7,0-.2-.1,0-.1.1v1.4a3.2,3.2,0,0,0,.9,1.7,4.1,4.1,0,0,0,2.1.9,2,2,0,0,0,1.1-.1h.8a59.5,59.5,0,0,1-5.5,3.1,55.8,55.8,0,0,1-11.9,4.1,80.4,80.4,0,0,1-24.4,1.6,123.5,123.5,0,0,1-23.5-4.5l-5.7-1.8-5.7-2.2a111.2,111.2,0,0,1-10.9-5.5l-5.1-3.3-2.5-1.8-2.3-1.7a56.9,56.9,0,0,0-8.7-5.4,59.6,59.6,0,0,0-9.4-3.8,78.5,78.5,0,0,0-10.1-2.5h-.1a6.2,6.2,0,0,1-5-7.2,6.3,6.3,0,0,1,6.9-5.1,70.2,70.2,0,0,1,23.7,7,65.9,65.9,0,0,1,10.5,6.5l2.3,1.7,2.1,1.5,4.4,2.9a81.7,81.7,0,0,0,9.3,4.8l4.9,1.9,5.1,1.7a99.3,99.3,0,0,0,20.9,4.2,67.3,67.3,0,0,0,20.6-1.2,64.7,64.7,0,0,0,9.8-2.8l4.5-2,.4-.2.5-.2a4.2,4.2,0,0,1,1.2-.4,10.9,10.9,0,0,1,2.6-.3,7.9,7.9,0,0,1,4.5,2.1,7.7,7.7,0,0,1,2.3,4.1,6.5,6.5,0,0,1,.1,2.4,5.2,5.2,0,0,1-.2,1.1l-.2.8a60,60,0,0,1-5.6,11,49.1,49.1,0,0,1-3.9,5.1,48.3,48.3,0,0,1-4.6,4.4,36.2,36.2,0,0,1-11.1,6,25.5,25.5,0,0,1-6.1,1.3l-3.1.2h-1.6l-1.7-.2a2.5,2.5,0,0,1-2.2-2.7,2.6,2.6,0,0,1,2.3-2.2Z"></path><path fill="#31323d" d="M2185.5,2177.8c-6.5-5.4-12.9-10.4-20-14.2a93.5,93.5,0,0,0-11.1-5l-12-4.2a6.2,6.2,0,0,1,3.7-11.9c4.2,1.1,8.5,2.4,12.9,4a91.7,91.7,0,0,1,12.7,6,73.1,73.1,0,0,1,11.5,8.3,75.3,75.3,0,0,1,9.5,10.1,4.9,4.9,0,0,1-.8,7,5,5,0,0,1-6.3,0Z"></path><path fill="#31323d" d="M2117.9,2207.5h.1v-.3a2.2,2.2,0,0,0-.1-.8,9.2,9.2,0,0,0-.1-1.6c-.1-1-.4-2.1-.6-3.2a23.4,23.4,0,0,0-2.6-6.1,28,28,0,0,0-9.5-9.9,36.4,36.4,0,0,0-6.5-3.4,55.3,55.3,0,0,0-7.2-2.4,77.2,77.2,0,0,0-15.4-2.1h0a2.6,2.6,0,0,1-2.4-2.7,2.4,2.4,0,0,1,2.4-2.3,77.9,77.9,0,0,1,16.7.4,62.5,62.5,0,0,1,8.4,1.7,52.1,52.1,0,0,1,8.3,3.1,37.7,37.7,0,0,1,14.1,11.7,35.3,35.3,0,0,1,4.6,8.3,33.9,33.9,0,0,1,1.5,4.5,20.5,20.5,0,0,1,.5,2.4,5.9,5.9,0,0,1,.2,1.3v1.5a6.3,6.3,0,1,1-12.5,0Z"></path><path fill="#31323d" d="M2090.6,2257l-1,.8-1,.7a10,10,0,0,1-1.9,1.2,31.1,31.1,0,0,1-4,2.2,50.1,50.1,0,0,1-8.4,3.2,39.4,39.4,0,0,1-18.4.5,33,33,0,0,1-8.6-3.2l-1-.5-.9-.6-1.9-1.2a32.4,32.4,0,0,1-3.5-2.7,45.7,45.7,0,0,1-10.6-13.2,2.6,2.6,0,0,1,1.1-3.5,2.4,2.4,0,0,1,2.9.5h0a62.3,62.3,0,0,0,11.6,9.3,30,30,0,0,0,6.3,3,24.7,24.7,0,0,0,6.5,1.6,30.9,30.9,0,0,0,13.1-1.5,48.5,48.5,0,0,0,6.2-2.7l3-1.7,1.4-1,.6-.4.5-.4.3-.2a6.2,6.2,0,0,1,7.7,9.8Z"></path><path fill="#31323d" d="M2171.9,2195.9c0,.1-.1-.2-.1-.4v-.6l-.3-1.2c-.3-.8-.5-1.6-.9-2.5a29.2,29.2,0,0,0-2.3-4.7,27.1,27.1,0,0,0-7.1-8,27.4,27.4,0,0,0-4.6-2.9l-2.6-1.1a21.4,21.4,0,0,0-2.7-.9,43.7,43.7,0,0,0-11.5-1.5h-.1a2.5,2.5,0,0,1-2.5-2.5,2.6,2.6,0,0,1,2.1-2.5,50,50,0,0,1,13.4-.2l3.4.5,3.3.9a41.1,41.1,0,0,1,6.5,2.8,38.5,38.5,0,0,1,11,9.1,47.8,47.8,0,0,1,4.1,5.9,34.1,34.1,0,0,1,1.7,3.3c.2.5.5,1.1.7,1.7l.4.9a5.3,5.3,0,0,1,.3,1.1,6.2,6.2,0,1,1-12.1,2.8Z"></path><path fill="#31323d" d="M2208.1,2199.1v-.4a.7.7,0,0,1-.1-.5l-.3-1.2c-.2-.7-.4-1.5-.7-2.3a25.8,25.8,0,0,0-2.2-4.4,23.7,23.7,0,0,0-7-7.1,32.9,32.9,0,0,0-4.6-2.3,31.8,31.8,0,0,0-5.3-1.4,42.3,42.3,0,0,0-11.3-.5h0a2.5,2.5,0,0,1-2.7-2.3,2.4,2.4,0,0,1,1.9-2.6,49.3,49.3,0,0,1,12.8-1.4,37,37,0,0,1,6.6.7,29.9,29.9,0,0,1,6.6,2.1,31.1,31.1,0,0,1,11.4,8.3,35.1,35.1,0,0,1,4.2,5.9,31.8,31.8,0,0,1,1.6,3.2,12.2,12.2,0,0,1,.7,1.7l.3.9c.1.4.2.6.4,1.2a6.3,6.3,0,0,1-5,7.3A6.2,6.2,0,0,1,2208.1,2199.1Z"></path><path fill="none" stroke="#31323d" stroke-linecap="round" stroke-miterlimit="10" stroke-width="12.5" d="M1934.9,2233a251.6,251.6,0,0,0,90.2-128.3"></path><path fill="none" stroke="#31323d" stroke-linecap="round" stroke-miterlimit="10" stroke-width="12.5" d="M2025.1,2104.6a252.3,252.3,0,0,1-108.2,140.7"></path></g><g><path fill="#31323d" d="M1199.3,2265.7a67.2,67.2,0,0,0,7.3-16.7,73.5,73.5,0,0,0,2.8-18.1,90.5,90.5,0,0,0-1.2-18.7c-.5-3-1.2-6.1-2-9.1-.4-1.5-.8-3-1.3-4.5l-.7-2.2-.4-1-.4-1h0a4.8,4.8,0,0,1-.5-1.7v-3.1a24.4,24.4,0,0,0-.1-2.7v-5.2c.1-1.7.1-3.4.2-5.1s.1-3.5.2-5.2c.4-6.8,1.1-13.5,1.8-20.3,1.6-13.4,3.6-26.7,5.8-40.1l3.6-19.8c1.3-6.7,2.5-13.3,3.9-19.9,2.7-13.2,5.6-26.3,8.7-39.4a2.5,2.5,0,0,1,3-1.9,2.6,2.6,0,0,1,1.9,2.8h0l-5.2,39.9q-2.6,20-4.8,39.9c-1.5,13.3-2.8,26.6-3.9,39.8-.3,3.3-.6,6.7-.8,10l-.4,4.9-.4,5-.3,4.9-.3,4.9c0,1.6-.1,3.3-.1,4.9v4.5l-.5-2h0a9.8,9.8,0,0,0,.6,1.4l.4,1.3.9,2.6q.8,2.4,1.5,5.1c.9,3.4,1.6,6.8,2.2,10.3a99,99,0,0,1,1.4,21.1,85.9,85.9,0,0,1-3.3,21.2,78.6,78.6,0,0,1-8.6,19.7,6.2,6.2,0,1,1-10.7-6.4Z"></path><path fill="none" stroke="#31323d" stroke-linecap="round" stroke-linejoin="round" stroke-width="12.5" d="M1129,2350.9c2.2-43.8-35.2-44.4-35.2-44.4s-44.8,9-51.3,61.6c-5.8,47,20,62.2,20,62.2s13.2-90.9,66.6-77"></path><path fill="none" stroke="#31323d" stroke-linecap="round" stroke-linejoin="round" stroke-width="12.5" d="M1043.4,2344.9c-49.9-5.3-63.5,69.5-63.5,69.5s-16.9-16.1-4.7-61.8c13.8-51.2,60.4-51.2,60.4-51.2,7.8,0,11.5-.1,18.8,3,0,0,9.1,5.1,13.1,11.3"></path><path fill="#31323d" d="M1173.3,2210.9a56.8,56.8,0,0,1,7.4,3.7,64.5,64.5,0,0,1,6.9,4.7,58.6,58.6,0,0,1,11.6,12.2,70.1,70.1,0,0,1,4.4,7.5,63.4,63.4,0,0,1,3,8.3,52,52,0,0,1,1.4,8.8l.4,7.9c0,1.2.2,2.4.3,3.6l.2,1.8a11,11,0,0,0,.2,1.8c.2,1.2.3,2.4.5,3.6l.7,3.6a80.1,80.1,0,0,0,4.1,13.7,62.2,62.2,0,0,0,6.4,12.3,27.7,27.7,0,0,0,8.9,8.3l.6.4a6.2,6.2,0,0,1-2.4,11.6h0l-1.4.2h-1.2l-2.3.2h-4.7a58.8,58.8,0,0,1-9.2-1,59.9,59.9,0,0,1-17.6-5.9,50.1,50.1,0,0,1-7.9-5,13,13,0,0,1-1.8-1.5l-1.8-1.5-1.7-1.6-1.6-1.7a45.7,45.7,0,0,1-9.3-15.7,2.5,2.5,0,0,1,1.6-3.2,2.7,2.7,0,0,1,2.7.7h.1a69.2,69.2,0,0,0,11.6,10.8,53.6,53.6,0,0,0,13.3,7.2,74.3,74.3,0,0,0,14.7,4c2.5.4,5.1.7,7.6.9l3.9.2h3.5l-1.7,11.9a27.1,27.1,0,0,1-4.5-2.3l-2-1.4-1.9-1.5-.9-.7-.8-.8-1.6-1.7a43.8,43.8,0,0,1-2.9-3.4l-2.6-3.6-2.2-3.8-2-3.8c-.6-1.3-1.1-2.7-1.7-4a95.4,95.4,0,0,1-6.2-32.8v-7.7a38.1,38.1,0,0,0-.7-6.7,53.3,53.3,0,0,0-1.7-6.6,39.6,39.6,0,0,0-2.9-6.3,52,52,0,0,0-8.3-11.7,64.7,64.7,0,0,0-5.2-5.3l-2.8-2.5-2.9-2.2h-.1a2.6,2.6,0,0,1-.5-3.6A2.5,2.5,0,0,1,1173.3,2210.9Z"></path><path fill="#31323d" d="M1168.7,2327.4a28,28,0,0,1,.3,4,25.4,25.4,0,0,1,0,3.9,49.1,49.1,0,0,1-.9,7.7c-.2,1.3-.5,2.6-.8,3.9s-.7,2.5-1.1,3.8a51.6,51.6,0,0,1-2.9,7.4,49,49,0,0,1-9.3,13.3,65.5,65.5,0,0,1-12.8,10.1,69,69,0,0,1-14.8,6.4l-3.8,1.1a27,27,0,0,1-3.9.8,68.8,68.8,0,0,1-7.7,1.3c-1.3.2-2.6.2-3.9.3l-3.9.3h-7.7l-7.7-.5-7.6-.8a6.2,6.2,0,0,1,1.3-12.4h.2a128.3,128.3,0,0,0,27.7.1,67.5,67.5,0,0,0,25.3-7.9,48.6,48.6,0,0,0,10.3-7.7,80.3,80.3,0,0,0,8.2-10.1,71.5,71.5,0,0,0,6.4-11.9c.9-2.1,1.6-4.3,2.3-6.5s.7-2.3,1-3.4.6-2.3.8-3.3v-.2a2.5,2.5,0,0,1,4.9.2Z"></path><path fill="none" stroke="#31323d" stroke-linecap="round" stroke-linejoin="round" stroke-width="12.5" d="M1194.8,2314.1c8.8,16.4,5.6,40.9-13.9,59.9,0,0,0-21.8-16.5-25.1"></path><path fill="none" stroke="#31323d" stroke-linecap="round" stroke-linejoin="round" stroke-width="12.5" d="M1005.8,2362.8s16.9,9.5,32.9,11.2"></path><path fill="#31323d" d="M1052.4,2113.6l-8.2,17.2c-2.6,5.7-5.2,11.5-7.3,17.3a90.6,90.6,0,0,0-2.9,8.8c-.9,2.9-1.7,5.9-2.3,8.8s-1.1,5.9-1.5,8.8a64.3,64.3,0,0,0-.3,8.7v.4a6.2,6.2,0,0,1-6.2,6.2,6.2,6.2,0,0,1-4.9-2.4l-.4-.5-.3-.4-.5-.7-.9-1.3-1.5-2.7c-.9-1.8-1.6-3.6-2.3-5.4a65.3,65.3,0,0,1-3-11.1,92.3,92.3,0,0,1-1.2-22.2c.2-3.6.5-7.3,1-10.9l.9-5.3,1-5.3c1.3-6.5,2.4-13.1,3.1-19.7,1.4-13.2,1.3-26.5-1.6-39.1a86.5,86.5,0,0,0-6.4-18.3,103.7,103.7,0,0,0-10.6-16.9h0a2.5,2.5,0,0,1,3.6-3.5,73.9,73.9,0,0,1,14.6,15.9,77.2,77.2,0,0,1,9.6,19.8,93.7,93.7,0,0,1,4.1,21.6,142.9,142.9,0,0,1,0,21.7c-.6,7.1-1.6,14.2-2.9,21.2l-.9,4.9c-.2,1.7-.5,3.3-.7,4.9-.5,3.3-.8,6.5-1,9.8a93.2,93.2,0,0,0,.7,19.1,67,67,0,0,0,2.1,9.1c.4,1.4,1,2.8,1.5,4.1l.9,1.9.5.9.2.4h.1l-11.1,4.2a71.5,71.5,0,0,1,2.4-20.8c.9-3.3,1.9-6.5,3-9.7s2.5-6.3,3.9-9.3a146.8,146.8,0,0,1,9.5-17.5q2.7-4.2,5.7-8.1a66.9,66.9,0,0,1,6.5-7.6,2.5,2.5,0,0,1,3.5-.1,2.7,2.7,0,0,1,.6,2.9Z"></path><path fill="#31323d" d="M1066.1,2224.3a45.3,45.3,0,0,1-2.1,5.9,47.3,47.3,0,0,1-2.8,5.5,61.8,61.8,0,0,1-3.6,5.3,48.1,48.1,0,0,1-4.4,4.7,43.3,43.3,0,0,1-5.2,4.2,39.1,39.1,0,0,1-6.1,3.2,34,34,0,0,1-13.8,2.3,40.1,40.1,0,0,1-13.1-3.3,53.9,53.9,0,0,1-5.9-2.9l-2.7-1.6-1.4-.8-.3-.2h-.3l-.2-.2a7.7,7.7,0,0,1-2.8-3.6,6.6,6.6,0,0,1-.2-3.9,8.3,8.3,0,0,1,1.1-2.9,11.5,11.5,0,0,1,2.1-2.3,8.2,8.2,0,0,1,3.3-1.3l1.3-.4a21.7,21.7,0,0,0,3.8-2.2,40.1,40.1,0,0,0,7.3-7,65.3,65.3,0,0,0,10.8-18,77.8,77.8,0,0,0,5.3-20.7c1.7-14.2-.5-28.9-5.3-42.7a6.3,6.3,0,0,1,3.9-8,6.2,6.2,0,0,1,7.9,3.9h0c5.3,15.3,7.8,31.8,5.9,48.3a87.3,87.3,0,0,1-6.1,24,82.5,82.5,0,0,1-12.9,21.4,57.8,57.8,0,0,1-9.5,8.9,30.6,30.6,0,0,1-6.2,3.6,22,22,0,0,1-4.1,1.2,4.1,4.1,0,0,0,1.9-.8,3.8,3.8,0,0,0,1.1-1.1,4.4,4.4,0,0,0,.6-1.6,3.7,3.7,0,0,0-.2-2.5,5.2,5.2,0,0,0-1.8-2.5h.3l1.2.7,2.2,1.3a30.5,30.5,0,0,0,4.6,2,31.2,31.2,0,0,0,9.3,2.1,26.9,26.9,0,0,0,8.9-.8,17.9,17.9,0,0,0,4.4-1.6,20.4,20.4,0,0,0,4.3-2.4c5.6-3.6,10.7-9.2,14.9-15.1v-.2a2.5,2.5,0,0,1,3.5-.6A2.7,2.7,0,0,1,1066.1,2224.3Z"></path><path fill="#31323d" d="M1006.9,2275a52.8,52.8,0,0,1,2.8-10.7,40.9,40.9,0,0,1,6-10,34.3,34.3,0,0,1,9-7.5,46.3,46.3,0,0,1,10.4-4.2,6.3,6.3,0,0,1,3.5,12h-.3a33.7,33.7,0,0,0-7.3,2.9,22.5,22.5,0,0,0-5.8,4.8,25,25,0,0,0-3.9,6.5,39.7,39.7,0,0,0-2,7.9h0a6.2,6.2,0,0,1-7.1,5.2A6.2,6.2,0,0,1,1006.9,2275Z"></path><path fill="none" stroke="#31323d" stroke-linecap="round" stroke-linejoin="round" stroke-width="12.5" d="M1014.4,2304.4s-86.5-19-93,72.8c0,0,14.3-31.7,52.6-31.1"></path><path fill="#31323d" d="M1065.7,2313c.1-.7.2-1.1.3-1.6l.3-1.3a25.8,25.8,0,0,1,.8-2.6,40.9,40.9,0,0,1,1.8-4.9,54.8,54.8,0,0,1,5.2-9.2,40.3,40.3,0,0,1,16.2-13.6,39.5,39.5,0,0,1,9.9-3.2l2.5-.4,1.3-.2h1.3l2.5-.2h2.5a73.5,73.5,0,0,1,19.4,3.1,2.6,2.6,0,0,1,1.7,3.1,2.6,2.6,0,0,1-2.9,1.8h0a68.4,68.4,0,0,0-18-1.1l-2.2.2-2.1.4-1.1.2-1,.2-2.1.6a35.1,35.1,0,0,0-7.7,3.3,31.7,31.7,0,0,0-11.3,11.7,46,46,0,0,0-3.3,7.5c-.4,1.3-.7,2.7-1,4a17.7,17.7,0,0,0-.4,2v1a2.8,2.8,0,0,0-.1.8,6.3,6.3,0,0,1-12.6.8,3.3,3.3,0,0,1,0-1.4Z"></path><path fill="#31323d" d="M1011.7,2305c0-.3,0-.4.1-.5v-1.1a5,5,0,0,0,.2-1.2,20.5,20.5,0,0,1,.5-2.4,35,35,0,0,1,1.4-4.6,40.7,40.7,0,0,1,4.5-8.2,37,37,0,0,1,14.1-11.5,54.4,54.4,0,0,1,16.5-4.7,91.1,91.1,0,0,1,16.5-.3,2.5,2.5,0,0,1,2.3,2.6,2.6,2.6,0,0,1-2.3,2.4h-.1a84.3,84.3,0,0,0-15.2,2.1,43.8,43.8,0,0,0-13.5,5.6,27.8,27.8,0,0,0-9.4,9.6,23.5,23.5,0,0,0-2.4,6,18,18,0,0,0-.6,3.2c0,.5-.1,1-.1,1.5v1.1h0a6.3,6.3,0,0,1-6.1,6.4A6.3,6.3,0,0,1,1011.7,2305Z"></path><path fill="#31323d" d="M972.5,2298.2l.4-1.3a4.2,4.2,0,0,1,.4-1,16.7,16.7,0,0,1,.8-2,21.6,21.6,0,0,1,1.9-3.7,29.3,29.3,0,0,1,5-6.7,26.2,26.2,0,0,1,6.8-5.2,26.6,26.6,0,0,1,8-2.9,34.8,34.8,0,0,1,15.8,1.1,61.2,61.2,0,0,1,13.6,5.8,2.5,2.5,0,0,1,1,3.4,2.5,2.5,0,0,1-3.1,1.1h0a57.4,57.4,0,0,0-13-3.6,27.5,27.5,0,0,0-12.2.7,17.8,17.8,0,0,0-8.9,6.5,21.9,21.9,0,0,0-2.7,5,23.1,23.1,0,0,0-1,2.8l-.3,1.3-.2.7v.5a6.4,6.4,0,0,1-7.4,4.9A6.3,6.3,0,0,1,972.5,2298.2Z"></path><path fill="#31323d" d="M1120.1,2370.8l.8-1.2a6.4,6.4,0,0,0,.8-1.4l.8-1.3.6-1.5a25.1,25.1,0,0,0,1.6-5.8,21.7,21.7,0,0,0-.1-5.7,23.3,23.3,0,0,0-1.6-5.3v-.3a6.3,6.3,0,1,1,11.8-4.6,3.9,3.9,0,0,1,.4,1.8c.1,1.5.3,2.9.3,4.3a29.5,29.5,0,0,1-.2,4.2,31.1,31.1,0,0,1-2.1,8.1,34,34,0,0,1-4.1,6.9l-1.2,1.5-1.4,1.4a8.6,8.6,0,0,1-1.4,1.3l-1.6,1.3a2.4,2.4,0,0,1-3.5-.5,2.4,2.4,0,0,1-.1-2.9Z"></path></g><g><path fill="#31323d" d="M1691.9,2272.2a84.5,84.5,0,0,1-8.7-19.7,90.8,90.8,0,0,1-3.3-21.2,114,114,0,0,1,1.4-21.1c.6-3.5,1.4-6.9,2.3-10.4a41.3,41.3,0,0,1,1.5-5,25.8,25.8,0,0,1,.8-2.6l.5-1.3c.2-.4.3-.8.6-1.4h0l-.5,2.4v-5l-.3-5.1c-.3-3.4-.6-6.9-.8-10.3l-.9-10.4-.5-5.2-.5-5.1c-1.4-13.9-2.7-27.8-4.4-41.7s-3.4-27.7-5.1-41.6l-5.5-41.7a2.5,2.5,0,0,1,2.1-2.8,2.5,2.5,0,0,1,2.8,1.9c1.6,6.9,3.1,13.7,4.7,20.6s2.9,13.7,4.3,20.6l4.1,20.7c1.2,6.9,2.5,13.8,3.7,20.7,2.3,13.9,4.5,27.8,6.2,41.8.9,7.1,1.6,14.1,2.1,21.2.3,3.5.5,7,.7,10.6,0,1.8.1,3.6.1,5.4v6a5.8,5.8,0,0,1-.4,1.9h-.1l-.3,1-.4,1a18.7,18.7,0,0,0-.7,2.2,38.1,38.1,0,0,0-1.3,4.5,92.1,92.1,0,0,0-2,9.1,97.6,97.6,0,0,0-1.3,18.6,84.2,84.2,0,0,0,2.8,18.2,71.1,71.1,0,0,0,7.3,16.7h.1a6.2,6.2,0,0,1-2.2,8.6A6.1,6.1,0,0,1,1691.9,2272.2Z"></path><path fill="none" stroke="#31323d" stroke-linecap="round" stroke-linejoin="round" stroke-width="12.5" d="M1772.9,2350.9c-2.2-43.8,35.1-44.4,35.1-44.4s44.9,9,51.4,61.6c5.8,47-20.1,62.2-20.1,62.2s-13.2-90.9-66.5-77"></path><path fill="none" stroke="#31323d" stroke-linecap="round" stroke-linejoin="round" stroke-width="12.5" d="M1858.4,2344.9c49.9-5.3,63.6,69.5,63.6,69.5s16.9-16.1,4.6-61.8c-13.7-51.2-60.4-51.2-60.4-51.2-7.7,0-11.5-.1-18.8,3,0,0-9,5.1-13,11.3"></path><path fill="#31323d" d="M1730.8,2215.4c-.9.6-1.9,1.5-2.8,2.2l-2.8,2.5c-1.9,1.7-3.6,3.5-5.3,5.3a59.2,59.2,0,0,0-8.3,11.7,50.4,50.4,0,0,0-2.8,6.3,53.9,53.9,0,0,0-1.8,6.6,50.5,50.5,0,0,0-.6,6.7v7.7a90.9,90.9,0,0,1-6.2,32.8c-.5,1.3-1.1,2.7-1.7,4l-1.9,3.8c-.7,1.3-1.5,2.5-2.3,3.8l-2.5,3.6-2.9,3.4-1.6,1.7-.9.8-.9.7-1.8,1.5-2,1.4a31.7,31.7,0,0,1-4.5,2.3l-1.8-11.9h3.6l3.8-.2c2.6-.2,5.1-.5,7.6-.9a72.5,72.5,0,0,0,14.7-4,56.1,56.1,0,0,0,13.4-7.2,73.3,73.3,0,0,0,11.6-10.8h.1a2.5,2.5,0,0,1,3.5-.2,2.6,2.6,0,0,1,.8,2.7,46,46,0,0,1-9.4,15.7l-1.5,1.7-1.7,1.6-1.8,1.5-1.8,1.5a55.1,55.1,0,0,1-7.9,5,59.5,59.5,0,0,1-17.7,5.9,56.3,56.3,0,0,1-9.2,1h-4.6l-2.4-.2h-1.2l-1.3-.2h0a6.2,6.2,0,0,1-2.5-11.6l.7-.4a28.5,28.5,0,0,0,8.8-8.3,57.7,57.7,0,0,0,6.5-12.3,103.3,103.3,0,0,0,4.1-13.7l.6-3.6c.2-1.2.4-2.4.5-3.6l.3-1.8.2-1.8.3-3.6.3-7.9a52.2,52.2,0,0,1,1.5-8.8,51.6,51.6,0,0,1,3-8.3,55.7,55.7,0,0,1,16-19.7,75.1,75.1,0,0,1,6.8-4.7,58.1,58.1,0,0,1,7.5-3.7,2.5,2.5,0,0,1,3.2,1.4,2.6,2.6,0,0,1-.8,3Z"></path><path fill="#31323d" d="M1738.1,2327.4c.3,1,.5,2.2.8,3.3l1,3.4c.7,2.2,1.5,4.4,2.4,6.5a64.8,64.8,0,0,0,6.4,11.9,72.4,72.4,0,0,0,8.2,10.1,48,48,0,0,0,10.2,7.7,68.1,68.1,0,0,0,25.3,7.9,128.3,128.3,0,0,0,27.7-.1h.2a6.2,6.2,0,0,1,1.3,12.4l-7.6.8-7.6.5h-7.7l-3.9-.3c-1.3-.1-2.6-.1-3.9-.3a70.5,70.5,0,0,1-7.8-1.3,23.3,23.3,0,0,1-3.8-.8l-3.9-1.1a68.2,68.2,0,0,1-14.7-6.4,62.6,62.6,0,0,1-12.8-10.1,49,49,0,0,1-9.3-13.3,52.1,52.1,0,0,1-3-7.4c-.4-1.3-.7-2.6-1.1-3.8s-.6-2.6-.8-3.9a49,49,0,0,1-.8-7.7c-.1-1.3-.1-2.6-.1-3.9s.1-2.6.3-4a2.7,2.7,0,0,1,2.9-2.2,2.9,2.9,0,0,1,2.1,1.9Z"></path><path fill="none" stroke="#31323d" stroke-linecap="round" stroke-linejoin="round" stroke-width="12.5" d="M1707,2314.1c-8.8,16.4-5.5,40.9,13.9,59.9,0,0,0-21.8,16.6-25.1"></path><path fill="none" stroke="#31323d" stroke-linecap="round" stroke-linejoin="round" stroke-width="12.5" d="M1896,2362.8s-16.8,9.5-32.8,11.2"></path><path fill="#31323d" d="M1853.5,2110.7a78.9,78.9,0,0,1,6.5,7.6c2,2.6,3.8,5.3,5.6,8.1a147.3,147.3,0,0,1,9.6,17.5c1.3,3,2.7,6.1,3.8,9.3s2.2,6.4,3,9.7a65.2,65.2,0,0,1,2.4,20.8l-11-4.2h0v-.2l.2-.3a4.1,4.1,0,0,1,.5-.9l.9-1.9a40.9,40.9,0,0,0,1.6-4.2,66.8,66.8,0,0,0,2-9.1,95.1,95.1,0,0,0,.7-19.3c-.2-3.3-.6-6.5-1-9.8-.2-1.7-.5-3.3-.8-4.9l-.9-5.1a75.8,75.8,0,0,1-.8-22.8,85.4,85.4,0,0,1,5.7-21.8,109.5,109.5,0,0,1,10.7-19.3c8.3-11.9,18.3-22.1,28.8-31.4a2.6,2.6,0,0,1,3.6.2,2.6,2.6,0,0,1,.1,3.2c-8,11.4-16.4,22.4-23.1,34s-11.5,23.8-12.6,36.5a70.7,70.7,0,0,0,1.1,18.9l1,5.1.9,5.4a99.9,99.9,0,0,1,1.1,11,102.8,102.8,0,0,1,.1,11.1,72.5,72.5,0,0,1-1.3,11.3,57.2,57.2,0,0,1-3,11.1,29.6,29.6,0,0,1-2.4,5.5,18.2,18.2,0,0,1-1.5,2.7c-.3.4-.5.9-.9,1.4l-.5.7-.3.4-.4.5a6.2,6.2,0,0,1-11-3.9v-.4a87.1,87.1,0,0,0-.4-8.7c-.3-2.9-.8-5.8-1.4-8.8s-1.4-5.9-2.3-8.8-1.9-5.9-3-8.8c-2.1-5.8-4.6-11.6-7.3-17.3s-5.4-11.5-8.2-17.2h0a2.5,2.5,0,0,1,4.1-2.8Z"></path><path fill="#31323d" d="M1840.4,2222.4c4.2,5.9,9.3,11.5,14.9,15.1a19.7,19.7,0,0,0,4.2,2.4,21.4,21.4,0,0,0,4.4,1.6,27.5,27.5,0,0,0,9,.8,31.3,31.3,0,0,0,9.2-2.1,26.7,26.7,0,0,0,4.6-2l2.3-1.3,1.1-.7h.4a4.8,4.8,0,0,0-1.9,2.5,5.7,5.7,0,0,0-.2,2.5,7.6,7.6,0,0,0,.6,1.6,4.3,4.3,0,0,0,1.2,1.1,3.7,3.7,0,0,0,1.9.8,21,21,0,0,1-4.2-1.2,37.3,37.3,0,0,1-6.2-3.6,57.1,57.1,0,0,1-9.4-8.9,79.8,79.8,0,0,1-12.9-21.4,91.2,91.2,0,0,1-6.2-24c-1.9-16.5.6-33,5.9-48.3h0a6.2,6.2,0,1,1,11.8,4.1c-4.8,13.8-6.9,28.5-5.3,42.7a81.8,81.8,0,0,0,5.3,20.7,65.6,65.6,0,0,0,10.9,18,40.1,40.1,0,0,0,7.3,7,21.1,21.1,0,0,0,3.7,2.2l1.4.4a8.3,8.3,0,0,1,3.2,1.3,7.6,7.6,0,0,1,2.1,2.3,6.9,6.9,0,0,1,1.2,2.9,7.6,7.6,0,0,1-.3,3.9,8.2,8.2,0,0,1-2.7,3.6l-.3.2h-.2l-.4.2-1.3.8-2.8,1.6a52.3,52.3,0,0,1-5.8,2.9,40.7,40.7,0,0,1-13.2,3.3,34.6,34.6,0,0,1-13.8-2.3,44.2,44.2,0,0,1-6.1-3.2,53,53,0,0,1-5.2-4.2,46.9,46.9,0,0,1-4.3-4.7,45,45,0,0,1-3.6-5.3,35.5,35.5,0,0,1-2.8-5.5,34.2,34.2,0,0,1-2.1-5.9,2.4,2.4,0,0,1,1.7-3,2.6,2.6,0,0,1,2.8.9Z"></path><path fill="#31323d" d="M1882.6,2276.8a39.8,39.8,0,0,0-2.1-7.9,25,25,0,0,0-3.9-6.5,22.1,22.1,0,0,0-5.7-4.8,34.5,34.5,0,0,0-7.4-2.9h-.2a6.4,6.4,0,0,1-4.3-7.8,6.2,6.2,0,0,1,7.7-4.2,47,47,0,0,1,10.5,4.2,35.4,35.4,0,0,1,14.9,17.5,47,47,0,0,1,2.8,10.7,6.2,6.2,0,0,1-12.3,1.9Z"></path><path fill="none" stroke="#31323d" stroke-linecap="round" stroke-linejoin="round" stroke-width="12.5" d="M1887.5,2304.4s86.4-19,92.9,72.8c0,0-14.2-31.7-52.5-31.1"></path><path fill="#31323d" d="M1823.8,2314.5c0-.1-.1-.5-.1-.8v-1c-.1-.6-.3-1.3-.4-2s-.7-2.7-1.1-4a33.5,33.5,0,0,0-3.3-7.5,31,31,0,0,0-11.3-11.7,32.4,32.4,0,0,0-7.6-3.3l-2.1-.6-1.1-.2-1-.2-2.2-.4-2.2-.2a67.9,67.9,0,0,0-17.9,1.1h-.1a2.5,2.5,0,0,1-1.1-4.9,73.5,73.5,0,0,1,19.4-3.1h2.5l2.5.2h1.3l1.2.2,2.6.4a40.8,40.8,0,0,1,26,16.8,43.7,43.7,0,0,1,5.2,9.2c.7,1.6,1.3,3.2,1.9,4.9a25,25,0,0,1,.7,2.6,6.5,6.5,0,0,1,.4,1.3c.1.5.2.9.3,1.6v.9a6.2,6.2,0,0,1-5.2,7.2,6.3,6.3,0,0,1-7.3-5.2A6.5,6.5,0,0,1,1823.8,2314.5Z"></path><path fill="#31323d" d="M1877.6,2304.7h0c0-.1.1-.2.1-.4a2,2,0,0,0-.1-.7,7.6,7.6,0,0,0-.1-1.5c-.1-1.1-.3-2.1-.5-3.2a34.1,34.1,0,0,0-2.4-6,27.8,27.8,0,0,0-9.4-9.6,44.3,44.3,0,0,0-13.6-5.6,84.3,84.3,0,0,0-15.2-2.1h0a2.6,2.6,0,0,1-2.4-2.7,2.6,2.6,0,0,1,2.4-2.3,91.3,91.3,0,0,1,16.5.3,56.1,56.1,0,0,1,16.5,4.7,36.7,36.7,0,0,1,14,11.5,32.8,32.8,0,0,1,4.5,8.2,35.3,35.3,0,0,1,1.5,4.6c.1.8.3,1.6.4,2.4a5,5,0,0,1,.2,1.2v1.6a6.3,6.3,0,0,1-6.4,6.1A6.3,6.3,0,0,1,1877.6,2304.7Z"></path><path fill="#31323d" d="M1917.1,2300.7a2,2,0,0,1-.1-.5v-.7a6.5,6.5,0,0,0-.4-1.3,13.1,13.1,0,0,0-.9-2.8,22.2,22.2,0,0,0-2.8-5,17.9,17.9,0,0,0-8.8-6.5,27.9,27.9,0,0,0-12.3-.7,56.6,56.6,0,0,0-12.9,3.6h0a2.5,2.5,0,0,1-2.2-4.5,64.1,64.1,0,0,1,13.7-5.8,34.2,34.2,0,0,1,15.7-1.1,25.6,25.6,0,0,1,8,2.9,23.2,23.2,0,0,1,6.8,5.2,33,33,0,0,1,5.1,6.7c.7,1.2,1.3,2.5,1.9,3.7l.8,2a4.2,4.2,0,0,0,.4,1,13,13,0,0,1,.3,1.3,6.2,6.2,0,1,1-12.2,2.5Z"></path><path fill="#31323d" d="M1778.5,2374.5a7,7,0,0,1-1.6-1.3l-1.5-1.3-1.3-1.4-1.3-1.5a33.6,33.6,0,0,1-4-6.9,27.6,27.6,0,0,1-2.1-8.1,19.8,19.8,0,0,1-.3-4.2c0-1.4.2-2.8.3-4.3a6.3,6.3,0,0,1,6.8-5.8,6.4,6.4,0,0,1,5.9,6.8,11.6,11.6,0,0,1-.4,1.8l-.2.3a23.1,23.1,0,0,0-1.5,5.3,21.7,21.7,0,0,0-.1,5.7,20.7,20.7,0,0,0,1.5,5.8l.7,1.5a8.3,8.3,0,0,0,.7,1.3c.3.5.5,1,.8,1.4l.9,1.2.2.3a2.5,2.5,0,0,1-.6,3.5A2.4,2.4,0,0,1,1778.5,2374.5Z"></path></g></g></g></g><g id="item_f"></g><g id="eye"><defs><linearGradient id="eyeColor1" x2="0%" y2="100%"><stop offset="0%" stop-color="#fcdf35"></stop></linearGradient><linearGradient id="eyeColor2" x2="0%" y2="100%"><stop offset="0%" stop-color="#fcdf35"></stop></linearGradient></defs><defs><clipPath id="eyes__a"><path fill="#fff" stroke="#31323d" stroke-linecap="round" stroke-miterlimit="10" stroke-width="10" d="M1831.9 1100a129.7 129.7 0 1 1-257.2 34c-9.4-71 18.8-167.1 111.6-175.7 71.3-6.5 136.2 70.7 145.6 141.7z"></path></clipPath><clipPath id="eyes__b"><path fill="#fff" stroke="#31323d" stroke-linecap="round" stroke-miterlimit="10" stroke-width="10" d="M1037 1109a129.7 129.7 0 1 0 257.2 34c9.4-71-18.8-167.1-111.6-175.7-71.3-6.5-136.2 70.7-145.6 141.7z"></path></clipPath></defs><path fill="#fff" d="M1831.9 1100a129.7 129.7 0 1 1-257.2 34c-9.4-71 18.8-167.1 111.6-175.7 71.3-6.5 136.2 70.7 145.6 141.7z"></path><g clip-path="url(#eyes__a)"><circle cx="1702.3" cy="1142.4" r="97.5" fill="url(#eyeColor1)" transform="translate(-135.1 233) rotate(-7.5)"></circle><circle cx="1702.3" cy="1142.4" r="79.2" fill="#31323d" transform="translate(-135.1 233) rotate(-7.5)"></circle><circle cx="1743.3" cy="1074.2" r="37.8" fill="#fff" transform="translate(-125.8 237.8) rotate(-7.5)"></circle></g><path fill="none" stroke="#31323d" stroke-linecap="round" stroke-miterlimit="10" stroke-width="10" d="M1831.9 1100a129.7 129.7 0 1 1-257.2 34c-9.4-71 18.8-167.1 111.6-175.7 71.3-6.5 136.2 70.7 145.6 141.7z"></path><path fill="#fff" d="M1037 1109a129.7 129.7 0 1 0 257.2 34c9.4-71-18.8-167.1-111.6-175.7-71.3-6.5-136.2 70.7-145.6 141.7z"></path><g clip-path="url(#eyes__b)"><circle cx="1166.6" cy="1151.4" r="97.5" fill="url(#eyeColor2)" transform="translate(-140.9 162.9) rotate(-7.5)"></circle><circle cx="1166.6" cy="1151.4" r="79.2" fill="#31323d" transform="translate(-140.9 162.9) rotate(-7.5)"></circle><circle cx="1207.6" cy="1083.2" r="37.8" fill="#fff" transform="matrix(0.99, -0.13, 0.13, 0.99, -131.58, 167.65)"></circle></g><path fill="none" stroke="#31323d" stroke-linecap="round" stroke-miterlimit="10" stroke-width="10" d="M1037 1109a129.7 129.7 0 1 0 257.2 34c9.4-71-18.8-167.1-111.6-175.7-71.3-6.5-136.2 70.7-145.6 141.7z"></path><path fill="none" stroke="#31323d" stroke-linecap="round" stroke-miterlimit="10" stroke-width="30" d="M1103.5 940.2c23.1-29.9 51.2-50.7 90.4-44.6 51.6 8 74 38.9 86.3 74.1"></path><path fill="none" stroke="#31323d" stroke-linecap="round" stroke-miterlimit="10" stroke-width="30" d="M1758.2 930.2c-23.1-29.9-51.2-50.7-90.4-44.6-51.6 8-74 38.9-86.3 74.1"></path></g><g id="item_e"></g><g id="mouth"><path d="M1376.1,1398.1s3.7,72.6,64.6,70.2c58.9-2.3,65.5-70.3,65.5-70.3s-21.2,30.3-59.3,30.7S1376.1,1398.1,1376.1,1398.1Z" fill="#595959" opacity=".2" style="mix-blend-mode:multiply"></path><path d="M1441.1,1206.7l0.7,4.9c0.2,1.5.5,3.5,0.8,5.6l1.2,7.1,1.5,8.4c0.6,3,1.2,6.1,1.9,9.3l1.1,4.9,0.6,2.5,0.6,2.5,1.3,5.1,1.4,5.1c0.5,1.7,1,3.4,1.5,5.1s1,3.4,1.6,5l1.7,4.9,1.8,4.7c0.6,1.6,1.2,3,1.8,4.5s1.2,2.9,1.8,4.3l1.8,4,1.8,3.7c1.1,2.4,2.4,4.5,3.4,6.4l2.8,4.8,2.6,4.1h0a1.5,1.5,0,0,1-2.4,1.7l-3.1-3.9-3.4-4.6c-1.2-1.8-2.7-3.9-4.1-6.2l-2.3-3.6-2.3-3.9c-0.8-1.3-1.5-2.8-2.3-4.2s-1.6-2.9-2.3-4.4l-2.3-4.7-2.2-4.8c-0.8-1.6-1.5-3.3-2.2-4.9s-1.5-3.3-2.1-5l-2-5.1-1.9-5.1-0.9-2.5-0.9-2.5-1.7-4.9c-1-3.2-2.1-6.4-3-9.4l-2.5-8.5-2-7.2c-0.6-2.2-1-4-1.4-5.5l-1.2-4.8a7.5,7.5,0,1,1,14.6-3.7Z" fill="#31323d"></path><path d="M1395,1323.2l0.9-1.2,2.5-3.5,1.6-2.5c0.6-.9,1.3-1.9,1.9-3l2-3.5c0.7-1.2,1.3-2.6,2-4l1.1-2.1,1-2.3c0.7-1.5,1.4-3.1,2.1-4.8l2-5.1c0.6-1.8,1.2-3.6,1.9-5.4s1.2-3.8,1.7-5.7,1.2-3.9,1.6-5.9l1.5-6,1.3-6.1c0.5-2,.8-4.1,1.2-6.1s0.7-4.1,1.1-6.1l0.9-6,0.4-3,0.3-2.9c0.4-3.9.9-7.6,1.2-11.2s0.6-7,.8-10.1l0.5-8.5,0.2-6.6,0.2-5.7v-0.2a7.5,7.5,0,0,1,15,.5c0,0.2,0,.4-0.1.7l-0.7,5.9-0.8,6.7-1.3,8.7c-0.4,3.2-1.1,6.6-1.7,10.3s-1.4,7.5-2.2,11.4l-0.6,3-0.7,3-1.4,6.1c-0.5,2.1-1.1,4.1-1.6,6.2s-1.1,4.2-1.8,6.2l-1.9,6.2-2.1,6.1c-0.7,2-1.5,4-2.2,5.9s-1.5,3.9-2.3,5.7l-2.4,5.5-2.5,5.1c-0.8,1.7-1.8,3.2-2.6,4.8l-1.2,2.3-1.3,2.1c-0.9,1.4-1.6,2.7-2.5,3.9l-2.4,3.4c-0.7,1.1-1.5,2.1-2.2,3l-1.9,2.5-2.8,3.2-1,1.1A1.5,1.5,0,0,1,1395,1323.2Z" fill="#31323d"></path><path d="M1368.2,1174.4a15,15,0,0,1,3.6-15.9c9-8.8,28.2-21.6,63.8-21.8s52.5,12.2,60.5,21a14.9,14.9,0,0,1,2.5,16.1h0a20.8,20.8,0,0,1-18.3,12.3c-10,.3-23.9,3.3-32.7,15.8a13.2,13.2,0,0,1-1.9,2.2l-0.3.3a17.7,17.7,0,0,1-25.3-1.5h0s-7.3-12.5-34.1-14.6a20.7,20.7,0,0,1-17.7-13.5v-0.3Z" fill="#31323d"></path><path d="M1509.9,1395l-0.5,1.8c-0.2.6-.3,1.3-0.6,2.1l-1.1,3-1.6,3.6c-0.7,1.3-1.3,2.7-2.2,4a56.1,56.1,0,0,1-6.6,9,63,63,0,0,1-9.9,8.9l-3,2-3.2,1.9c-2.2,1.2-4.4,2.4-6.8,3.4s-4.8,1.9-7.4,2.7l-3.9,1.1-3.9.9a77.5,77.5,0,0,1-16.3,1.3,81.8,81.8,0,0,1-16.2-2,83.6,83.6,0,0,1-14.9-4.9l-0.9-.4-0.4-.2h-0.5l-1.6-.8-3.3-1.7c-2.2-1.2-4.2-2.4-6.1-3.7a76.6,76.6,0,0,1-10.2-8.1,75.2,75.2,0,0,1-7.4-8,71.1,71.1,0,0,1-4.7-6.9c-0.6-1-1.1-1.9-1.5-2.7l-1-2-0.8-1.7a2.5,2.5,0,0,1,4.1-2.8h0.1l1.2,1.3,3.4,3.6c1.5,1.5,3.4,3.2,5.6,5.1s4.8,3.8,7.7,5.8a91.1,91.1,0,0,0,9.8,5.7l2.7,1.3,2.8,1.2,3,1.2,1.6,0.6,1.4,0.5a85.9,85.9,0,0,0,12.8,3.3,81.6,81.6,0,0,0,13.5,1.3,80.6,80.6,0,0,0,13.5-1l3.3-.6,3.2-.7c2.1-.5,4.2-1.1,6.2-1.8s3.9-1.4,5.8-2.3l2.7-1.3,2.6-1.4a65.7,65.7,0,0,0,9.2-6.1,60.7,60.7,0,0,0,7-6.4,72.2,72.2,0,0,0,4.8-5.6l1.6-2.2c0.5-.6.9-1.3,1.2-1.8l1-1.5A2.5,2.5,0,0,1,1509.9,1395Z" fill="#31323d"></path><path d="M1486.7,1248.7l4.1,0.2,11.6,0.7c10,0.7,24.2,2,41.1,4.6a545.1,545.1,0,0,1,57.2,11.7c10.3,2.7,20.9,5.8,31.6,9.4s21.3,7.6,31.7,12.1,20.7,9.5,30.5,14.9a301.1,301.1,0,0,1,27.9,17.4,260,260,0,0,1,24,19.2,220.6,220.6,0,0,1,19.2,19.7,202.8,202.8,0,0,1,14.1,18.4l2.7,4.2,2.5,4,2.2,3.7,1.9,3.4c1.2,2.1,2.2,4.1,3.1,5.8s1.6,3.2,2.2,4.4l1.7,3.7-1.8-3.6c-0.6-1.2-1.3-2.6-2.3-4.3s-2-3.6-3.2-5.7l-2-3.4-2.3-3.6-2.6-3.9-2.8-4.1a201.6,201.6,0,0,0-14.5-17.9,218.6,218.6,0,0,0-19.6-19,257.2,257.2,0,0,0-24.2-18.3,297.5,297.5,0,0,0-28-16.4c-9.8-5.1-20.1-9.7-30.5-13.9s-21.1-7.8-31.6-11.1-21.1-6-31.4-8.4a537.4,537.4,0,0,0-56.7-9.9c-16.7-2-30.7-3-40.5-3.4l-11.3-.4h-4.1a5,5,0,1,1,.1-10h0.1Z" fill="#31323D"></path><path d="M1654.6,1234.4l-1.5-1.1-4.3-2.9-6.8-4.2c-2.7-1.6-5.7-3.2-9.2-4.9l-5.4-2.5-2.9-1.3-3-1.2-3.1-1.2-3.2-1.1-3.3-1.1-3.4-1c-2.3-.7-4.6-1.2-7-1.8s-4.8-1-7.2-1.5-4.9-.7-7.4-1.1-5-.5-7.5-0.7-5-.2-7.5-0.3h-7.5l-3.7.2-3.6.3c-2.4.3-4.8,0.5-7,.9-4.6.7-9,1.7-13.2,2.7s-8,2.2-11.5,3.5l-5,1.8-4.4,1.8-7.1,3.3-4.4,2.3-1.5.9h-0.1a5,5,0,1,1-4.8-8.8h0.3l1.7-.8,4.9-2.2,7.7-3,4.8-1.7,5.4-1.6c3.8-1.1,7.9-2,12.4-2.9s9.1-1.6,14-1.9c2.4-.3,4.9-0.3,7.4-0.5h11.4l3.9,0.3c2.6,0.2,5.2.3,7.7,0.8s5.2,0.6,7.7,1.2,5.1,0.9,7.5,1.6,4.9,1.2,7.3,2,4.7,1.4,7,2.3l3.4,1.2,3.3,1.3,3.2,1.3,3,1.4,3,1.4,2.8,1.4,5.3,2.9c3.3,1.9,6.3,3.8,8.9,5.5s4.8,3.3,6.6,4.7l4.1,3.2Z" fill="#31323D"></path><path d="M1494.6,1274.5l7.8,0.7,4.3,0.7,5.1,0.9c3.5,0.9,7.5,1.7,11.7,3.1l3.2,1,3.3,1.3,3.4,1.3,3.4,1.5,3.5,1.6c1.2,0.5,2.3,1.2,3.5,1.8l3.5,1.9,3.5,2.1,3.5,2.2,3.4,2.4,3.4,2.5,3.4,2.6,1.7,1.3,1.6,1.4,3.3,2.8c2.2,1.9,4.2,3.9,6.3,5.9,4.1,4.1,8.1,8.2,11.7,12.5s7.1,8.6,10.3,12.9,6.1,8.6,8.8,12.7,5,8.1,7.2,11.8,4,7.2,5.5,10.2,2.9,5.8,4,8.1c2.1,4.5,3.1,7.2,3.1,7.2s-1.2-2.6-3.5-7c-1.2-2.2-2.6-4.8-4.4-7.8s-3.8-6.3-6.1-9.9-4.9-7.4-7.8-11.3-6-8-9.3-12.1-7-8.2-10.8-12.1-7.9-7.8-12.1-11.6l-6.5-5.3-3.3-2.5-1.7-1.2-1.7-1.2-3.4-2.3-3.4-2.2-3.4-2.1-3.4-1.9-3.4-1.8-3.4-1.6c-1.1-.5-2.2-1.1-3.4-1.5l-3.3-1.3-3.3-1.3-3.2-1.1-3.1-1-3-.8c-3.9-1.1-7.7-1.7-10.9-2.3l-4.5-.5-3.8-.4-7.8-.3a5,5,0,0,1,.4-10h0.3Z" fill="#31323D"></path><path d="M1378.3,1255.9h-15.8c-10,0-24.3,0-41.3.6-8.5.3-17.8,0.7-27.5,1.4s-20,1.6-30.6,2.8-21.5,2.8-32.5,4.8-22.1,4.4-33.1,7.3a334.8,334.8,0,0,0-32.3,10.3c-5.2,1.9-10.4,4.1-15.4,6.3s-9.9,4.6-14.6,7.1a200.5,200.5,0,0,0-47.2,33.9,165.1,165.1,0,0,0-15.5,17.4c-1.1,1.3-2,2.7-3,4l-2.7,3.8-2.4,3.6-2.1,3.4c-1.3,2.1-2.4,4.1-3.4,5.8l-1.3,2.4-1,2-1.9,3.7,1.8-3.7,1-2,1.2-2.4c0.9-1.7,1.9-3.7,3.2-5.9l2-3.4,2.3-3.7c0.8-1.3,1.7-2.6,2.6-3.9s1.8-2.8,2.9-4.1a166.3,166.3,0,0,1,15.1-18,202.9,202.9,0,0,1,46.8-35.6c4.7-2.7,9.6-5.2,14.6-7.6s10.1-4.7,15.4-6.8a339.3,339.3,0,0,1,32.4-11.3c11-3.3,22.2-6,33.3-8.4s22.1-4.2,32.8-5.8,21-2.7,30.9-3.7,19.2-1.6,27.8-2.1c17.2-1,31.6-1.4,41.6-1.7l15.7-.4h0a5,5,0,0,1,.3,10h-0.1Z" fill="#31323D"></path><path d="M1203.3,1240.3l1.5-1.2,4.3-3.4,3.2-2.3,1.8-1.3,2-1.3c2.7-1.9,5.9-3.8,9.5-5.8l5.6-3,6.1-3c4.3-1.9,8.9-3.8,13.7-5.4l3.7-1.2,3.8-1.1,3.8-1.1,3.9-.9,4-.9,4-.7,4.1-.6,4.1-.5,2.1-.2h2.1l4-.2h8.2l8.1,0.3,7.9,0.7c2.6,0.4,5.1.6,7.6,1.1l3.7,0.6,3.5,0.8c4.7,1,9,2.2,13,3.4s7.6,2.6,10.7,3.8l4.4,1.8,3.7,1.7,5.1,2.5,1.8,0.9a5,5,0,1,1-4.6,8.9h-0.3l-1.6-1-4.6-2.6-3.4-1.8-4-2c-2.9-1.4-6.2-2.8-9.9-4.2s-7.7-2.8-12.1-4l-3.3-.9-3.4-.8c-2.3-.6-4.7-1-7.1-1.5l-7.5-1.1-7.7-.7-3.9-.2h-11.9l-4,.2-4,.4-3.9.4-3.9.6-3.9.6-3.8.8-3.7.8-3.7,1c-4.8,1.3-9.4,2.9-13.7,4.5l-6.2,2.6-5.7,2.7c-3.6,1.8-6.9,3.5-9.7,5.2l-2.1,1.2-1.9,1.2-3.3,2.1-4.5,3.1Z" fill="#31323D"></path><path d="M1370.4,1281.7l-7.8-.3-3.8.2h-3.3l-1.2.2-5.2.7-5.7,1.2-1.5.3-1.5.4-3.1.9c-2.2.5-4.3,1.4-6.5,2.2s-4.4,1.9-6.7,2.9l-1.7.8-1.7.9-3.4,1.8-3.4,2-3.4,2.1-6.7,4.6a163.1,163.1,0,0,0-13,10.6l-3.1,2.9-3,3c-2,1.9-3.9,4-5.9,6l-5.5,6.2c-1.7,2.1-3.5,4.1-5.2,6.2l-2.5,3.1-2.4,3.1c-1.6,2-3,4.1-4.4,6.1l-4.1,5.9-3.6,5.6c-2.3,3.6-4.3,7-6.1,10s-3.2,5.7-4.4,7.9c-2.4,4.4-3.6,7-3.6,7s1.1-2.7,3.2-7.2c1.1-2.3,2.4-5,4-8.1s3.4-6.6,5.6-10.3l3.4-5.8,3.8-6.1c1.3-2.1,2.7-4.2,4.1-6.4l2.2-3.3,2.3-3.3c1.5-2.2,3.2-4.4,4.9-6.6l5.3-6.6c1.9-2.1,3.7-4.4,5.6-6.5l2.9-3.2,3-3.1a168.4,168.4,0,0,1,12.8-11.7l6.8-5.2,3.5-2.4c1.2-.8,2.3-1.6,3.5-2.3l3.5-2.1,1.7-1,1.8-.9c2.4-1.2,4.6-2.5,7-3.5s4.6-2.1,6.9-2.8l3.4-1.2,1.6-.6,1.6-.4,6.2-1.6,5.7-1,1.3-.2h1.3l2.5-.2,4.5-.4h7.9a5,5,0,0,1,.1,10h-0.3Z" fill="#31323D"></path></g><g id="item_d"></g><g id="item_c"></g><g id="item_b"></g><g id="item_a"></g></svg>