<svg xmlns="http://www.w3.org/2000/svg" viewBox="0 0 3000 3000" xmlns:xlink="http://www.w3.org/1999/xlink"><g id="item_j"></g><g id="item_i"></g><mask id="hooktail_mask"><g fill="white"><path d="M0 0h3000v3000H0z"></path><path d="M0 0h3000v3000H0z"></path></g><g fill="black"><path d="M2399.9,1601.2a38.3,38.3,0,0,1,19.5,3.8l14.1,8.6c-25.9,53.4-14.1,96.3.5,123a151.2,151.2,0,0,0,38.5,45.7c10,8.6,28.1,16.7,51.7,16.7a111.4,111.4,0,0,0,13.8-.9,121.9,121.9,0,0,0,24.1-5.7h31.8v155.1H2251.8V1636.6h86.1Z"></path></g></mask><g clip-path="url(#kittyClipPath)" mask=""><g id="tail"></g></g><g id="item_h"></g><g clip-path="url(#kittyClipPath)"><g id="bodyFur"><clipPath id="furClipPath"><path d="M1717.4,967.2a241.5,241.5,0,0,1,13.7,36.8l16.7,65.1c7.6,32.4,19.5,65.2,43.6,88.3s53.4,39.9,79.7,60.6c90,71,134.4,191.2,118.8,304.8a216.3,216.3,0,0,0-72.9-76.1,126.4,126.4,0,0,1,25.7,66.1c-17.8-23.2-42.8-40.6-70.5-49.9h0l36,117.2,29.7,96.5,88.4,287.5a248.1,248.1,0,0,1-6.4,155.8l0.8,0.3c47.5,13.8,136.8,46.1,179.8,75.5,26.1,17.8,10.1,55.9-23.2,55.3l-261.5-5.1a246.8,246.8,0,0,1-65.4,28.1h0c2.8,13.3,12.3,21,28.1,21.9,18.2,1,23.7,18.6,24.5,25.5,2.3,21.2-5.8,34.7-27.9,36.9l-91.8,3a53.5,53.5,0,0,1-22.3-4,71.6,71.6,0,0,1-43.1-54.3l-3.5-20.7H1180.9l-5,26.6a71.4,71.4,0,0,1-8.8,23.9c-13.4,22.8-38.9,35.7-65.3,34.1l-84.3-5c-21.4-1.6-31.9-18.9-27.2-40.4,2.5-11.1,15.1-20.3,30.6-21.1,23.3-1.2,30.3-20.2,29.9-43.6l-0.2-3.4q-7-3.7-13.8-7.9L770,2251c-33.3.6-49.7-38.2-23.2-55.3,54-34.9,146.4-69.2,184.5-78.3l0.6-.3a248.9,248.9,0,0,1-12.6-117.5l60-315.5,17.1-89.7,22.2-116.6h0a194.9,194.9,0,0,0-45.8,61.9,195.9,195.9,0,0,1-12.1-91.8c-29,28-43.4,70.4-37.5,110.3-24.9-52.2-30.8-112.6-20.3-169.4s36.8-110.3,72.6-155.7c27.5-34.9,58.2-64.9,83.6-101.2a279.5,279.5,0,0,0,36.4-73.3h0a294.5,294.5,0,0,0,9.2-35.4,240.6,240.6,0,0,1,11.7-40.5l-1.2-.5c-35.7-28.7-68.4-55.4-104.1-84.1-9.7-7.8-20.2-17-21.5-29.4-1.7-17.5,15.7-30.7,32.2-36.6,30.4-10.8,64.3-9.4,95.3-.4a291.9,291.9,0,0,1,85.2,40.3l0.3,0.4a240.6,240.6,0,0,1,71.6-34.3l7.7-2.8c-7.8-12.3-20.7-26.1-41.9-36,0,0,48-47.3,118.7-5,0,0-13.9-74.7-69.4-76.7,0,0,121.4-43.7,189.4,56,0,0,17-35.7,3.3-51,0,0,76.2,25.4,63.8,109.8l8.6,2.6a240.7,240.7,0,0,1,72.7,30.3l3.4-3.1a291.9,291.9,0,0,1,81.5-47.3c30.1-11.5,63.8-15.8,95-7.7,17,4.4,35.4,16.2,35.2,33.7-0.2,12.5-9.8,22.5-18.9,31.1-33.1,31.6-71.5,64-104.6,95.6Z" fill="none"></path></clipPath><g clip-path="url(#furClipPath)"><path fill="#73ffc3" d="M18.2 11.6H2984.2V2977.46H18.2z"></path><path fill="#73ffc3" d="M731.9 563.3H2241.3V2387.39H731.9z"></path><path fill="#b1aeb9" d="M1886.5,1951c34.5-56.5-4.7-100.8-12.8-109.1a.6.6,0,0,0-.9.6c4.9,18.5,1.5,38.7-2.1,52-11.1,40.4-67.9,29.9-99.9,45.4-23.6,11.4-32.6,31.5-37.4,27.2-2.2-2,.8-4.6.8-4.6,27-30,28-103,39-145,9.7-37.2,48.5-41.5,57.2-42a.5.5,0,0,0,.2-1c-14.1-6.7-78.8-1.7-100.4,76.3-30.3,108.9-69.4,115-71.9,115.3h-.3c-12.9-4.4,33.5-23,28.2-156.6-4.1-102.9,69.5-141.9,90.4-150.9.6-.2.3-1.1-.3-1-87,18.8-150.5,106.7-168.1,145.9s-22,64-34.7,70.6c-3.8-8.2-8.7-24.6-8.7-42.6,0-27.4,5.4-32.7,45.4-94,51.5-79.1,8.8-127.2,1.1-134.9a.5.5,0,0,0-.9.4c16.6,101.7-94.6,122.6-111.5,189-3.4,13.3-8.5,22.9-11.2,25.5a.5.5,0,0,1-.9-.4c.5-12.5,14.5-58.2,4.7-89-6.6-20.5,3.3-24.6,10.6-70.3,5.8-36.3-32.6-56.2-40.3-59.9-.5-.2-1,.3-.7.7,29.9,60.3-30.5,105.4-64.5,129.2-21.4,15-23.5,38-19.6,59.1a.5.5,0,0,1-.8.5l-5.4-2.7c-27-12-22.6-49.2-19.6-69.2s-3.7-81.2-47.7-99.2c-37.6-15.3-46.3-51.6-48.1-61.9,0-.5-.9-.6-1,0-6.2,26.8-7.6,54.3,9.8,65.1,49.8,30.8,44,85.9,24,111h-.1c-33,34.3-50.9,82-30.9,108s27,73,27,85,0,26-6,25-6.9-9.2-6.9-9.2c-3.3-23-11.1-44.9-26.1-62.8-42.4-50.6-20.6-96.7-50-142-35.7-54.9-76.5-30.3-83.1-25.7a.5.5,0,0,0,.2.9c78.5,19.3,44.8,78,26.9,124.8-11.8,30.6,14.2,63,24.3,78.3,4.9,7.5-2,7.7-3.2,7.7h-.3c-49.6-39.6-88.6-10.1-95.7-4a.6.6,0,0,0,.4,1c32.7-2.2,72.6,20.7,80.5,59.1s-89-27-152-39-88.4,50.3-89,51.9h-.1c-32.9,122.4,46.2,180.4,50.2,183.3.2,0,.2.1.2.3l21,94.2v.2l-26.8,114.7a.5.5,0,0,0,.5.7H1951.4a.6.6,0,0,0,.6-.6v-29.4l1.5-61.4v-.2l53.7-117,.2-.2,45-35.7h.1l52.2-58.1a.9.9,0,0,0,0-.7c-120.4-158.9-205.3-132.6-217.5-127.7C1886.7,1952,1886.3,1951.5,1886.5,1951Z"></path><path fill="#cf5be8" d="M870.4,1998.3s67.8-13.8,94.1,43,43,73.4,70.7,56.8l11.9,80.2,1.9,80.4-91.4,22.2s-26.3-97-99.7-110.8c0,0,51.2-11.1,87.3,4.1,0,0-84.5-44.3-103.9-73.4S817.7,2016.3,870.4,1998.3Z"></path><path fill="#cf5be8" d="M2071.9,2135.4c-30,20.7-64.6,38.8-64.6,38.8,36-15.2,87.3-4.1,87.3-4.1-73.5,13.8-99.8,110.8-99.8,110.8l-91.4-22.2-8.4-6.3-24,16.5-22.5,1.5s-4.9-81.5,9-135c25.5-37.5,135-136.5,162-19.5Z"></path><path fill="#cf5be8" d="M1180.5,2280.9l14-87.3s-23.6-124.6-105.3-180c0,0,49.9,108,12.5,152.3s-55.4,22.2-55.4,22.2l2.7,83.1-96.9,18-49.9,83.1,22.2,24.9H1164Z"></path><path fill="#cf5be8" d="M1717.2,2280.9l-7.3-45.4-9.1-13.7,2.4-28.2s23.5-124.6,105.2-180c0,0-49.8,108-12.4,152.3s55.4,22.2,55.4,22.2l-2.8,83.1,97,18,49.8,83.1-22.1,24.9H1733.6Z"></path><path fill="#cf5be8" d="M1201.4,2153.5c36,9.6,49.8,12.4,66.5-43s34.5-56,34.5-56c0,80.7,65.5,146.1,146.2,146.1a146.2,146.2,0,0,0,138.1-98.3s16,6.7,26.5,45.7c9.3,34.6,67.5,6,67.5-59.5l43,254.5H1164.5Z"></path><path fill="#cf5be8" d="M1500.5,2091.4a107.4,107.4,0,0,1-72.4-186.7,113.7,113.7,0,1,0,112.1,179.1A107.1,107.1,0,0,1,1500.5,2091.4Z"></path><path fill="#cf5be8" d="M807.9,1919.4s20.1,41.1,67.2,38.1,125.5-101.3,199.7-97.3c0,0-33-19.9-44.1-47.2-14.5-35.2-57.2-112.4-144.5-95.3S774.8,1882.2,807.9,1919.4Z"></path><path fill="#cf5be8" d="M1818.3,1869.2s29.1-62.2,82.3-50.2,99.4,151.5,157.6,149.5,70.7-72.1,72.2-100.3c6-109.4-89.3-144.5-183.6-136.5C1882.8,1737.2,1824.4,1788.9,1818.3,1869.2Z"></path><path fill="#cf5be8" d="M1030.4,1726.9c-11.3-57,6.5-121.6,6.5-121.6,5.7,54.3,12.7,88.7,24.9,108.7,0,0,7,16.6,33.9,31.4,30.7,17,31.5,44.4,30.7,62.9-.6,13.8-5.7,39.6-5.7,39.6s-11.3-24.7-28.2-37.9C1066.7,1789.8,1041.7,1784.1,1030.4,1726.9Z"></path><path fill="#b1aeb9" d="M1186.2,1460.5s-26.3,16.1-29.8,102c-3.3,83.9,26.8,104,37.8,116,12.4,13.6,38,39,37,69,0,0,25-57-3-132S1155,1523.2,1186.2,1460.5Z"></path><path fill="#b1aeb9" d="M1651.2,1689.5s12-101,61-133,70-50,75-70-9,112-48,140S1665.2,1671.5,1651.2,1689.5Z"></path><path fill="#cf5be8" d="M1736.2,1766.5s13-28,36-49,76-52,88-85,3-71,3-71,37,35,32,98c-5.3,65.5-58,70-70,76S1755.2,1749.5,1736.2,1766.5Z"></path><path fill="#b1aeb9" d="M1583.9,926.3c24.7,0,61.6,13.3,61.6,13.3-14.4-25.7-40.2-51.2-56-65.4,27.8-24.7,44.3-55.6,44.3-89,0-81.6-98-242.2-218.9-242.2s-218.8,160.6-218.8,242.2c0,33.4,16.4,64.3,44.2,89-15.7,14.2-41.6,39.7-55.9,65.4,0,0,36.8-13.3,61.6-13.3s45.7-14,45.7-14,2.7,43.1-16.4,55.2c0,0,26.4,0,57.7-35.5,0,0-3.4,14,21,34.9,15.3,13.2,15.4,25.1,15.3,27.1,0,.1.1.1.2,0,2.4-2.3,24-24.2,17.1-50,.6-.4,15.7,9.9,27.9,49.8,10.2-12.2,19.7-30.5,29-51-6.3,26.7,14.6,51.5,14.6,51.5s-.6-13.4,17.8-27.4c25.6-19.4,21-34.9,21-34.9,31.2,35.5,57.7,35.5,57.7,35.5-19.1-12.1-16.5-55.2-16.5-55.2S1559.1,926.3,1583.9,926.3Z"></path><path fill="#b1aeb9" d="M1603.3,848.8l50.9,36.4,49.3,52.7,49.3,76.6,38.9,63.3c5.2-8.1,1193.7-742.5,1192.5-747.9-2-8.7,0-319.9,0-319.9H1959.8Z"></path><path fill="#b1aeb9" d="M1222.2 857.9L818 10 18.2 10 18.2 913.2 1064.2 1089.7 1103 999.6 1131.2 942.8 1156 913.2 1194.3 877.9 1222.2 857.9z"></path><path fill="#cf5be8" d="M920.7,2083.5s21.9,128,127.9,164.8v13.9H729.3V2163Z"></path><path fill="#cf5be8" d="M2030.9,2083.5s-21.9,128-127.9,164.8v13.9h319.3V2163Z"></path></g></g><g id="shadow" style="mix-blend-mode:multiply"><defs><clipPath id="shadowClipPath"><path d="M1717.4,967.2a241.5,241.5,0,0,1,13.7,36.8l16.7,65.1c7.6,32.4,19.5,65.2,43.6,88.3s53.4,39.9,79.7,60.6c90,71,134.4,191.2,118.8,304.8a216.3,216.3,0,0,0-72.9-76.1,126.4,126.4,0,0,1,25.7,66.1c-17.8-23.2-42.8-40.6-70.5-49.9h0l36,117.2,29.7,96.5,88.4,287.5a248.1,248.1,0,0,1-6.4,155.8l0.8,0.3c47.5,13.8,136.8,46.1,179.8,75.5,26.1,17.8,10.1,55.9-23.2,55.3l-261.5-5.1a246.8,246.8,0,0,1-65.4,28.1h0c2.8,13.3,12.3,21,28.1,21.9,18.2,1,23.7,18.6,24.5,25.5,2.3,21.2-5.8,34.7-27.9,36.9l-91.8,3a53.5,53.5,0,0,1-22.3-4,71.6,71.6,0,0,1-43.1-54.3l-3.5-20.7H1180.9l-5,26.6a71.4,71.4,0,0,1-8.8,23.9c-13.4,22.8-38.9,35.7-65.3,34.1l-84.3-5c-21.4-1.6-31.9-18.9-27.2-40.4,2.5-11.1,15.1-20.3,30.6-21.1,23.3-1.2,30.3-20.2,29.9-43.6l-0.2-3.4q-7-3.7-13.8-7.9L770,2251c-33.3.6-49.7-38.2-23.2-55.3,54-34.9,146.4-69.2,184.5-78.3l0.6-.3a248.9,248.9,0,0,1-12.6-117.5l60-315.5,17.1-89.7,22.2-116.6h0a194.9,194.9,0,0,0-45.8,61.9,195.9,195.9,0,0,1-12.1-91.8c-29,28-43.4,70.4-37.5,110.3-24.9-52.2-30.8-112.6-20.3-169.4s36.8-110.3,72.6-155.7c27.5-34.9,58.2-64.9,83.6-101.2a279.5,279.5,0,0,0,36.4-73.3h0a294.5,294.5,0,0,0,9.2-35.4,240.6,240.6,0,0,1,11.7-40.5l-1.2-.5c-35.7-28.7-68.4-55.4-104.1-84.1-9.7-7.8-20.2-17-21.5-29.4-1.7-17.5,15.7-30.7,32.2-36.6,30.4-10.8,64.3-9.4,95.3-.4a291.9,291.9,0,0,1,85.2,40.3l0.3,0.4a240.6,240.6,0,0,1,71.6-34.3l7.7-2.8c-7.8-12.3-20.7-26.1-41.9-36,0,0,48-47.3,118.7-5,0,0-13.9-74.7-69.4-76.7,0,0,121.4-43.7,189.4,56,0,0,13-40.7-.7-56,0,0,80.2,30.4,67.8,114.8l8.6,2.6a240.7,240.7,0,0,1,72.7,30.3l3.4-3.1a291.9,291.9,0,0,1,81.5-47.3c30.1-11.5,63.8-15.8,95-7.7,17,4.4,35.4,16.2,35.2,33.7-0.2,12.5-9.8,22.5-18.9,31.1-33.1,31.6-71.5,64-104.6,95.6Z" fill="none"></path></clipPath><linearGradient id="shadowGradient" x1="1180.91" y1="2153.98" x2="1714.46" y2="2153.98" gradientUnits="userSpaceOnUse"><stop offset="0" stop-color="gray"></stop><stop offset=".27" stop-color="#7d7d7d"></stop><stop offset=".46" stop-color="#747474"></stop><stop offset=".64" stop-color="#646464"></stop><stop offset=".8" stop-color="#4d4d4d"></stop><stop offset=".95" stop-color="#303030"></stop><stop offset="1" stop-color="#242424"></stop></linearGradient><linearGradient id="shadowGradient2" x1="1698.67" y1="781.55" x2="1698.67" y2="918.52" gradientTransform="matrix(-.98 .19 .19 .98 2599.64 -240.56)" gradientUnits="userSpaceOnUse"><stop offset="0" stop-color="gray"></stop><stop offset=".14" stop-color="#797979"></stop><stop offset=".35" stop-color="#646464"></stop><stop offset=".6" stop-color="#434343"></stop><stop offset=".89" stop-color="#141414"></stop><stop offset="1"></stop></linearGradient><linearGradient id="shadowGradient3" x1="967.21" y1="1454.12" x2="967.21" y2="2254.41" href="#shadowGradient" xlink:href="#shadowGradient"></linearGradient><linearGradient id="shadowGradient4" x1="1971.82" y1="1970.17" x2="1971.82" y2="2305.13" href="#shadowGradient" xlink:href="#shadowGradient"></linearGradient><linearGradient id="shadowGradient5" x1="712.25" y1="955.89" x2="712.25" y2="1092.86" gradientTransform="rotate(8.1 1951.22123894 7715.31858407)" href="#shadowGradient2" xlink:href="#shadowGradient2"></linearGradient><linearGradient id="shadowGradient6" x1="1085.95" y1="963.75" x2="1293.19" y2="963.75" href="#shadowGradient" xlink:href="#shadowGradient"></linearGradient><linearGradient id="shadowGradient7" x1="969.11" y1="1470.94" x2="1062.29" y2="1470.94" href="#shadowGradient" xlink:href="#shadowGradient"></linearGradient><linearGradient id="shadowGradient8" x1="912.44" y1="1442.16" x2="989.13" y2="1442.16" href="#shadowGradient" xlink:href="#shadowGradient"></linearGradient><linearGradient id="shadowGradient9" x1="1296.49" y1="775.18" x2="1404.91" y2="775.18" href="#shadowGradient" xlink:href="#shadowGradient"></linearGradient><linearGradient id="shadowGradient10" x1="1474.19" y1="771.29" x2="1513.42" y2="771.29" href="#shadowGradient" xlink:href="#shadowGradient"></linearGradient><linearGradient id="shadowGradient11" x1="1235.56" y1="826.93" x2="1306.12" y2="826.93" href="#shadowGradient" xlink:href="#shadowGradient"></linearGradient></defs><path fill="none" d="M1.8 0H3001.8V3000H1.8z"></path><g clip-path="url(#shadowClipPath)"><path d="M1213.2,2110.7c-22.2,91.8,60.8,117.5,83.2,119.2,41.2,3.1,203.6,5.6,287.7-7.9,43.8-7,109.2-65.4,87.3-196.3l43,256.8H1180.9Z" opacity=".2" fill="url(#shadowGradient)" style="mix-blend-mode:multiply"></path><path d="M1050.7,1454.1s0.1,2.1.4,5.9a840.4,840.4,0,0,1-6.6,161.1c-17.7,128.4-31.5,243.2-39.3,305.8a909.6,909.6,0,0,0-6.8,98.4v3.4c23.5,26,47.6,88.8,52.6,176.8l1.3,49s-31.3-.8-81-0.8c-62,0-110.8-111.7-79.2-278.2,28.4-149.5,80.7-435.8,80.7-435.8S995.5,1484.1,1050.7,1454.1Z" opacity=".2" fill="url(#shadowGradient3)" style="mix-blend-mode:multiply"></path><path d="M1854.3,2157.4s29.9-91.4,66.3-124.9c-39.4,75,14.1,92.7,28.1,87.7,53.7-19.2,75-66.7,79.2-150l65.3,116.3s-55,256-204,214l-38.7-18.1Z" opacity=".2" fill="url(#shadowGradient4)" style="mix-blend-mode:multiply"></path><path d="M1173.5,887s-88.1-44.3-139.7-28.2c-25,7.8-32,21.9-30.2,37.8,10.8,12.7,29.8,13.9,40.1,29.4,25.8,26.5,71.4,56.2,71.4,56.2l23.8-47.8Z" opacity=".4" fill="url(#shadowGradient2)" style="mix-blend-mode:multiply"></path><path d="M1651.1,875.6s86-48.2,138.3-34.4c25.3,6.7,32.9,20.4,31.9,36.4-10.2,13.1-29.2,15.3-38.7,31.2-24.6,27.7-68.8,59.4-68.8,59.4l-26-46.6Z" opacity=".4" fill="url(#shadowGradient5)" style="mix-blend-mode:multiply"></path><path d="M1293.2,863.8s-138.6,62.4-207.2,228.5c0,0,22.2-217.5,195.8-257.1Z" opacity=".2" fill="url(#shadowGradient6)" style="mix-blend-mode:multiply"></path><path d="M969.1,1536.9c4.2-40.3,20.5-67.8,47.6-97.8,7.3-8,45.5-34.1,45.5-34.1s-3.4,39.7-9,47.6c-7.8,11.2-21.1,13.1-32.8,20.2s-17.7,20.8-26.3,31.3" opacity=".2" fill="url(#shadowGradient7)" style="mix-blend-mode:multiply"></path><path d="M919.5,1556.8c-7.4-38.7-10.4-78.8-2.2-117.4s39.7-89,71.8-111.9c-24.5,65.1-25.7,91.7-34.5,133.2" opacity=".2" fill="url(#shadowGradient8)" style="mix-blend-mode:multiply"></path><path d="M1296.5,714.6c31.1-.1,60.6,17.5,79.5,42.3,16.2,21.3,25.1,47.3,28.9,73.9a4.3,4.3,0,0,1-7.3,3.6c-7-7.3-14.7-14.9-23.1-21.1a97.9,97.9,0,0,1-27-30.4,2.4,2.4,0,0,0-1.9-1.3c-2.1-.1-0.2,2.8.2,1.5" opacity=".2" fill="url(#shadowGradient9)" style="mix-blend-mode:multiply"></path><path d="M1474.2,743.5a212.7,212.7,0,0,1,7.4,81.7,3.3,3.3,0,0,0,6.1,2.2c7-10.6,13.8-20.8,19.4-32.2a59.9,59.9,0,0,0-29.2-81.4" opacity=".2" fill="url(#shadowGradient10)" style="mix-blend-mode:multiply"></path><path d="M1235.6,789.8c18.1-4,38.2-.6,52.6,11.1s21.8,32.2,16.1,49.8c-2.1,6.6-6.6,13.1-13.3,14.9-7.4-16.8-11-37.8-27.4-46.2" opacity=".2" fill="url(#shadowGradient11)" style="mix-blend-mode:multiply"></path></g></g><g id="highlight" style="mix-blend-mode:overlay"><defs><clipPath id="highlightClipPath"><path d="M1717.4,967.2a241.5,241.5,0,0,1,13.7,36.8l16.7,65.1c7.6,32.4,19.5,65.2,43.6,88.3s53.4,39.9,79.7,60.6c90,71,134.4,191.2,118.8,304.8a216.3,216.3,0,0,0-72.9-76.1,126.4,126.4,0,0,1,25.7,66.1c-17.8-23.2-42.8-40.6-70.5-49.9h0l36,117.2,29.7,96.5,88.4,287.5a248.1,248.1,0,0,1-6.4,155.8l0.8,0.3c47.5,13.8,136.8,46.1,179.8,75.5,26.1,17.8,10.1,55.9-23.2,55.3l-261.5-5.1a246.8,246.8,0,0,1-65.4,28.1h0c2.8,13.3,12.3,21,28.1,21.9,18.2,1,23.7,18.6,24.5,25.5,2.3,21.2-5.8,34.7-27.9,36.9l-91.8,3a53.5,53.5,0,0,1-22.3-4,71.6,71.6,0,0,1-43.1-54.3l-3.5-20.7H1180.9l-5,26.6a71.4,71.4,0,0,1-8.8,23.9c-13.4,22.8-38.9,35.7-65.3,34.1l-84.3-5c-21.4-1.6-31.9-18.9-27.2-40.4,2.5-11.1,15.1-20.3,30.6-21.1,23.3-1.2,30.3-20.2,29.9-43.6l-0.2-3.4q-7-3.7-13.8-7.9L770,2251c-33.3.6-49.7-38.2-23.2-55.3,54-34.9,146.4-69.2,184.5-78.3l0.6-.3a248.9,248.9,0,0,1-12.6-117.5l60-315.5,17.1-89.7,22.2-116.6h0a194.9,194.9,0,0,0-45.8,61.9,195.9,195.9,0,0,1-12.1-91.8c-29,28-43.4,70.4-37.5,110.3-24.9-52.2-30.8-112.6-20.3-169.4s36.8-110.3,72.6-155.7c27.5-34.9,58.2-64.9,83.6-101.2a279.5,279.5,0,0,0,36.4-73.3h0a294.5,294.5,0,0,0,9.2-35.4,240.6,240.6,0,0,1,11.7-40.5l-1.2-.5c-35.7-28.7-68.4-55.4-104.1-84.1-9.7-7.8-20.2-17-21.5-29.4-1.7-17.5,15.7-30.7,32.2-36.6,30.4-10.8,64.3-9.4,95.3-.4a291.9,291.9,0,0,1,85.2,40.3l0.3,0.4a240.6,240.6,0,0,1,71.6-34.3l7.7-2.8c-7.8-12.3-20.7-26.1-41.9-36,0,0,48-47.3,118.7-5,0,0-13.9-74.7-69.4-76.7,0,0,121.4-43.7,189.4,56,0,0,13-40.7-.7-56,0,0,80.2,30.4,67.8,114.8l8.6,2.6a240.7,240.7,0,0,1,72.7,30.3l3.4-3.1a291.9,291.9,0,0,1,81.5-47.3c30.1-11.5,63.8-15.8,95-7.7,17,4.4,35.4,16.2,35.2,33.7-0.2,12.5-9.8,22.5-18.9,31.1-33.1,31.6-71.5,64-104.6,95.6Z" fill="none"></path></clipPath><linearGradient id="highlightGradient" x1="1982.83" y1="2256.39" x2="1982.83" y2="1456.14" gradientUnits="userSpaceOnUse"><stop offset="0" stop-color="#fff" stop-opacity="0"></stop><stop offset=".72" stop-color="#fff"></stop></linearGradient><linearGradient id="highlightGradient2" x1="1676.83" y1="1173.88" x2="1676.83" y2="834.22" href="#highlightGradient" xlink:href="#highlightGradient"></linearGradient><linearGradient id="highlightGradient3" x1="908.88" y1="1853.92" x2="1039" y2="1853.92" href="#highlightGradient" xlink:href="#highlightGradient"></linearGradient><linearGradient id="highlightGradient4" x1="2116.32" y1="2248.97" x2="2116.32" y2="2113.28" href="#highlightGradient" xlink:href="#highlightGradient"></linearGradient><linearGradient id="highlightGradient5" x1="1044.74" y1="2253.08" x2="1044.74" y2="2117.39" gradientTransform="matrix(-1 0 0 1 1878.82 0)" href="#highlightGradient" xlink:href="#highlightGradient"></linearGradient><linearGradient id="highlightGradient6" x1="1793.84" y1="905.71" x2="1793.84" y2="719.86" gradientTransform="rotate(-43.1 1804.48754992 883.27524864)" href="#highlightGradient" xlink:href="#highlightGradient"></linearGradient><linearGradient id="highlightGradient7" x1="1388.35" y1="547.46" x2="1388.35" y2="361.61" gradientTransform="matrix(-.7 -.71 -.71 .7 2379.32 1527.44)" href="#highlightGradient" xlink:href="#highlightGradient"></linearGradient><linearGradient id="highlightGradient8" x1="1791.24" y1="1299.2" x2="2064.4" y2="1299.2" href="#highlightGradient" xlink:href="#highlightGradient"></linearGradient><linearGradient id="highlightGradient9" x1="1854.92" y1="1450.16" x2="1941.81" y2="1450.16" href="#highlightGradient" xlink:href="#highlightGradient"></linearGradient></defs><g clip-path="url(#highlightClipPath)" opacity=".3"><path d="M1886.6,1468.5c56.9,249.1,235.5,405.7,252.9,497.1,21.8,114.7-96.5,75.8-117.2,147.7-9.5,32.9-72.5,107.6-72.5,107.6l-61.1,35.5s127.4-81.3,81.2-286c-19.5-86.7-79-277.4-111.6-379.9q-18.6-58.4-31.3-118.3-1.6-7.5-3.5-16" fill="url(#highlightGradient)" style="mix-blend-mode:overlay"></path><path d="M1682.7,915.9c-20.7-36.8-78.6-66.4-129.5-81.7l-9,14.9s58.8,19.7,82.5,49.4l4.1,5c7.9,9.3,40.8,52.9,96.8,193.7,12.2,30.8,56.9,51.2,79.7,75.2C1828,1194.5,1701.7,949.7,1682.7,915.9Z" fill="url(#highlightGradient2)"></path><path d="M1039,1462.1l-12.2,8.1-25,16.7s-141,524.6-75.7,624c0,0,42.1,98.3,110.7,134.9-66.7-90.9-116.7-144.9-96.7-256.9S1039,1462.1,1039,1462.1Z" fill="url(#highlightGradient3)"></path><path d="M1999.2,2162.4s113.2,21.1,98.4,83.6l92.6,3,43.3-6.5-4.3-68.5-206.8-60.7Z" fill="url(#highlightGradient4)"></path><path d="M951.2,2166.5s-113.2,21.1-98.4,83.6l-92.6,3-43.3-6.5,4.3-68.5,206.8-60.7Z" opacity=".7" fill="url(#highlightGradient5)"></path><path d="M1632.5,868.9s75-44.5,115.2-47c43.6-2.6,70.4-2,85.9,39,11.7,31,36.1-11.5,36.1-11.5l-52.5-90-204,80Z" fill="url(#highlightGradient6)"></path><path d="M1187.5,883.7s-61-40.2-101-44.3c-43.4-4.5-70.2-5-87.5,35.3-13,30.4-35.6-13.1-35.6-13.1l56.3-87.7,200.4,88.7Z" fill="url(#highlightGradient7)"></path><path d="M1791.2,1167.2c106.3,83.4,177.8,209.7,194.8,343.8,1,8.1,3.2,17.8,10.9,20.2s14.1-3.7,18.9-9.4c19.4-23.4,30-52.9,37.1-82.4,16.5-68.3,16-141.6-8-207.7s-72.5-124.2-136.4-153.5c-19.8-9.1-42.7-15.4-63.2-8" fill="url(#highlightGradient8)" style="mix-blend-mode:overlay"></path><path d="M1855.7,1407.2a2.5,2.5,0,0,1,3.2-3.9c5,3.3,9.9,6.6,15,9.6,17.1,10.2,34.6,20.6,47.5,35.8,5,5.9,28.5,42.7,17.5,48.1s-29.3-32.2-34.7-37.6C1888.1,1443.3,1872.8,1423.7,1855.7,1407.2Z" fill="url(#highlightGradient9)" style="mix-blend-mode:overlay"></path></g></g><g id="bodyMask"><path d="M1717.4,967.2a241.5,241.5,0,0,1,13.7,36.8l16.7,65.1c7.6,32.4,19.5,65.2,43.6,88.3s53.4,39.9,79.7,60.6c90,71,134.4,191.2,118.8,304.8a216.3,216.3,0,0,0-72.9-76.1,126.4,126.4,0,0,1,25.7,66.1c-17.8-23.2-42.8-40.6-70.5-49.9h0l36,117.2,29.7,96.5,88.4,287.5a248.1,248.1,0,0,1-6.4,155.8l0.8,0.3c47.5,13.8,136.8,46.1,179.8,75.5,26.1,17.8,10.1,55.9-23.2,55.3l-261.5-5.1a246.8,246.8,0,0,1-65.4,28.1h0c2.8,13.3,12.3,21,28.1,21.9,18.2,1,23.7,18.6,24.5,25.5,2.3,21.2-5.8,34.7-27.9,36.9l-91.8,3a53.5,53.5,0,0,1-22.3-4,71.6,71.6,0,0,1-43.1-54.3l-3.5-20.7H1180.9l-5,26.6a71.4,71.4,0,0,1-8.8,23.9c-13.4,22.8-38.9,35.7-65.3,34.1l-84.3-5c-21.4-1.6-31.9-18.9-27.2-40.4,2.5-11.1,15.1-20.3,30.6-21.1,23.3-1.2,30.3-20.2,29.9-43.6l-0.2-3.4q-7-3.7-13.8-7.9L770,2251c-33.3.6-49.7-38.2-23.2-55.3,54-34.9,146.4-69.2,184.5-78.3l0.6-.3a248.9,248.9,0,0,1-12.6-117.5l60-315.5,17.1-89.7,22.2-116.6h0a194.9,194.9,0,0,0-45.8,61.9,195.9,195.9,0,0,1-12.1-91.8c-29,28-43.4,70.4-37.5,110.3-24.9-52.2-30.8-112.6-20.3-169.4s36.8-110.3,72.6-155.7c27.5-34.9,58.2-64.9,83.6-101.2a279.5,279.5,0,0,0,36.4-73.3h0a294.5,294.5,0,0,0,9.2-35.4,240.6,240.6,0,0,1,11.7-40.5l-1.2-.5c-35.7-28.7-68.4-55.4-104.1-84.1-9.7-7.8-20.2-17-21.5-29.4-1.7-17.5,15.7-30.7,32.2-36.6,30.4-10.8,64.3-9.4,95.3-.4a291.9,291.9,0,0,1,85.2,40.3l0.3,0.4a240.6,240.6,0,0,1,71.6-34.3l7.7-2.8c-7.8-12.3-20.7-26.1-41.9-36,0,0,48-47.3,118.7-5,0,0-13.9-74.7-69.4-76.7,0,0,121.4-43.7,189.4,56,0,0,17-35.7,3.3-51,0,0,76.2,25.4,63.8,109.8l8.6,2.6a240.7,240.7,0,0,1,72.7,30.3l3.4-3.1a291.9,291.9,0,0,1,81.5-47.3c30.1-11.5,63.8-15.8,95-7.7,17,4.4,35.4,16.2,35.2,33.7-0.2,12.5-9.8,22.5-18.9,31.1-33.1,31.6-71.5,64-104.6,95.6Z" fill="none"></path></g><g id="body"><path d="M1850.5 2273.9c130.6-34.8 214.8-171.9 175.8-309.9l-153.4-498.9M1180.9 2282.4L1714.5 2282.4M1016.8 1486.8l-97.5 512.7c-14.2 107.9 42.3 207 131.5 254.1M1018.5 1477.8L1016.8 1486.8" fill="none" stroke="#31323d" stroke-linecap="round" stroke-miterlimit="10" stroke-width="12.5"></path><path d="M1228.6,2040.8c-1.7,15.3-3.8,30.4-6,45.6l-3.5,22.7-3.8,22.6c-2.6,15.1-5.4,30.1-8.1,45.2l-8.3,45.1-16.6,90.3a76.3,76.3,0,0,1-3.5,12.1,77.5,77.5,0,0,1-5.4,11.4,75.5,75.5,0,0,1-16,19.4,78.7,78.7,0,0,1-45.9,18.8l-6.3.2h-6.1l-11.5-.7-22.9-1.3-45.8-2.8h-4.7l-1.8-.3a44.1,44.1,0,0,1-6.7-1.7,35.7,35.7,0,0,1-12.3-7.3,34.7,34.7,0,0,1-8.3-11.7,40.4,40.4,0,0,1-3.1-13.5,50.7,50.7,0,0,1,1-13.2l0.2-.8v-1.7l0.3-1.1a26.9,26.9,0,0,1,1.5-3.6,30.2,30.2,0,0,1,4.1-6.2,37.9,37.9,0,0,1,11-8.8,45.9,45.9,0,0,1,12.7-4.5,49,49,0,0,1,6.6-.9l2.7-.2,2.1-.3a22,22,0,0,0,4.3-1.2,18.5,18.5,0,0,0,3.8-1.9c4.6-3,7.7-8.4,9.4-14.8a70.5,70.5,0,0,0,1.8-20.8l-0.9-22.9-1.9-45.9c-0.6-15.3-1.3-30.6-1.8-45.9v0.5c-0.6-5-1.3-9.9-2-14.9-0.4-2.5-.8-4.9-1.2-7.4s-0.9-4.9-1.4-7.3-1-4.9-1.6-7.3-1.2-4.8-1.8-7.2q-1.9-7.2-4.4-14.2c-0.8-2.3-1.7-4.6-2.6-6.9s-1.8-4.6-2.9-6.8l-1.5-3.4-1.6-3.3-1.7-3.3-1.8-3.3-1.8-3.2-1.9-3.2-4-6.3c-1.4-2.1-2.8-4.1-4.3-6.2l-2.2-3-2.3-3h0a2.2,2.2,0,0,1,3.4-2.9l5.4,5.6q2.6,2.9,5.1,5.9c1.7,2,3.3,4,4.8,6.1l2.3,3.2,2.2,3.2c1.5,2.2,2.9,4.3,4.2,6.6l2,3.4,1.9,3.4q1.9,3.4,3.5,7c1.1,2.4,2.2,4.7,3.2,7.2q3,7.2,5.4,14.7c1.6,5,3,10,4.2,15q0.9,3.8,1.7,7.6c0.5,2.5,1.1,5.1,1.5,7.6,0.9,5.1,1.7,10.2,2.4,15.3v0.5c0.9,15.3,1.6,30.6,2.4,45.8l2.3,45.8,1.1,22.9a94.4,94.4,0,0,1-.1,12.3,71.8,71.8,0,0,1-1.9,12.5,54.5,54.5,0,0,1-2,6.3,42.8,42.8,0,0,1-3.1,6.2,33.3,33.3,0,0,1-9.8,10.4,35.1,35.1,0,0,1-13.2,5.3l-3.5.5-3,.2a35,35,0,0,0-4.7.6,31.9,31.9,0,0,0-8.8,3.2,23.9,23.9,0,0,0-6.9,5.5,16.1,16.1,0,0,0-2.2,3.3,13,13,0,0,0-1.2,3.7,36.6,36.6,0,0,0-.7,9.6,26.2,26.2,0,0,0,2,8.7,20.4,20.4,0,0,0,4.9,6.9,21.4,21.4,0,0,0,7.3,4.3,30.1,30.1,0,0,0,4.4,1.1l1,0.2h3.9l45.8,2.7,22.9,1.4,11.5,0.7h10.5a64.5,64.5,0,0,0,37.6-15.2,61.4,61.4,0,0,0,13.1-15.7,65,65,0,0,0,7.4-19.2l17.4-90.1,8.7-45.1c2.9-15,5.8-30,8.8-45l4.7-22.5,5-22.4c3.4-14.9,7-29.8,11-44.6A2.2,2.2,0,0,1,1228.6,2040.8Z" fill="#31323d"></path><path d="M1095.2 2319.6h-.5l-1.7.2a18.6 18.6 0 0 0-5.8 2 22.5 22.5 0 0 0-6.7 5.5 30.2 30.2 0 0 0-2.9 4 38.9 38.9 0 0 0-2.4 4.6l-.5 1.2-.5 1.2-.5 1.2-.4 1.3c-.5 1.7-.9 3.4-1.3 5l-.5 2.4c-.2.8-.3 1.6-.4 2.4s-.4 3-.6 4.4-.2 2.6-.3 3.7-.1 2.1-.2 2.9v2.7a6.3 6.3 0 1 1-12.5-.6 6.9 6.9 0 0 1 .1-.8l.5-2.7c.2-.9.3-1.9.6-3.1s.5-2.6.9-4.1.8-3.1 1.3-4.8l.8-2.6.9-2.7c.7-1.8 1.4-3.7 2.3-5.5l.6-1.4.7-1.4.7-1.4.8-1.4a46.9 46.9 0 0 1 3.6-5.2 37.5 37.5 0 0 1 4.2-4.5 28.8 28.8 0 0 1 9.4-5.8 23.9 23.9 0 0 1 7.7-1.5h3.1A2.2 2.2 0 1 1 1095.2 2319.6zM1052.7 2314.9h-.6l-1.6.4-2.5.9-.7.3-.8.4-1.6.9-1.7 1.1-1.7 1.3-.9.7-.8.8-1.6 1.7-1.5 2-.7 1-.6 1.1-1.3 2.2-1.1 2.4c-.3.8-.7 1.6-1 2.4l-.8 2.5-.8 2.4-.6 2.5a42.3 42.3 0 0 0-1 4.7l-.6 4.3a35.4 35.4 0 0 0-.3 3.7l-.2 2.8-.2 2.5v.4a6.3 6.3 0 1 1-12.5-.8 6.9 6.9 0 0 1 .1-.8l.5-2.7.6-3.1c.3-1.2.4-2.5.9-4l1.3-4.7a51.3 51.3 0 0 1 1.8-5.2l1-2.7 1.3-2.7 1.3-2.7c.5-.9 1.1-1.8 1.6-2.7l1.7-2.6 1.9-2.4.9-1.2 1.1-1.1 2.1-2.1 2.2-1.8 1.1-.9 1.2-.7 2.2-1.4 2.2-1.1 2.1-.8 1-.4 1-.3a26.5 26.5 0 0 1 3.2-.7l2.2-.2h.8A2.2 2.2 0 1 1 1052.7 2314.9zM1673.7 2025.2l2.2 9.4c1.4 6.1 3.4 15.1 5.8 26.6 1.2 5.7 2.5 12.1 3.9 19l4.4 22.5 4.8 25.6 5 28.4 23.3 135.3c1.1 6.1 2 12.8 3.6 17.8a63.3 63.3 0 0 0 7.2 15.7 65.1 65.1 0 0 0 25.9 23.4l4.1 1.9 1.1.4 1 .4 2 .7a45.4 45.4 0 0 0 8.4 1.7l4.3.3h4.6l10-.3 40.1-1.4 39.4-1.2 2.5-.3 1.2-.2.9-.2 1.9-.4 1.9-.6a21.7 21.7 0 0 0 6.5-3.5 17 17 0 0 0 4.3-5.4c.2-.6.6-1.1.7-1.7l.6-1.8a30.4 30.4 0 0 0 .8-3.9 37.8 37.8 0 0 0 .4-4.1c0-.7 0-1.4 0-2.1s0-1.4-.1-2.2l-.2-2.2v-.3a.3.3 0 1 1 0-.1v-1.6l-.2-.8-.2-.9c-.1-.6-.4-1.3-.6-1.9-1.7-5-4.7-9.3-8.4-11.7a17.3 17.3 0 0 0-6.4-2.3l-1.8-.2-2.6-.2h-1.2l-1.5-.2-2.9-.5a39.5 39.5 0 0 1-10.9-4.2 30.1 30.1 0 0 1-9.1-8 34 34 0 0 1-5.3-10.4 47.2 47.2 0 0 1-1.9-10.7c-.1-.9-.1-1.7-.1-2.6s0-1.8 0-2.6v-4.6l.2-9.1.8-35.4.2-8.6v-3.7c0-.8 0-.4 0-.6v-.3l.3-4.2.3-4.2c.1-1.4.2-2.7.4-4.2l1-8.4a250.4 250.4 0 0 1 6.4-31.5 277 277 0 0 1 9.1-28l2.7-6.4c.9-2.1 1.7-4.2 2.7-6.2l2.8-5.9c.9-1.9 1.8-3.9 2.8-5.7l2.9-5.4 1.4-2.6 1.5-2.5 2.9-4.9c.9-1.6 1.8-3.2 2.8-4.7l5.6-8.7 5.4-7.7 2.6-3.5 2.5-3.2c1.6-2.1 3.1-4.1 4.6-5.8l4.1-4.9 3.5-4 6.6-7.1a2.2 2.2 0 0 1 3.4 2.8h0l-5.6 7.8c-3.6 5.1-8.8 12.6-14.9 22.5l-4.7 7.8-4.8 8.8c-.9 1.5-1.7 3.1-2.5 4.7l-2.5 4.9-1.3 2.5-1.2 2.6-2.5 5.4a290.9 290.9 0 0 0-17.7 50.6l-.9 3.6-.4 1.8-.4 1.8-1.5 7.4-.4 1.9-.3 1.9-.6 3.8-.6 3.9-.3 1.9-.2 1.9-.9 7.8c-.2 1.3-.2 2.7-.3 4.1l-.3 4.2-.3 4.2v.3c0-.1 0 .5 0-.1v12.3l-.5 35.4v13.7c0 .8 0 1.4 0 2.1s0 1.4.1 2a33.7 33.7 0 0 0 1.4 7.5 20.3 20.3 0 0 0 3.2 6.2c2.7 3.6 6.9 5.8 12 6.9l1.8.3.9.2h1.2l2.2.2 3 .3a31.3 31.3 0 0 1 11.7 4.2 31.8 31.8 0 0 1 9 8.5 40.3 40.3 0 0 1 5.4 10.5c.3.9.6 1.8.8 2.8l.4 1.4.3 1.6v2.9l.2 2.7c.1.9.1 1.8.1 2.8s.1 1.8 0 2.8a52 52 0 0 1-.5 5.7 44.4 44.4 0 0 1-1.2 5.8l-1 2.9c-.3 1-.8 1.9-1.3 2.9a31.3 31.3 0 0 1-7.9 10.1 35.8 35.8 0 0 1-10.9 6l-2.8.9-3 .7-1.5.3-1.3.2-2.5.3h-5.7l-5 .2-10 .4-20.1.7-40.1 1.3-10 .3h-5.4l-5.6-.4a59.7 59.7 0 0 1-11-2.3l-2.7-.9-1.4-.5-1.2-.5-4.9-2.3a79.2 79.2 0 0 1-31.4-28.6 77.2 77.2 0 0 1-8.7-19.2l-.7-2.6-.3-1.3c-.1-.4-.2-.9-.3-1.3l-.5-2.3-.2-1.2v-1.4l-1.5-9.3-22-135.6-4.5-28.5-3.8-25.7-3.2-22.7c-1-7-1.8-13.4-2.5-19.3-1.5-11.6-2.5-20.8-3.2-27.1l-1-9.6A2.2 2.2 0 0 1 1673.7 2025.2z" fill="#31323d"></path><path d="M1783.2 2307.4h3.2a34.8 34.8 0 0 1 8 1.7 33.5 33.5 0 0 1 5.1 2.1 34.2 34.2 0 0 1 5.3 3.3 37.9 37.9 0 0 1 5 4.5c.7.9 1.5 1.7 2.2 2.7l1 1.4 1 1.5a46.8 46.8 0 0 1 3.3 6.1 56.5 56.5 0 0 1 2.4 6.2c.4 1 .6 2 .9 3s.5 2 .7 2.9l.6 2.8.4 2.6c.3 1.7.4 3.2.6 4.6s.3 2.5.3 3.5l.2 3.1a6.3 6.3 0 0 1-12.5.8 6.4 6.4 0 0 1 0-.7v-.3l.2-2.7c.1-.9.1-1.9.1-3.1s.1-2.6 0-4v-2.3l-.2-2.4c-.1-.8-.2-1.7-.3-2.5s-.2-1.8-.4-2.6a47.1 47.1 0 0 0-1.3-5.3 38.1 38.1 0 0 0-2.1-5.2l-.6-1.3-.7-1.2c-.4-.8-1-1.6-1.5-2.3a30.5 30.5 0 0 0-3.5-4.1 29.3 29.3 0 0 0-8-5.5 29.5 29.5 0 0 0-6.6-2.2l-1.9-.3h-.7A2.2 2.2 0 0 1 1783.2 2307.4zM1833.8 2304.2h3.2a34.8 34.8 0 0 1 8 1.7 33.5 33.5 0 0 1 5.1 2.1 34.2 34.2 0 0 1 5.3 3.3 37.9 37.9 0 0 1 5 4.5c.7.9 1.5 1.7 2.2 2.7l1 1.4 1 1.5a46.8 46.8 0 0 1 3.3 6.1 56.6 56.6 0 0 1 2.4 6.2c.4 1 .6 2 .9 3s.5 2 .7 2.9l.6 2.8.4 2.6c.3 1.7.4 3.2.6 4.6s.3 2.5.3 3.5l.2 3.1a6.3 6.3 0 1 1-12.5.1v-.3l.2-2.7c.1-.9.1-1.9.1-3.1s.1-2.6 0-4v-2.3l-.2-2.4c-.1-.8-.2-1.7-.3-2.5s-.2-1.8-.4-2.6a47.1 47.1 0 0 0-1.3-5.3 38 38 0 0 0-2.1-5.2l-.6-1.3-.7-1.2c-.4-.8-1-1.6-1.5-2.3a30.5 30.5 0 0 0-3.5-4.1 29.3 29.3 0 0 0-8-5.5 29.5 29.5 0 0 0-6.6-2.2l-1.9-.3h-.7A2.2 2.2 0 0 1 1833.8 2304.2z" fill="#31323d"></path><path d="M931.3,2117.4c-38.1,9.1-130.4,43.4-184.5,78.3-26.5,17.1-10.1,55.9,23.2,55.3l280.4-5.5" fill="none" stroke="#31323d" stroke-linecap="round" stroke-miterlimit="10" stroke-width="12.5"></path><path d="M840.5 2200.1l-.7.2-2 .6-3.1 1-4 1.5-4.5 2.1a49.4 49.4 0 0 0-4.7 2.8 36 36 0 0 0-4.4 3.5 26.3 26.3 0 0 0-3.7 4.2l-.8 1.1-.7 1.2a21.4 21.4 0 0 0-1.1 2.4c-.2.4-.3.8-.4 1.2a8.9 8.9 0 0 0-.3 1.2 18.1 18.1 0 0 0-.4 2.4v1.2c0 .4 0 .8 0 1.2v1.2c0 .4.1.8.1 1.2a15.6 15.6 0 0 0 .3 2.2c.2.7.3 1.4.5 2.1a36.6 36.6 0 0 0 1.2 3.6 29.8 29.8 0 0 0 1.2 2.8l1.2 2.4.2.3a6.3 6.3 0 0 1-11.3 5.5l-.3-.7-1.1-3.1c-.4-1-.7-2.2-1.1-3.7a48 48 0 0 1-1-4.9c-.1-.9-.2-1.9-.3-2.9a24.9 24.9 0 0 1-.1-3.2c0-.5 0-1.1 0-1.7l.2-1.7c.1-.6.1-1.2.2-1.7l.4-1.8a27.7 27.7 0 0 1 1-3.5 16.1 16.1 0 0 1 .7-1.7l.8-1.7a30.5 30.5 0 0 1 2-3.2l1.1-1.5 1.2-1.4a34.5 34.5 0 0 1 5.4-4.9 43.4 43.4 0 0 1 5.8-3.6 56.1 56.1 0 0 1 5.7-2.6l5.2-1.8 4.4-1.2 3.5-.7 2.3-.3h.8a2.2 2.2 0 0 1 .8 4.4h-.1zM793 2202.1h-.6l-1.7.5a38.1 38.1 0 0 0-5.9 2.5 32.6 32.6 0 0 0-3.6 2.2 29.2 29.2 0 0 0-3.5 2.9 23.5 23.5 0 0 0-2.9 3.7 18.7 18.7 0 0 0-2 4.2 21.2 21.2 0 0 0-.6 2.2c-.1.8-.3 1.5-.3 2.3a24.7 24.7 0 0 0 .1 4.6 34.5 34.5 0 0 0 .8 4.3c.4 1.4.7 2.7 1.2 3.9l.6 1.7.7 1.5.6 1.3.6 1.1 1.1 2.1v.2a6.3 6.3 0 0 1-11.2 5.6l-.3-.8-.9-2.7-.5-1.4-.5-1.7-.5-1.9c-.2-.7-.3-1.4-.5-2.2s-.6-3.3-.8-5.1a44.7 44.7 0 0 1-.2-5.9 34.2 34.2 0 0 1 .8-6.3c.2-1.1.6-2.1.9-3.2a29.7 29.7 0 0 1 1.3-3.1 26.9 26.9 0 0 1 3.6-5.6 31 31 0 0 1 4.5-4.3 35.8 35.8 0 0 1 4.8-3 38.6 38.6 0 0 1 4.6-2 43.3 43.3 0 0 1 7.1-2l2-.3h.8a2.2 2.2 0 0 1 .8 4.4H793z" fill="#31323d"></path><path d="M2020.7,2120.2c47.5,13.8,136.8,46.1,179.8,75.5,26.1,17.8,10.1,55.9-23.2,55.3l-261.6-5.1" fill="none" stroke="#31323d" stroke-linecap="round" stroke-miterlimit="10" stroke-width="12.5"></path><path d="M2107.6 2193.7h.8l2.3.4 3.5.8 4.5 1.4 5.2 2a58.4 58.4 0 0 1 5.6 2.8 45.8 45.8 0 0 1 5.7 3.8 36.7 36.7 0 0 1 5.3 5.1l1.2 1.5 1.1 1.6a31 31 0 0 1 1.9 3.3c.3.6.5 1.2.8 1.7s.5 1.2.7 1.8l.6 1.8.3.9.2.9a26.4 26.4 0 0 1 .6 3.5 25.1 25.1 0 0 1 .2 3.4 42.1 42.1 0 0 1-.4 6.2 50.3 50.3 0 0 1-1 5c-.4 1.5-.7 2.8-1.1 3.7l-1.1 3.2a6.3 6.3 0 0 1-11.8-4.1l.3-.7.2-.3 1.2-2.4c.4-.8.7-1.7 1.2-2.8s.8-2.3 1.2-3.7a31.5 31.5 0 0 0 .8-4.4 15.7 15.7 0 0 0 .1-2.4 16.7 16.7 0 0 0-.1-2.5V2224l-.2-1.3c-.1-.4-.2-.8-.4-1.3a12.8 12.8 0 0 0-.4-1.3 21.8 21.8 0 0 0-1.1-2.5l-.7-1.2-.8-1.2a28.5 28.5 0 0 0-3.7-4.4 38.4 38.4 0 0 0-4.4-3.8 51.5 51.5 0 0 0-4.7-3l-4.5-2.3a66.6 66.6 0 0 0-7.1-2.9l-2-.6-.7-.2h-.1A2.2 2.2 0 0 1 2107.6 2193.7zM2155.1 2195.7h.8l2.1.4a44.7 44.7 0 0 1 7.1 2.4 40.4 40.4 0 0 1 4.5 2.3 38.2 38.2 0 0 1 4.7 3.3 33.1 33.1 0 0 1 4.4 4.5 30 30 0 0 1 4.8 8.8c.4 1.1.6 2.2.9 3.2s.4 2.2.6 3.3.3 2.2.2 3.2.1 2.1 0 3.1l-.2 2.9c-.3 1.8-.5 3.6-.8 5.2l-.5 2.3-.6 2-.5 1.8-.5 1.4-.9 2.7a6.3 6.3 0 0 1-11.8-4.1l.3-.7v-.3l1.1-2.2.6-1.2.6-1.4.7-1.6.6-1.7c.5-1.2.8-2.6 1.2-4l.4-2.2c.2-.7.2-1.5.3-2.3s.1-1.5.1-2.3-.1-1.6-.1-2.4-.2-1.6-.3-2.4a20.2 20.2 0 0 0-.6-2.3 20.6 20.6 0 0 0-2-4.4 25.7 25.7 0 0 0-2.9-3.9 31.5 31.5 0 0 0-3.5-3.2 34.4 34.4 0 0 0-3.6-2.4 39.4 39.4 0 0 0-5.9-2.9l-1.7-.6-.6-.2H2154A2.2 2.2 0 0 1 2155.1 2195.7zM1288.7 864.1l-1.9-4.8-1-2.4-1-2.3-2.3-4.6-2.4-4.4-1.3-2.2-1.3-2.1-1.3-2.1-1.4-2.1c-.9-1.4-1.9-2.7-2.9-4s-2.1-2.6-3.2-3.8l-1.6-1.9-1.7-1.8-3.6-3.5-3.7-3.3-3.9-3.1-2-1.5-2.1-1.4-4.2-2.8-2.1-1.3-2.2-1.3-4.4-2.5-.8-.5a6.1 6.1 0 0 1-2.1-8.3 6.3 6.3 0 0 1 1.1-1.4h0l.9-.9.8-.7 1.7-1.4 3.4-2.6q3.5-2.5 7.1-4.7a101.1 101.1 0 0 1 15.3-7.4 98.2 98.2 0 0 1 33.2-6.6 106 106 0 0 1 33.4 4.7q4 1.2 7.9 2.7t7.7 3.2c2.5 1.1 5 2.4 7.5 3.7l3.6 2 3.6 2.1-9.4 6.5-.3-1.5-.4-1.6-.8-3.2q-.9-3.2-1.9-6.4c-1.4-4.2-2.9-8.4-4.7-12.5a106.9 106.9 0 0 0-13.1-22.8 64.2 64.2 0 0 0-18.7-16.9 50.6 50.6 0 0 0-23.6-6.7h0a6.2 6.2 0 0 1-1.8-12.1l3.4-1.1 3.3-1 6.6-1.7q6.7-1.6 13.4-2.8a217.1 217.1 0 0 1 27.2-3 195.4 195.4 0 0 1 27.4.6 170.2 170.2 0 0 1 27.1 4.7q6.7 1.7 13.2 4c4.3 1.5 8.6 3.3 12.8 5.2s8.3 4 12.3 6.4 7.9 4.8 11.6 7.5c1.9 1.3 3.7 2.8 5.5 4.2s3.6 2.9 5.3 4.4c3.5 3 6.8 6.3 10 9.5s6.2 6.8 9.1 10.4 5.6 7.3 8.2 11.1l-10.8.8 1.2-2.8 1.2-2.9c.8-2 1.4-4 2.1-6a83.6 83.6 0 0 0 2.9-12.1 42.4 42.4 0 0 0 .4-11.6 20.8 20.8 0 0 0-1.2-5 13 13 0 0 0-2.3-3.8h0a6.2 6.2 0 0 1 6.6-10.1h.1l1.5.5 1.3.5 2.6 1 5 2.2c3.3 1.6 6.5 3.3 9.6 5.1a113.6 113.6 0 0 1 17.5 12.9q4.1 3.7 7.8 7.8a95.7 95.7 0 0 1 6.9 8.6 94.1 94.1 0 0 1 10.7 19.3 100.9 100.9 0 0 1 3.5 10.5 98.6 98.6 0 0 1 2.3 10.8 104.1 104.1 0 0 1 1.1 10.9c.2 3.6.1 7.3 0 10.9s-.5 7.2-1 10.8c-.3 1.8-.5 3.6-.9 5.3s-.8 3.5-1.2 5.2a81.7 81.7 0 0 1-3.5 10.1c-.7 1.6-1.5 3.2-2.3 4.8s-1.7 3.1-2.7 4.6a2.6 2.6 0 0 1-4.7-1.5h0c0-1.8.2-3.5.4-5.2s.3-3.4.5-5.1l1.1-9.9c.2-1.6.4-3.3.5-4.9s.2-1.6.3-2.4l.2-2.4c.3-3.2.5-6.5.5-9.7s-.1-6.4-.3-9.6a93.1 93.1 0 0 0-1.3-9.5 84.7 84.7 0 0 0-2.2-9.2 86.9 86.9 0 0 0-3.2-8.9 94 94 0 0 0-4.2-8.5 84.6 84.6 0 0 0-5.1-8 93.8 93.8 0 0 0-5.9-7.4q-3.2-3.6-6.7-6.8c-2.3-2.2-4.8-4.2-7.3-6.2s-5.2-3.8-7.9-5.6-5.5-3.4-8.3-5l-4.3-2.2-2.2-1-1.1-.5-.9-.4 6.7-10.1h0a25.5 25.5 0 0 1 4.6 7.6 33.2 33.2 0 0 1 2 8 54.6 54.6 0 0 1-.5 15.1 96 96 0 0 1-3.4 13.9q-1.1 3.4-2.3 6.7l-1.3 3.3-1.5 3.4a6.2 6.2 0 0 1-10.7 1h-.1c-2.4-3.5-4.9-7-7.6-10.3s-5.5-6.5-8.4-9.6-6-6-9.2-8.8c-1.6-1.4-3.2-2.7-4.9-4.1s-3.3-2.6-5.1-3.8a136.2 136.2 0 0 0-45.8-21.2 157.7 157.7 0 0 0-25.2-4.3 182.9 182.9 0 0 0-25.7-.5 204.7 204.7 0 0 0-25.6 2.9q-6.4 1.1-12.6 2.6l-6.2 1.6-3 .9-2.9.9-1.9-12.1a69.4 69.4 0 0 1 7.7.7 61.3 61.3 0 0 1 7.6 1.6 59.6 59.6 0 0 1 7.3 2.6 61.6 61.6 0 0 1 6.9 3.4 70.1 70.1 0 0 1 12.3 9 85.8 85.8 0 0 1 10.1 11.1 119.3 119.3 0 0 1 14.6 25.4q2.9 6.7 5.1 13.6 1.1 3.5 2.1 7l.9 3.5.4 1.8.4 1.9a6.2 6.2 0 0 1-9.2 6.6h-.1l-3.3-1.9-3.3-1.8-6.8-3.4-7-2.9-7.1-2.5a93.5 93.5 0 0 0-29.5-4.2 85.7 85.7 0 0 0-29 5.8 88.7 88.7 0 0 0-13.4 6.5c-2.1 1.3-4.2 2.6-6.2 4.1l-2.9 2.2-1.4 1.1-.6.6-.5.5-1.8-10.1 5.2 2.3c1.7.9 3.4 1.7 5.1 2.6s3.3 1.9 4.9 3l2.4 1.6 2.3 1.7c1.6 1.1 3 2.4 4.5 3.6s2.9 2.5 4.3 3.9 2.7 2.8 4 4.2l1.9 2.2 1.8 2.3c1.2 1.5 2.3 3.1 3.4 4.7s2.1 3.3 3 4.9l1.4 2.5 1.3 2.6c.8 1.7 1.6 3.5 2.2 5.3s1.2 3.6 1.7 5.5a55.7 55.7 0 0 1 1.2 5.6c.1 1 .3 1.9.4 2.8s.2 1.9.2 2.9a36 36 0 0 1-.1 5.9 2.5 2.5 0 0 1-4.9.6v-.2z" fill="#31323d"></path><path d="M1202.2 872a291.9 291.9 0 0 0-85.2-40.3c-31-9-64.9-10.4-95.3.4-16.5 5.9-33.9 19.1-32.2 36.6 1.2 12.4 11.7 21.6 21.5 29.4 35.7 28.7 68.4 55.4 104.1 84.1M1630.4 862.1a291.9 291.9 0 0 1 81.5-47.3c30.1-11.5 63.8-15.8 95-7.7 17 4.4 35.4 16.2 35.2 33.7-.2 12.5-9.8 22.5-18.9 31.1-33.1 31.6-71.5 64-104.6 95.6" fill="none" stroke="#31323d" stroke-linecap="round" stroke-linejoin="round" stroke-width="12.5"></path><path d="M1054.6 1454.8l-6 4.6-5.8 4.6-5.7 4.7-5.5 4.9-5.4 5-5.2 5.1-5.1 5.2-4.9 5.4-4.7 5.6-4.6 5.7-4.3 5.8-4.2 6-4 6.1-3.8 6.2-3.6 6.3-3.5 6.4-1.3 2.3a5.5 5.5 0 0 1-10.2-2.7h0l-2.1-5.7-1.9-5.7-1.8-5.8-1.6-5.8-1.4-5.9-1.2-5.9-1.1-5.9-.9-6-.7-6-.5-6-.3-6-.2-6v-6l.2-6 .4-6 .6-6 10.6 5.2-5 5.1-4.7 5.4-4.3 5.7-4 6-3.6 6.2-3.3 6.4-2.9 6.6-2.5 6.7-2.1 6.9-1.7 7-1.3 7.1-.9 7.1-.5 7.2v7.2l.4 7.2.8 7.1v.2a6.2 6.2 0 0 1-11.9 3.4 271.4 271.4 0 0 1-18.2-51.9 294.6 294.6 0 0 1-7.4-54.4 309.9 309.9 0 0 1 2.8-54.8c.3-2.3.7-4.5 1.1-6.8l.6-3.4.3-1.7v-.9l.2-.8c.9-4.4 1.7-8.7 2.8-13.3l1.6-6.7 1.8-6.6c1.1-4.4 2.6-8.8 3.9-13.1a359.1 359.1 0 0 1 20.9-50.6 389.7 389.7 0 0 1 28-46.9c1.3-1.9 2.6-3.7 4-5.6l4-5.5c2.8-3.6 5.5-7.3 8.4-10.8l8.6-10.5 8.7-10.3c11.7-13.7 23.7-27 35.2-40.6q8.7-10.2 16.8-20.7c5.4-7 10.7-14.1 15.6-21.4s9.4-14.8 13.4-22.5 7.9-15.7 11.2-23.8 6.3-16.4 9-24.7 4.8-16.9 6.6-25.5l.7-3.2.3-1.7.4-1.6 1.4-6.6c1.1-4.5 2.2-9.1 3.5-13.4a238.3 238.3 0 0 1 9.2-26 259.7 259.7 0 0 1 12-24.8 256.9 256.9 0 0 1 14.8-23.3 235.7 235.7 0 0 1 17.3-21.5A248 248 0 0 1 1272.4 832a6.2 6.2 0 0 1 3.5 12h-.1a234.8 234.8 0 0 0-109.5 68.8 223.3 223.3 0 0 0-16.4 20.4 244.5 244.5 0 0 0-14 22.1 247.1 247.1 0 0 0-11.4 23.6 225.8 225.8 0 0 0-8.7 24.7c-1.3 4.2-2.3 8.4-3.3 12.6l-1.4 6.6-.4 1.6-.3 1.6-.7 3.4c-1.9 8.9-4.2 17.8-6.9 26.6s-5.8 17.4-9.4 25.8-7.4 16.8-11.7 24.9-9 15.9-14.1 23.7-10.5 14.9-16.1 22.1-11.3 14.2-17.1 21.1c-11.7 13.8-23.7 27.1-35.3 40.7l-8.6 10.2-8.4 10.3c-2.8 3.4-5.4 7-8.1 10.5l-3.9 5.4c-1.3 1.8-2.6 3.6-3.8 5.4a377.3 377.3 0 0 0-27.1 45.4 346.6 346.6 0 0 0-20.1 48.8c-1.3 4.2-2.7 8.4-3.8 12.6l-1.7 6.4-1.5 6.3c-1.1 4.2-1.9 8.7-2.8 13l-.2.8v.4h0v.2l-.3 1.6L908 1395c-.3 2.2-.8 4.3-1 6.5a297.4 297.4 0 0 0-2.7 52.5 282.2 282.2 0 0 0 7.1 52 259 259 0 0 0 17.3 49.5l-11.8 3.6-.9-7.9-.4-7.9v-7.9l.5-7.9 1-7.9 1.5-7.8 1.9-7.7 2.3-7.6 2.8-7.4 3.2-7.2 3.6-7.1 4-6.8 4.4-6.6 4.8-6.3 5.2-6 5.5-5.7a6.2 6.2 0 0 1 10.6 4.9v.3l-.5 5.6-.4 5.6-.2 5.6v5.7l.2 5.7.3 5.6.5 5.6.7 5.6.8 5.6 1 5.6 1.2 5.5 1.3 5.5 1.5 5.5 1.6 5.4 1.8 5.4 2 5.3L967 1537l3.2-7.1 3.6-6.9 3.9-6.8 4.2-6.6 4.5-6.4 4.8-6.1 5-5.9 5.3-5.7 5.5-5.5 5.8-5.2 6-4.9 6.2-4.6 6.5-4.3 6.7-3.9 6.9-3.6 7-3A2.5 2.5 0 0 1 1054.6 1454.8zM1555.8 828.9l6.6 1.7 3.3.9 3.4 1 6.7 2.1 3.3 1.1 3.3 1.2a236.4 236.4 0 0 1 25.6 10.8 246.5 246.5 0 0 1 46.7 29.8 242.7 242.7 0 0 1 38.9 39.4 245.1 245.1 0 0 1 39.6 72.8c.7 2.2 1.5 4.4 2.2 6.6l1 3.3.5 1.7.3.8v1l3.4 13.1 13.4 52.5c.5 2.2 1 4.4 1.6 6.5s1.1 4.2 1.7 6.4 1.2 4.3 1.8 6.4 1.3 4.2 2 6.3a193.5 193.5 0 0 0 9.8 24.3 132.6 132.6 0 0 0 13.5 22 113.4 113.4 0 0 0 8.3 9.7l2.2 2.3.6.6h.2l.3.3 1.2 1.2 2.5 2.3 2.4 2.2c6.5 5.8 13.5 11.3 20.6 16.6s14.5 10.4 21.9 15.6 14.8 10.4 22.1 15.9l5.5 4.2 2.8 2.2 2.6 2.1 5.2 4.3 5.2 4.6a308.5 308.5 0 0 1 37.8 40.2 327.3 327.3 0 0 1 30.4 46c1.1 2 2.2 4 3.2 6.1l3.2 6.1 3 6.2 1.5 3.1 1.4 3.2 2.8 6.3 2.6 6.4c1.8 4.2 3.3 8.6 4.9 12.9a351 351 0 0 1 20 107.9 351.4 351.4 0 0 1-3 55 6.2 6.2 0 0 1-11.5 2.4h-.1l-3.3-5.6-3.4-5.5-3.6-5.4-3.8-5.2-3.9-5.1-4.1-5-4.3-4.9-4.4-4.7-4.5-4.6-4.7-4.5-4.8-4.3-4.9-4.2-5.1-4-5.2-3.8-5.3-3.7-5.4-3.5 8.3-9.1 2.8 3.8 2.7 3.9 2.5 4 2.4 4.1 2.2 4.1 2.1 4.2 1.9 4.3 1.8 4.4 1.6 4.4 1.5 4.5 1.3 4.5 1.2 4.6 1 4.6.8 4.6.7 4.7.5 4.7h0a6.2 6.2 0 0 1-10.8 4.8l-.4-.5-5.4-6.2-5.7-5.9-6-5.6-6.3-5.3-6.5-5-6.8-4.6-7-4.3-7.2-3.9-7.5-3.5-7.6-3.2-7.8-2.8-7.9-2.4-8.1-2.1-8.2-1.7-8.3-1.3-8.4-1h-.2a2.5 2.5 0 0 1 .1-5l8.8-.9h8.9l8.9.5 8.8 1.2 8.8 1.8 8.6 2.4 8.5 3 8.3 3.5 8.1 4 7.8 4.5 7.5 4.9 7.2 5.4 6.8 5.9 6.4 6.3 6 6.7 5.5 7.2-11.2 4.3h0l-.4-4.2-.6-4.2-.7-4.2-.9-4.2-1-4.1-1.2-4.1-1.3-4.1-1.5-4-1.6-4-1.8-3.9-1.9-3.8-2-3.8-2.2-3.7-2.3-3.6-2.4-3.5-2.5-3.4v-.2a6.2 6.2 0 0 1 8.4-8.9l5.7 3.7 5.6 3.9 5.5 4.1 5.4 4.2 5.2 4.4 5.1 4.6 5 4.7 4.8 4.9 4.7 5 4.5 5.2 4.3 5.3 4.2 5.4 4 5.6 3.8 5.7 3.7 5.8 3.5 5.9-11.6 2.2a338.9 338.9 0 0 0 2.9-53 338.5 338.5 0 0 0-19.3-104c-1.5-4.2-3-8.3-4.7-12.4l-2.5-6.2-2.7-6.1-1.3-3-1.4-3-2.9-6-3-5.9c-1-2-2-3.9-3.1-5.9a314.8 314.8 0 0 0-29.2-44.2l-4.1-5.2-4.3-5c-2.8-3.4-5.9-6.6-8.9-9.9-1.5-1.6-3.1-3.2-4.6-4.8s-3.1-3.2-4.7-4.7c-3.2-3-6.4-6.2-9.7-9l-4.9-4.3-5.2-4.3-2.6-2.1-2.5-2-5.3-4c-7.1-5.3-14.4-10.5-21.8-15.7-14.8-10.4-29.7-20.8-43.7-33.1l-2.6-2.3-2.5-2.3-1.2-1.2-.7-.6-.6-.6-2.5-2.5a125.9 125.9 0 0 1-9.3-10.8 145.1 145.1 0 0 1-14.7-24.1c-8.3-16.8-13.7-34.6-17.9-52.4l-13.4-52.3-3.4-13.1-1.8-6.2c-.6-2.1-1.4-4.2-2.1-6.3a232.6 232.6 0 0 0-37.6-69.1 230.2 230.2 0 0 0-37-37.4 234 234 0 0 0-44.4-28.3 223.9 223.9 0 0 0-24.3-10.2l-3.1-1.1-3.1-1-6.3-1.9-3.1-.9-3.2-.9-6.6-1.7A6.2 6.2 0 0 1 1555.8 828.9z" fill="#31323d"></path></g></g><g id="item_g"></g><g id="env_front"><defs><linearGradient id="wild__a" x1="652.93" x2="778.08" y1="2220.37" y2="2249.7" gradientUnits="userSpaceOnUse"><stop offset="0" stop-color="#fff" stop-opacity="0"></stop><stop offset="1"></stop></linearGradient><linearGradient id="wild__f" x1="674.6" x2="726.6" y1="2227.32" y2="2239.51" xlink:href="#wild__a"></linearGradient><linearGradient id="wild__g" x1="783.81" x2="911.11" y1="1711.76" y2="2324.35" xlink:href="#wild__a"></linearGradient><linearGradient id="wild__b" x1="684.51" x2="801.31" y1="2205.29" y2="2193.74" gradientUnits="userSpaceOnUse"><stop offset="0" stop-color="#fff"></stop><stop offset="1" stop-color="#231f20"></stop></linearGradient><linearGradient id="wild__h" x1="686.96" x2="800.46" y1="2199.01" y2="2187.78" xlink:href="#wild__b"></linearGradient><linearGradient id="wild__c" x1="923.89" x2="990.63" y1="2348.34" y2="2348.34" gradientUnits="userSpaceOnUse"><stop offset="0" stop-color="#fff" stop-opacity="0"></stop><stop offset=".8"></stop></linearGradient><linearGradient id="wild__d" x1="927.03" x2="1032.1" y1="2370.2" y2="2370.2" gradientUnits="userSpaceOnUse"><stop offset="0" stop-color="#fff" stop-opacity="0"></stop><stop offset="1"></stop></linearGradient><linearGradient id="wild__i" x1="1020.32" x2="1232.26" y1="2158.57" y2="2282.38" xlink:href="#wild__a"></linearGradient><linearGradient id="wild__j" x1="993.43" x2="1074.15" y1="2293.66" y2="2293.66" xlink:href="#wild__a"></linearGradient><linearGradient id="wild__k" x1="939.18" x2="989.18" y1="2298.45" y2="2298.45" gradientTransform="translate(-253.3 127.5) rotate(-6.5)" xlink:href="#wild__a"></linearGradient><linearGradient id="wild__l" x1="1821.63" x2="1946.79" y1="2220.37" y2="2249.7" gradientTransform="matrix(-1, 0, 0, 1, 4121.56, 0)" xlink:href="#wild__a"></linearGradient><linearGradient id="wild__m" x1="1843.3" x2="1895.3" y1="2227.32" y2="2239.51" gradientTransform="matrix(-1, 0, 0, 1, 4121.56, 0)" xlink:href="#wild__a"></linearGradient><linearGradient id="wild__n" x1="1961.79" x2="2089.09" y1="1709.83" y2="2322.42" gradientTransform="matrix(-1, 0, 0, 1, 4121.56, 0)" xlink:href="#wild__a"></linearGradient><linearGradient id="wild__o" x1="1853.22" x2="1970.01" y1="2205.29" y2="2193.74" gradientTransform="matrix(-1, 0, 0, 1, 4121.56, 0)" xlink:href="#wild__b"></linearGradient><linearGradient id="wild__p" x1="1855.67" x2="1969.17" y1="2199.01" y2="2187.78" gradientTransform="matrix(-1, 0, 0, 1, 4121.56, 0)" xlink:href="#wild__b"></linearGradient><linearGradient id="wild__q" x1="2143.6" x2="2210.34" y1="2348.34" y2="2348.34" gradientTransform="matrix(-1, 0, 0, 1, 4121.56, 0)" xlink:href="#wild__c"></linearGradient><linearGradient id="wild__r" x1="2146.73" x2="2251.81" y1="2370.2" y2="2370.2" gradientTransform="matrix(-1, 0, 0, 1, 4121.56, 0)" xlink:href="#wild__d"></linearGradient><linearGradient id="wild__s" x1="2239" x2="2453.59" y1="2153.89" y2="2279.25" gradientTransform="matrix(-1, 0, 0, 1, 4121.56, 0)" xlink:href="#wild__a"></linearGradient><linearGradient id="wild__t" x1="2213.14" x2="2293.86" y1="2293.66" y2="2293.66" gradientTransform="matrix(-1, 0, 0, 1, 4121.56, 0)" xlink:href="#wild__a"></linearGradient><linearGradient id="wild__u" x1="2151.13" x2="2201.12" y1="2435.83" y2="2435.83" gradientTransform="matrix(-0.99, -0.11, -0.11, 0.99, 4374.9, 127.54)" xlink:href="#wild__a"></linearGradient><linearGradient id="wild__e" x1="927.73" x2="762.39" y1="2235.26" y2="2160.32" gradientUnits="userSpaceOnUse"><stop offset="0" stop-color="#fff" stop-opacity="0"></stop><stop offset=".72" stop-color="#fff"></stop></linearGradient><linearGradient id="wild__v" x1="828.2" x2="757.71" y1="2221.53" y2="2229.23" xlink:href="#wild__e"></linearGradient><linearGradient id="wild__w" x1="875.65" x2="812.09" y1="2234.03" y2="2240.97" gradientTransform="translate(129.5 -43.5) rotate(3.3)" xlink:href="#wild__e"></linearGradient><linearGradient id="wild__x" x1="878.96" x2="845" y1="2188.09" y2="2191.8" xlink:href="#wild__e"></linearGradient><linearGradient id="wild__y" x1="1108.79" x2="922.46" y1="2212.79" y2="2349.01" xlink:href="#wild__e"></linearGradient><linearGradient id="wild__z" x1="1191.64" x2="791.41" y1="2128.41" y2="2138.55" xlink:href="#wild__e"></linearGradient><linearGradient id="wild__A" x1="1148.43" x2="997.8" y1="2367.91" y2="2355.22" xlink:href="#wild__e"></linearGradient><linearGradient id="wild__B" x1="1159.61" x2="1035.6" y1="2388.02" y2="2357.86" xlink:href="#wild__e"></linearGradient><linearGradient id="wild__C" x1="1070.85" x2="1022" y1="2265.5" y2="2301.22" xlink:href="#wild__e"></linearGradient><linearGradient id="wild__D" x1="1137.49" x2="1076.55" y1="2271.76" y2="2316.31" xlink:href="#wild__e"></linearGradient><linearGradient id="wild__E" x1="2096.44" x2="1931.1" y1="2235.26" y2="2160.32" gradientTransform="matrix(-1, 0, 0, 1, 4121.56, 0)" xlink:href="#wild__e"></linearGradient><linearGradient id="wild__F" x1="1996.91" x2="1926.41" y1="2221.53" y2="2229.23" gradientTransform="matrix(-1, 0, 0, 1, 4121.56, 0)" xlink:href="#wild__e"></linearGradient><linearGradient id="wild__G" x1="2042.44" x2="1978.88" y1="2167.15" y2="2174.09" gradientTransform="matrix(-1, 0.06, 0.06, 1, 3992.09, -43.52)" xlink:href="#wild__e"></linearGradient><linearGradient id="wild__H" x1="2047.67" x2="2013.71" y1="2188.09" y2="2191.8" gradientTransform="matrix(-1, 0, 0, 1, 4121.56, 0)" xlink:href="#wild__e"></linearGradient><linearGradient id="wild__I" x1="2328.49" x2="2142.17" y1="2212.79" y2="2349.01" gradientTransform="matrix(-1, 0, 0, 1, 4121.56, 0)" xlink:href="#wild__e"></linearGradient><linearGradient id="wild__J" x1="2456.12" x2="1920.47" y1="2129.2" y2="2142.77" gradientTransform="matrix(-1, 0, 0, 1, 4121.56, 0)" xlink:href="#wild__e"></linearGradient><linearGradient id="wild__K" x1="2368.13" x2="2217.5" y1="2367.91" y2="2355.22" gradientTransform="matrix(-1, 0, 0, 1, 4121.56, 0)" xlink:href="#wild__e"></linearGradient><linearGradient id="wild__L" x1="2379.31" x2="2255.31" y1="2388.02" y2="2357.86" gradientTransform="matrix(-1, 0, 0, 1, 4121.56, 0)" xlink:href="#wild__e"></linearGradient><linearGradient id="wild__M" x1="2290.56" x2="2241.71" y1="2265.5" y2="2301.22" gradientTransform="matrix(-1, 0, 0, 1, 4121.56, 0)" xlink:href="#wild__e"></linearGradient><linearGradient id="wild__N" x1="2357.2" x2="2296.26" y1="2271.76" y2="2316.31" gradientTransform="matrix(-1, 0, 0, 1, 4121.56, 0)" xlink:href="#wild__e"></linearGradient></defs><g style="isolation:isolate"><path fill="none" d="M0 0H3000V3000H0z"></path><g><path fill="#b1aeb9" d="M1227.2,2318.5c-11.1-4.8-21.9-22.2-24.7-46.1l2.2-3.4c22-36,4.5-77,4.5-77s-1-46.8,20-159.6c-97-80.5-231.3-6.6-231.3-6.6,20,17,28.8,55.7,20.3,98.2s5.5,59.5,5.5,59.5c-.5-24,13-44.4,13-44.4,19.9,70.7-28.9,102-28.9,102,17.1,24.8,51.2-9.4,51.2-9.4-8.3,11-25.4,18.1-31.7,22-20,12.2-14.2,22.7-14.2,22.7s-20.9,2.3-27.4,9.7c-4.9,5.7-6.6,14.7-7,16.7-29.1,3.4-57.4,20.2-63.5,74.4,0,0,24.6-31.7,63-31.1l1.8-1.8c-1.1,3-2.1,6.1-3,9.4-12.3,45.7,4.6,61.7,4.6,61.7s5-27.3,20-47.8c1.3,1.1,4.1-5,5.6-4s14.2,9.1,29.5,13.6c0,0,3,4.8,5,4.8.2,36.1,20.8,48.3,20.8,48.3s2-24.7,12.8-46.4l8.9.9c72.3,7.4,82-54.3,82-54.3-2.3,9-1.4,16.8,6,22.2s8.7,20,8.7,20c31.5-28.7,14.8-52.7,4.3-67.9C1203.3,2326.3,1227.2,2318.5,1227.2,2318.5Z"></path><path fill="#73ffc3" d="M1071.1,2317.3c-5.2-7.4-14.9-11.8-14.9-11.8-7.4-3.2-11.1-3-18.9-3a59.4,59.4,0,0,0-14.6,2.4h-1.2S929.9,2286.4,920,2374c0,0,19.8-28.5,58.2-27.9h1.2a75.4,75.4,0,0,0-2.4,7.6c-12.3,45.7,1.7,60.7,1.7,60.7s16.6-73.7,66.5-68.4l2.7.8a83.9,83.9,0,0,0-5.4,21.3c-5.8,47,20,62.2,20,62.2s6-76.2,55.6-78.6l10.9-.8s.7-12,.5-13.4c-3.7-31-35.7-31-35.7-31a66.1,66.1,0,0,0-22.6,10.6"></path></g><g><path fill="#b1aeb9" d="M767,2171.4s5.9-21.9,44.4-22.3a121.1,121.1,0,0,1-9-19.8s25.3,23.7,86.3-5.3c0,0,12.5-13.7,39-22,3.3,25.1,19.5,50.4,28.6,63.7,0,0,7.8,11,32.6,41.8,9,11.3,25.5,22.7,25.5,22.7s5.3,21.6-16.5,27.9c-37.3,10.9-89.6,1.3-89.6,1.3s-23.6,2.3-26,1.4L859.2,2250s-54.4.2-82.4,39.2c0,0,2-26.6,11.7-38.2,0,0-45.2-5.4-63.9,32.6,0,0-1.2-30.1,5.7-43.5,0,0-23.1,3.8-32.5,22.8,0,0-5.4-47.7,37.2-63C735,2199.9,741.2,2178,767,2171.4Z"></path><path fill="#73ffc3" d="M776.8,2289.2c9.6-2.7,10.2-15.1,23.5-21.1,0,0,41.1-23.8,86.6-18.1,1.6-5-4.8-23.1-4.8-23.1-6.5-34-48.5-20.6-48.5-20.6s-4.7-2.2-14.1,1.2c-8.9-9.3-46.6-9.6-46.6-9.6a118.3,118.3,0,0,0-15,4.9c-1.8-.8-5.6,0-5.6,0s-63.1-11.5-54.5,60.1c0,0-1.7-25.5,32.5-22.8l-3.7,28.9c0,4,0,6.9.3,13.4,0,0,14.6-35.5,56-28.7L781,2264C781.9,2264,775.9,2289.4,776.8,2289.2Z"></path></g><g><path fill="#b1aeb9" d="M1674.7,2318.5c11.1-4.8,21.9-22.2,24.7-46.1l-2.2-3.4c-22-36-4.5-77-4.5-77s-1.1-54.8-22.1-167.6c97.1-80.5,252.4,5.8,252.4,5.8-20,17-47.8,51.3-39.3,93.8s-5.5,59.5-5.5,59.5c.5-24-13.1-44.4-13.1-44.4-19.9,70.7,28.9,102,28.9,102-17.1,24.8-51.1-9.4-51.1-9.4,8.2,11,25.4,18.1,31.6,22,20.1,12.2,14.2,22.7,14.2,22.7s21,2.3,27.4,9.7c4.9,5.7,6.7,14.7,7.1,16.7,29,3.4,57.3,20.2,63.5,74.4,0,0-24.7-31.7-63-31.1l-1.9-1.8a86.2,86.2,0,0,1,3.1,9.4c12.3,45.7-4.6,61.7-4.6,61.7s-5.1-27.3-20.1-47.8c-1.3,1.1-4.1-5-5.6-4,0,0-14.1,9.1-29.5,13.6,0,0-2.9,4.8-4.9,4.8-.2,36.1-20.9,48.3-20.9,48.3s-1.9-24.7-12.7-46.4l-8.9.9c-72.4,7.4-82.1-54.3-82.1-54.3,2.4,9,1.4,16.8-5.9,22.2s-8.7,20-8.7,20c-31.6-28.7-14.8-52.7-4.3-67.9C1698.6,2326.3,1674.7,2318.5,1674.7,2318.5Z"></path><path fill="#73ffc3" d="M1830.7,2317.3c5.2-7.4,15-11.8,15-11.8,7.3-3.2,11.1-3,18.8-3a59.4,59.4,0,0,1,14.6,2.4h1.3s91.5-18.4,101.5,69.2c0,0-19.9-28.5-58.2-27.9h-1.2a75.4,75.4,0,0,1,2.4,7.6c12.3,45.7-1.7,60.7-1.7,60.7s-16.6-73.7-66.5-68.4l-2.8.8a79.9,79.9,0,0,1,5.5,21.3c5.8,47-20.1,62.2-20.1,62.2s-6-76.2-55.5-78.6l-10.9-.8s-.7-12-.5-13.4c3.6-31,35.6-31,35.6-31a66.1,66.1,0,0,1,22.6,10.6"></path></g><g><path fill="#b1aeb9" d="M2185.9,2171.4s-5.9-21.9-44.4-22.3a115.8,115.8,0,0,0,8.9-19.8s-25.2,23.7-86.2-5.3c0,0-12.5-13.7-39.1-22-3.3,25.1-19.4,50.4-28.5,63.7,0,0-7.9,11-32.6,41.8-9,11.3-25.5,22.7-25.5,22.7a21.5,21.5,0,0,0-.6,4.5c-.1,2.2-15.7,5.9-14.9,8.8s18.6,6.5,22.2,9.6a26.5,26.5,0,0,0,9.8,5c37.2,10.9,89.6,1.3,89.6,1.3s23.5,2.3,26,1.4l23.1-10.8s54.4.2,82.4,39.2c0,0-2.1-26.6-11.8-38.2,0,0,45.2-5.4,64,32.6,0,0,1.2-30.1-5.7-43.5,0,0,23,3.8,32.4,22.8,0,0,5.4-47.7-37.2-63C2217.8,2199.9,2211.7,2178,2185.9,2171.4Z"></path><path fill="#73ffc3" d="M2176.1,2289.2c-9.7-2.7-10.3-15.1-23.6-21.1,0,0-41-23.8-86.5-18.1-1.6-5,4.8-23.1,4.8-23.1,6.5-34,48.4-20.6,48.4-20.6s4.8-2.2,14.2,1.2c8.9-9.3,46.6-9.6,46.6-9.6a118.3,118.3,0,0,1,15,4.9c1.8-.8,5.5,0,5.5,0s63.2-11.5,54.5,60.1c0,0,1.7-25.5-32.4-22.8l3.6,28.9c0,4,0,6.9-.3,13.4,0,0-14.5-35.5-55.9-28.7l1.9,10.3C2171,2264,2177,2289.4,2176.1,2289.2Z"></path></g><g><g opacity=".3"><path style="mix-blend-mode:multiply" fill="url(#wild__a)" d="M733.6,2272.2c7.8-7.3,22.2-17.9,41.8-20.4l12.8,1.9c.9,1.8,3.2-8.6,3.2-8.6s1.6-19.8,13-22.2c0,0-57.8-1.3-73.8,44.1Z"></path><path style="mix-blend-mode:multiply" fill="url(#wild__f)" d="M730.8,2255.8l2.8-18.3,6.4-15.6c-15.4-2.6-27.4,11-32.7,27,0,1.7.7,5.1.8,6.9,0,0,2-17.3,22.2-15.7L728,2246c-2.2,6.2-2.7,9.6-2.5,14Z"></path><path style="mix-blend-mode:multiply" fill="url(#wild__g)" d="M783.3,2286.4c6.3-8.6,29.6-27.7,67.3-35.4l8.8-2.4c2.4.9,25,14.3,25,14.3s10.7-6.3,26.9-3.4c28.9,5.3,86,11.3,103.1-7.7,3.6-4.1-4.6-13.1-4.6-13.1s2.8-6.5,0-11.3c-6.9-11.6-18.7-13.2-23.7-21.9-3.4,3.9-53-81.8-56.1-79.2s1.4,48,27.3,91.7a27,27,0,0,1-22.1,3.9c-21.3-3.8-35.2,9.8-51.2,11.1-2.1.1-6.4-11.3-8.4-11.1C810.1,2229.9,788.5,2275.5,783.3,2286.4Z"></path><path style="mix-blend-mode:multiply" fill="url(#wild__b)" d="M865.1,2173.3s-33.9-5.3-64.3,22.3l18.7,11.9,9.2-3.5,2.1-4.5a42.5,42.5,0,0,1,22.9-21.6Z" opacity=".6"></path><path style="mix-blend-mode:multiply" fill="url(#wild__h)" d="M784.9,2178.6s-17.9-4.2-28.7,20.2l7.8,4,9.9-3.3,1.1-3.2c2.3-7,2.9-7.4,6.8-12.1Z" opacity=".6"></path></g><g opacity=".3"><path fill="url(#wild__c)" d="M978.2,2346.1l1.4-1.3c4.4-8.1,11-19.8,11-19.8s-3,2.4-3.6,2.4c-37.6-2.6-51.7,21-63.1,43.3-.1.6,2.3,3.3,7-3.5C930.9,2367.2,939.8,2345.5,978.2,2346.1Z"></path><path style="mix-blend-mode:multiply" fill="url(#wild__d)" d="M980.7,2414.4a4.9,4.9,0,0,0,.9,1s7.1-30.2,22.1-50.6a46.3,46.3,0,0,0,4.2,3.2,82.8,82.8,0,0,0,29.3,9.2h2.9c-1.1-31.8,17.9-51.8,17.9-51.8C975.3,2318.7,979,2397.1,980.7,2414.4Z"></path><path style="mix-blend-mode:multiply" fill="url(#wild__i)" d="M1150.1,2366.4a23.3,23.3,0,0,0,12-19.4c19.8,12.2,18.8,27.9,18.8,27.9,26.3-30.9,18.6-47.5,18.6-60.8a29.7,29.7,0,0,0,27.7,4.4c-11.1-4.8-21.9-22.2-24.7-46.1l2.2-3.4c22-36,4.5-77,4.5-77s-2.9-69.2,18-159.6c-9.1,24.3-14.6,39.1-21,53.3-25.8,65-23.7,87.9-12.5,118.3-11.6-24.7-33.2-38.2-33.2-38.2-16.9,22.5-.6,76.2,1.7,81.9,6.8,16.5,10.6,27.4,49.3,64.9,1.9,1.9-29.6-2.4-47.1-28-11.6-17-15.2,37.1-50.9,42.8-66.4,10.5-56.4,82.5-52.6,101.7l1.6,1.2s2-24.7,12.8-46.4l8.9.9C1137.1,2389.4,1150.1,2366.4,1150.1,2366.4Z"></path><path style="mix-blend-mode:multiply" fill="url(#wild__j)" d="M1106,2275.9s-48.2-10-57.6,26.9l17.9,9.8S1067.9,2289.2,1106,2275.9Z" opacity=".4"></path><path style="mix-blend-mode:multiply" fill="url(#wild__k)" d="M1030.5,2285.6s-30.1-6.1-33.7,19.5l17.8,3.2S1013.1,2293.7,1030.5,2285.6Z" opacity=".4"></path></g><g opacity=".3"><path style="mix-blend-mode:multiply" fill="url(#wild__l)" d="M2219.3,2272.2c-7.9-7.3-22.2-17.9-41.8-20.4l-12.8,1.9c-.9,1.8-3.2-8.6-3.2-8.6s-1.7-19.8-13-22.2c0,0,57.8-1.3,73.7,44.1Z"></path><path style="mix-blend-mode:multiply" fill="url(#wild__m)" d="M2222,2255.8l-2.7-18.3-6.4-15.6c15.4-2.6,27.3,11,32.7,27-.1,1.7-.7,5.1-.8,6.9,0,0-2-17.3-22.2-15.7l2.3,5.9c2.1,6.2,2.6,9.6,2.5,14Z"></path><path style="mix-blend-mode:multiply" fill="url(#wild__n)" d="M2169.6,2286.4c-6.3-8.6-29.7-27.7-67.3-35.4l-8.8-2.4c-2.5.9-25.1,14.3-25.1,14.3s-10.6-6.3-26.8-3.4c-29,5.3-86,11.3-103.1-7.7-3.6-4.1-18.9-10.1-18.9-10.1s20.6-9.5,23.5-14.3c6.8-11.6,18.6-13.2,23.7-21.9,3.3,3.9,52.9-81.8,56.1-79.2s-1.4,48-27.3,91.7a27,27,0,0,0,22.1,3.9c21.3-3.8,35.2,9.8,51.1,11.1,2.2.1,6.4-11.3,8.5-11.1C2142.8,2229.9,2164.4,2275.5,2169.6,2286.4Z"></path><path style="mix-blend-mode:multiply" fill="url(#wild__o)" d="M2087.8,2173.3s33.9-5.3,64.3,22.3l-18.7,11.9-9.2-3.5-2.1-4.5a43,43,0,0,0-23-21.6Z" opacity=".6"></path><path style="mix-blend-mode:multiply" fill="url(#wild__p)" d="M2168,2178.6s17.9-4.2,28.7,20.2l-7.9,4-9.8-3.3-1.1-3.2c-2.3-7-3-7.4-6.8-12.1Z" opacity=".6"></path></g><g opacity=".3"><path fill="url(#wild__q)" d="M1923.7,2346.1l-1.4-1.3-11.1-19.8c.6-.1,3.1,2.4,3.7,2.4,37.5-2.6,51.6,21,63.1,43.3,0,.6-2.4,3.3-7-3.5C1971,2367.2,1962,2345.5,1923.7,2346.1Z"></path><path style="mix-blend-mode:multiply" fill="url(#wild__r)" d="M1921.2,2414.4l-.9,1s-7.2-30.2-22.2-50.6a46.3,46.3,0,0,1-4.2,3.2,81.9,81.9,0,0,1-29.2,9.2h-3c1.2-31.8-17.9-51.8-17.9-51.8C1926.5,2318.7,1922.9,2397.1,1921.2,2414.4Z"></path><path style="mix-blend-mode:multiply" fill="url(#wild__s)" d="M1751.8,2366.4a23.5,23.5,0,0,1-12.1-19.4c-19.8,12.2-18.8,27.9-18.8,27.9-26.3-30.9-18.5-47.5-18.5-60.8a29.7,29.7,0,0,1-27.7,4.4c11.1-4.8,21.9-22.2,24.7-46.1l-2.2-3.4c-22-36-4.5-77-4.5-77s.8-76.2-20-166.6c9.1,24.3,16.5,46.1,23,60.3,25.8,65,23.6,87.9,12.4,118.3,11.7-24.7,33.3-38.2,33.3-38.2,16.8,22.5.6,76.2-1.8,81.9-6.7,16.5-10.6,27.4-49.2,64.9-2,1.9,29.5-2.4,47.1-28,11.6-17,15.1,37.1,50.9,42.8,66.4,10.5,56.3,82.5,52.6,101.7l-1.7,1.2s-1.9-24.7-12.7-46.4l-8.9.9C1764.8,2389.4,1751.8,2366.4,1751.8,2366.4Z"></path><path style="mix-blend-mode:multiply" fill="url(#wild__t)" d="M1795.9,2275.9s48.1-10,57.6,26.9l-17.9,9.8S1833.9,2289.2,1795.9,2275.9Z" opacity=".4"></path><path style="mix-blend-mode:multiply" fill="url(#wild__u)" d="M1871.3,2285.6s30.2-6.1,33.7,19.5l-17.8,3.2S1888.7,2293.7,1871.3,2285.6Z" opacity=".4"></path></g></g><g><g><path style="mix-blend-mode:overlay" fill="url(#wild__e)" d="M932.2,2123.9c-2.6-1.4-4.5-19.3-4.5-19.3-21.6.1-39,19.4-39,19.4-61,29-85.6,7.2-85.6,7.2,8.5,22,5.5,17.2,5.5,17.2-26.8,3.4-41.6,23-41.6,23h-.1a49.6,49.6,0,0,0-26,23l-4.4,8.3c-23.8,7.3-38.1,10.8-37.7,53,0,0,1.7,8.1,2,7.1,10.3-55.4,47.1-51.7,47.1-51.7a35.5,35.5,0,0,1,4-4.5c1.1-1-1.5-5.4-1.9-6.8s5-19.2,27.2-22.6c2.6-.4-2.6,21.2-.4,21,3.8-.4,6.8-.9,7.6-2.8,5.4-13,18-21.1,29-24.6,1.1-.3-12.6,1.1-28.9,6.2-5.3,1.7-7.7-.3-7.3-.8,11.9-14.9,43.8-17.1,43.8-17.1l-14.6-22.7c2,1.5,3.2.4,3.9,2.6,1.1,3.8,5.2,19.7,25.8,18.7.5-.1-4.6-2.1-9.3-5.5s-5.9-7.5-5.4-7.3C869.1,2165.2,918.4,2121.4,932.2,2123.9Z" opacity=".3"></path><path style="mix-blend-mode:overlay" fill="url(#wild__v)" d="M731.1,2258.3c-.3,5.9,3.9-26.1,32.6-42.9,13.4-7.8,34.1-10.7,58.5-7.9C822.2,2207.5,735.2,2171,731.1,2258.3Z" opacity=".3"></path><path style="mix-blend-mode:overlay" fill="url(#wild__w)" d="M786.8,2271.4c-.3,2.7,29.8-64.1,83.8-59.7C870.6,2211.7,794.8,2188.1,786.8,2271.4Z" opacity=".3"></path><path style="mix-blend-mode:overlay" fill="url(#wild__x)" d="M875.6,2176.6s-26.4,5.2-25.7,27.4c0,0-18.5-.4-18.1-1.2S834.4,2175.3,875.6,2176.6Z" opacity=".3"></path></g><g><path style="mix-blend-mode:overlay" fill="url(#wild__y)" d="M1065.5,2225.5s2,18.2-11,28.2-26.1,12.3-24,25.4l-8.3,4.6-9.1-1.3s-19.2,2.5-20,19l6,6.9-10,13.4s-43.6-5.6-59.6,38.7l-8.1-2.5s16.8-46.6,51.5-55.5h3.9s0-24.4,32.2-24.8a100.7,100.7,0,0,1,12.2-21.7c2.6-3.6,6.7-3.4,10.3-7s15.2-3.4,19.2-6.2C1057.6,2237.9,1060.3,2233,1065.5,2225.5Z" opacity=".3"></path><path style="mix-blend-mode:overlay" fill="url(#wild__z)" d="M1045.5,2119.4c13.4,15.5,16.1,38.3,14.3,58.9-3.6,43.6-24.3,65-46.7,61.6-6-2.5-4.6,2.3-6.8-.9,0,0,51.7-30.4,30.4-99.9,0,0-13.5,20.4-13,44.4,0,0-14-17-5.5-59.5s4.5-76.5-15.5-93.5c0,0-2.8-4.8-2.4-4.7,37.4,16,48.8,47.4,21.3,129.6Z" opacity=".3"></path><path style="mix-blend-mode:overlay" fill="url(#wild__A)" d="M977.6,2414.4s-7.6-117.8,82.2-92.7l11.4-2.8s-23.2-43.1-71-6.3S979.1,2395.3,977.6,2414.4Z" opacity=".3"></path><path style="mix-blend-mode:overlay" fill="url(#wild__B)" d="M1061.1,2428.9s-36.2-101.5,54.6-111.6c0,0-.1-8.6-20.2-8.6,0,0-47.4,7.5-51,65.3S1061.1,2428.9,1061.1,2428.9Z" opacity=".3"></path><path style="mix-blend-mode:overlay" fill="url(#wild__C)" d="M1063.8,2274.7s-21.3,2-24,24.7h-21.1S1032.8,2268.8,1063.8,2274.7Z" opacity=".3"></path><path style="mix-blend-mode:overlay" fill="url(#wild__D)" d="M1128,2282.4s-33.4,10.7-16.4,26.3c0,0-30.4-5.2-39.4,5C1072.2,2313.7,1087.3,2269.6,1128,2282.4Z" opacity=".3"></path></g><g><path style="mix-blend-mode:overlay" fill="url(#wild__E)" d="M2020.6,2123.9c2.6-1.4,4.5-19.3,4.5-19.3,21.6.1,39.1,19.4,39.1,19.4,61,29,85.6,7.2,85.6,7.2-8.5,22-5.6,17.2-5.6,17.2,26.8,3.4,41.7,23,41.7,23h0a49.2,49.2,0,0,1,26,23l4.5,8.3c23.8,7.3,38,10.8,37.6,53,0,0-1.6,8.1-2,7.1-10.3-55.4-47.1-51.7-47.1-51.7a28.7,28.7,0,0,0-3.9-4.5c-1.2-1,1.4-5.4,1.9-6.8s-5-19.2-27.2-22.6c-2.6-.4,2.5,21.2.4,21-3.8-.4-6.8-.9-7.6-2.8-5.4-13-18.1-21.1-29.1-24.6-1.1-.3,12.7,1.1,28.9,6.2,5.3,1.7,7.7-.3,7.4-.8-11.9-14.9-43.9-17.1-43.9-17.1l14.7-22.7c-2,1.5-3.3.4-3.9,2.6-1.1,3.8-5.3,19.7-25.8,18.7-.5-.1,4.5-2.1,9.3-5.5s5.9-7.5,5.4-7.3C2083.8,2165.2,2034.4,2121.4,2020.6,2123.9Z" opacity=".3"></path><path style="mix-blend-mode:overlay" fill="url(#wild__F)" d="M2221.8,2258.3c.3,5.9-4-26.1-32.7-42.9-13.4-7.8-34.1-10.7-58.5-7.9C2130.6,2207.5,2217.6,2171,2221.8,2258.3Z" opacity=".3"></path><path style="mix-blend-mode:overlay" fill="url(#wild__G)" d="M2166.1,2271.4c.3,2.7-29.8-64.1-83.8-59.7C2082.3,2211.7,2158,2188.1,2166.1,2271.4Z" opacity=".3"></path><path style="mix-blend-mode:overlay" fill="url(#wild__H)" d="M2077.3,2176.6s26.3,5.2,25.7,27.4c0,0,18.4-.4,18-1.2S2118.5,2175.3,2077.3,2176.6Z" opacity=".3"></path></g><g><path style="mix-blend-mode:overlay" fill="url(#wild__I)" d="M1836.4,2225.5s-2,18.2,11,28.2,26.1,12.3,23.9,25.4l8.3,4.6,9.1-1.3s19.3,2.5,20,19l-6,6.9,10,13.4s43.6-5.6,59.7,38.7l8-2.5s-16.8-46.6-51.4-55.5h-4s0-24.4-32.2-24.8a102.7,102.7,0,0,0-12.1-21.7c-2.7-3.6-6.8-3.4-10.3-7s-15.3-3.4-19.3-6.2C1844.3,2237.9,1841.5,2233,1836.4,2225.5Z" opacity=".3"></path><path style="mix-blend-mode:overlay" fill="url(#wild__J)" d="M1856.4,2119.4c-13.4,15.5-16.1,38.3-14.4,58.9,3.7,43.6,24.3,65,46.7,61.6,6-2.5,4.7,2.3,6.9-.9,0,0-51.8-30.4-30.5-99.9,0,0,13.6,20.4,13.1,44.4,0,0,14-17,5.5-59.5s14.5-72.2,34.5-89.2a51.7,51.7,0,0,0,2.4-4.6c-19.3,8.5-71.3,38.7-48.7,98.7,3.4,9,9.2,25.7,7.2,29.5Z" opacity=".3"></path><path style="mix-blend-mode:overlay" fill="url(#wild__K)" d="M1924.2,2414.4s7.6-117.8-82.2-92.7l-11.3-2.8s23.1-43.1,71-6.3S1922.7,2395.3,1924.2,2414.4Z" opacity=".3"></path><path style="mix-blend-mode:overlay" fill="url(#wild__L)" d="M1840.7,2428.9s36.2-101.5-54.5-111.6c0,0,.1-8.6,20.2-8.6,0,0,47.4,7.5,51,65.3S1840.7,2428.9,1840.7,2428.9Z" opacity=".3"></path><path style="mix-blend-mode:overlay" fill="url(#wild__M)" d="M1838.1,2274.7s21.2,2,23.9,24.7h21.1S1869,2268.8,1838.1,2274.7Z" opacity=".3"></path><path style="mix-blend-mode:overlay" fill="url(#wild__N)" d="M1773.8,2282.4s33.5,10.7,16.5,26.3c0,0,30.4-5.2,39.4,5C1829.7,2313.7,1814.5,2269.6,1773.8,2282.4Z" opacity=".3"></path></g></g><g><path fill="none" stroke="#31323d" stroke-linecap="round" stroke-linejoin="round" stroke-width="12.29" d="M883.7,2250.2c-81.2-4.7-106.9,41.3-106.9,41.3,14.8-89.3,71.2-87.5,71.2-87.5s36-2.2,38.9,46"></path><path fill="#31323d" d="M821.2,2211.9a44.9,44.9,0,0,0-5.2-3.7,36.1,36.1,0,0,0-5.6-2.7,39.3,39.3,0,0,0-5.8-1.9l-3-.6-1.4-.3h-1.3l-.9-.2-1.3-.2-1.5-.3-3-.4-6-.3-6,.3a54,54,0,0,0-5.8.9,43.7,43.7,0,0,0-20.6,10c-5.8,5.1-10.2,11.8-13.6,19.2a103.9,103.9,0,0,0-7,23.8c-.7,4.1-1.3,8.3-1.7,12.6s-.6,8.5-.7,12.8v2.8h0v-.3a5.2,5.2,0,0,0-.2-1.1,6.1,6.1,0,0,0-1.1-2.1,5.2,5.2,0,0,0-2-1.4,4.9,4.9,0,0,0-4.4.3,4.5,4.5,0,0,0-1.9,1.7,4.1,4.1,0,0,0-.5.9c-.1.3,0,.2,0,.1h0l.3-.8a59.3,59.3,0,0,1,3.1-6.8,49,49,0,0,1,9.3-12,45.1,45.1,0,0,1,5.9-4.7,51.4,51.4,0,0,1,6.4-3.8,64.6,64.6,0,0,1,13.8-4.8,102.2,102.2,0,0,1,28-2.2,6.2,6.2,0,0,1-.5,12.3h-.1a87.2,87.2,0,0,0-24.6,1.9c-7.8,1.8-15,5.1-20.5,10.3a33.3,33.3,0,0,0-6.9,8.9,41.2,41.2,0,0,0-2.4,5.2l-.2.7-.2.4-.7,1.3a5.7,5.7,0,0,1-2.4,2.2,7.3,7.3,0,0,1-6.1.4,8.7,8.7,0,0,1-2.6-1.8,7.3,7.3,0,0,1-1.5-2.9,9.9,9.9,0,0,1-.3-1.5v-.4h0v-3c.1-4.5.3-9,.7-13.6s.9-9,1.7-13.6a113.4,113.4,0,0,1,7.7-26.8,78.2,78.2,0,0,1,7.1-12.6,56.8,56.8,0,0,1,9.9-10.9,51.6,51.6,0,0,1,12.5-8.1,51,51,0,0,1,14.1-4.3,60.1,60.1,0,0,1,7.3-.7c2.4-.1,4.8,0,7.2.1s4.8.6,7.1,1l3.6.8,1.7.5,1.9.6-.9-.2,1.1.2,1,.2,1.8.6,3.6,1.3a41.7,41.7,0,0,1,6.6,3.5,52,52,0,0,1,5.9,4.6,42,42,0,0,1,4.8,5.5,2.5,2.5,0,0,1-3.7,3.4Z"></path><path fill="none" stroke="#31323d" stroke-linecap="round" stroke-linejoin="round" stroke-width="12.5" d="M755.4,2203.3c-21.1-2.1-58-.6-57.6,59.6,0,0,10.4-20.2,32.5-22.8"></path><path fill="none" stroke="#31323d" stroke-linecap="round" stroke-linejoin="round" stroke-width="12.5" d="M906.1,2258.6s9,6.3,74.6.7a144.7,144.7,0,0,0,38.4-9.3"></path><path fill="#31323d" d="M835.3,2161.9l-1.7.2H832l-3.1-.2a26.3,26.3,0,0,1-6.2-1.3,36.2,36.2,0,0,1-11.1-6c-1.6-1.4-3.2-2.9-4.6-4.4a37.5,37.5,0,0,1-3.8-5.1,54.3,54.3,0,0,1-5.6-11l-.3-.8c-.1-.4-.1-.8-.2-1.1a9.7,9.7,0,0,1,.1-2.4,7.7,7.7,0,0,1,2.3-4.1,8.2,8.2,0,0,1,4.6-2.1,10.9,10.9,0,0,1,2.6.3l1.2.4.5.2.3.2,4.6,2a63.5,63.5,0,0,0,9.7,2.8,68.2,68.2,0,0,0,20.7,1.2,101.9,101.9,0,0,0,20.9-4.2l5.1-1.7,4.9-1.9a81.7,81.7,0,0,0,9.3-4.8l4.4-2.9,2.1-1.5,2.3-1.7a61.7,61.7,0,0,1,10.5-6.5,69.7,69.7,0,0,1,23.6-7,6.2,6.2,0,0,1,1.9,12.3h-.1a87.6,87.6,0,0,0-10.1,2.5,59.6,59.6,0,0,0-9.4,3.8,62.2,62.2,0,0,0-8.7,5.4l-2.2,1.7-2.5,1.8c-1.7,1.2-3.4,2.2-5.2,3.3a109.6,109.6,0,0,1-10.8,5.5L874,2137l-5.7,1.8a123.1,123.1,0,0,1-23.6,4.5,80.6,80.6,0,0,1-24.4-1.6,57,57,0,0,1-11.8-4.1,59.5,59.5,0,0,1-5.5-3.1h.7a2.5,2.5,0,0,0,1.2.1,3.7,3.7,0,0,0,2-.9,3.2,3.2,0,0,0,.9-1.7,1.7,1.7,0,0,0,0-1v-.4h-.1c1.9,6.7,4.9,12.9,9.5,17.7a29.1,29.1,0,0,0,8,5.9,34.1,34.1,0,0,0,4.8,1.8l2.5.6h1.2l1.1.2h.4a2.4,2.4,0,0,1,2.2,2.7A2.4,2.4,0,0,1,835.3,2161.9Z"></path><path fill="#31323d" d="M760.1,2170.9a82.3,82.3,0,0,1,9.5-10.1,73.1,73.1,0,0,1,11.5-8.3,92.8,92.8,0,0,1,12.8-6,127.4,127.4,0,0,1,12.9-4,6.3,6.3,0,0,1,7.7,4.3,6.4,6.4,0,0,1-4,7.6l-12.1,4.2a110.6,110.6,0,0,0-11.1,5c-7,3.8-13.4,8.8-20,14.2h-.1a5,5,0,0,1-7.1-7Z"></path><path fill="#31323d" d="M822.4,2207.5V2206a5.9,5.9,0,0,0,.2-1.3l.6-2.4a33.9,33.9,0,0,1,1.5-4.5,35.3,35.3,0,0,1,4.6-8.3,37.7,37.7,0,0,1,14.1-11.7,51,51,0,0,1,8.2-3.1,62.5,62.5,0,0,1,8.4-1.7,79,79,0,0,1,16.8-.4,2.3,2.3,0,0,1,2.3,2.6,2.6,2.6,0,0,1-2.3,2.4h-.1a79.3,79.3,0,0,0-15.4,2.1,60.8,60.8,0,0,0-7.2,2.4,35.5,35.5,0,0,0-6.4,3.4,28.4,28.4,0,0,0-9.6,9.9,27,27,0,0,0-2.5,6.1,19.8,19.8,0,0,0-.6,3.2,10,10,0,0,0-.2,1.6v1.1h0a6.3,6.3,0,1,1-12.5,0Z"></path><path fill="#31323d" d="M870.2,2247.4l.5.4.7.4,1.4,1,2.9,1.7a49.8,49.8,0,0,0,6.3,2.7,30.4,30.4,0,0,0,13,1.5,24.7,24.7,0,0,0,6.5-1.6,26,26,0,0,0,6.3-3,62.3,62.3,0,0,0,11.6-9.3h0a2.5,2.5,0,0,1,3.6,0,2.6,2.6,0,0,1,.4,3,47.1,47.1,0,0,1-10.5,13.2c-1.1,1-2.3,1.8-3.5,2.7l-1.9,1.2-1,.6-1,.5a31.7,31.7,0,0,1-8.6,3.2,39,39,0,0,1-18.3-.5,51.2,51.2,0,0,1-8.5-3.2,38.4,38.4,0,0,1-3.9-2.2,7.6,7.6,0,0,1-1.9-1.2l-1-.7-1.1-.8a6.4,6.4,0,0,1-.9-8.8,6.3,6.3,0,0,1,8.6-1Z"></path><path fill="#31323d" d="M768.8,2193.1l.4-1.1.3-.9c.3-.6.5-1.2.8-1.7a20.6,20.6,0,0,1,1.7-3.3,39,39,0,0,1,4.1-5.9,38.1,38.1,0,0,1,10.9-9.1,41.1,41.1,0,0,1,6.5-2.8l3.4-.9,3.4-.5a49.3,49.3,0,0,1,13.3.2,2.5,2.5,0,0,1,2.1,2.9,2.6,2.6,0,0,1-2.5,2.1h0a44.5,44.5,0,0,0-11.6,1.5l-2.7.9-2.5,1.1a27.1,27.1,0,0,0-11.7,10.9,29.7,29.7,0,0,0-2.4,4.7c-.3.9-.6,1.7-.8,2.5l-.3,1.2-.2.6v.4a6.3,6.3,0,1,1-12.2-2.8Z"></path><path fill="#31323d" d="M732.5,2196.7a10.4,10.4,0,0,1,.3-1.2l.3-.9a12.2,12.2,0,0,0,.7-1.7,32.4,32.4,0,0,1,1.7-3.2,41.3,41.3,0,0,1,4.1-5.9,31.9,31.9,0,0,1,11.4-8.3,33.6,33.6,0,0,1,6.6-2.1,38.1,38.1,0,0,1,6.7-.7,48.5,48.5,0,0,1,12.7,1.4,2.5,2.5,0,0,1,1.9,3,2.5,2.5,0,0,1-2.6,1.9h0a43.3,43.3,0,0,0-11.4.5,30.7,30.7,0,0,0-5.2,1.4,34.2,34.2,0,0,0-4.7,2.3,23.3,23.3,0,0,0-6.9,7.1,20.1,20.1,0,0,0-2.2,4.4c-.3.8-.6,1.6-.8,2.3a5,5,0,0,0-.2,1.2,1.1,1.1,0,0,0-.1.5c0,.2-.1.4,0,.4a6.3,6.3,0,0,1-7.4,4.9A6.2,6.2,0,0,1,732.5,2196.7Z"></path><path fill="none" stroke="#31323d" stroke-linecap="round" stroke-miterlimit="10" stroke-width="12.5" d="M1018,2233a252.4,252.4,0,0,1-90.3-128.3"></path><g><path fill="none" stroke="#31323d" stroke-linecap="round" stroke-linejoin="round" stroke-width="12.29" d="M2069.1,2250.2c81.2-4.7,107,41.3,107,41.3-14.8-89.3-71.3-87.5-71.3-87.5s-36-2.2-38.8,46"></path><path fill="#31323d" d="M2128,2208.5a35.7,35.7,0,0,1,4.8-5.5,44.4,44.4,0,0,1,5.9-4.6,41.7,41.7,0,0,1,6.6-3.5l3.5-1.3,1.9-.6.9-.2,1.2-.2-1,.2,1.9-.6,1.8-.5,3.5-.8c2.4-.4,4.7-.8,7.1-1s4.9-.2,7.3-.1a58.5,58.5,0,0,1,7.2.7,50.7,50.7,0,0,1,14.2,4.3,53.6,53.6,0,0,1,12.5,8.1,60.2,60.2,0,0,1,9.9,10.9,70.8,70.8,0,0,1,7,12.6,113.7,113.7,0,0,1,7.8,26.8c.7,4.6,1.3,9.1,1.7,13.6s.6,9.1.7,13.6v3h0v.4a8.9,8.9,0,0,1-.2,1.5,7.6,7.6,0,0,1-1.6,2.9,6.8,6.8,0,0,1-2.6,1.8,7.1,7.1,0,0,1-6-.4,6.7,6.7,0,0,1-2.5-2.2l-.7-1.3v-.4l-.3-.7a41.2,41.2,0,0,0-2.4-5.2,35,35,0,0,0-6.8-8.9c-5.5-5.2-12.7-8.5-20.5-10.3a87.7,87.7,0,0,0-24.6-1.9h-.1a6.2,6.2,0,0,1-6.4-5.9,6.2,6.2,0,0,1,5.9-6.4h0a102.5,102.5,0,0,1,28,2.2,63.8,63.8,0,0,1,13.7,4.8,61.1,61.1,0,0,1,6.5,3.8,52.9,52.9,0,0,1,5.9,4.7,48.6,48.6,0,0,1,9.2,12,46,46,0,0,1,3.1,6.8l.3.8h.1c0,.1,0,.2-.1-.1a2,2,0,0,0-.5-.9,4.9,4.9,0,0,0-1.8-1.7,5.1,5.1,0,0,0-4.5-.3,4.3,4.3,0,0,0-1.9,1.4,5,5,0,0,0-1.2,2.1,4.5,4.5,0,0,0-.1,1.1v.3h0v-2.8c-.1-4.3-.4-8.6-.8-12.8s-.9-8.5-1.7-12.6a94.8,94.8,0,0,0-7-23.8,55.4,55.4,0,0,0-13.6-19.2,42.9,42.9,0,0,0-20.5-10,55.8,55.8,0,0,0-5.9-.9,56.8,56.8,0,0,0-5.9-.3,60.8,60.8,0,0,0-6.1.3l-3,.4-1.4.3-1.3.2-.9.2h-1.3l-1.5.3a13.6,13.6,0,0,0-2.9.6,40.6,40.6,0,0,0-5.9,1.9,41.1,41.1,0,0,0-5.6,2.7,36.8,36.8,0,0,0-5.1,3.7h-.1a2.5,2.5,0,0,1-3.6-3.4Z"></path><path fill="none" stroke="#31323d" stroke-linecap="round" stroke-linejoin="round" stroke-width="12.5" d="M2197.4,2203.3c21.2-2.1,58.1-.6,57.6,59.6,0,0-10.3-20.2-32.4-22.8"></path><path fill="none" stroke="#31323d" stroke-linecap="round" stroke-linejoin="round" stroke-width="12.5" d="M2046.7,2258.6s-9,6.3-74.5.7c-20.6-1.8-56.1-13.3-56.1-13.3"></path><path fill="#31323d" d="M2118,2157l1.2-.2h1.2l2.5-.6a38,38,0,0,0,4.7-1.8,28.2,28.2,0,0,0,8.1-5.9c4.6-4.8,7.6-11,9.5-17.7,0-.2-.1,0-.1.1v1.4a3.2,3.2,0,0,0,.9,1.7,4.1,4.1,0,0,0,2.1.9,2,2,0,0,0,1.1-.1h.8a59.5,59.5,0,0,1-5.5,3.1,55.8,55.8,0,0,1-11.9,4.1,80.4,80.4,0,0,1-24.4,1.6,123.5,123.5,0,0,1-23.5-4.5l-5.7-1.8-5.7-2.2a111.2,111.2,0,0,1-10.9-5.5l-5.1-3.3-2.5-1.8-2.3-1.7a56.9,56.9,0,0,0-8.7-5.4,59.6,59.6,0,0,0-9.4-3.8,78.5,78.5,0,0,0-10.1-2.5h-.1a6.2,6.2,0,0,1-5-7.2,6.3,6.3,0,0,1,6.9-5.1,70.2,70.2,0,0,1,23.7,7,65.9,65.9,0,0,1,10.5,6.5l2.3,1.7,2.1,1.5,4.4,2.9a81.7,81.7,0,0,0,9.3,4.8l4.9,1.9,5.1,1.7a99.3,99.3,0,0,0,20.9,4.2,67.3,67.3,0,0,0,20.6-1.2,64.7,64.7,0,0,0,9.8-2.8l4.5-2,.4-.2.5-.2a4.2,4.2,0,0,1,1.2-.4,10.9,10.9,0,0,1,2.6-.3,7.9,7.9,0,0,1,4.5,2.1,7.7,7.7,0,0,1,2.3,4.1,6.5,6.5,0,0,1,.1,2.4,5.2,5.2,0,0,1-.2,1.1l-.2.8a60,60,0,0,1-5.6,11,49.1,49.1,0,0,1-3.9,5.1,48.3,48.3,0,0,1-4.6,4.4,36.2,36.2,0,0,1-11.1,6,25.5,25.5,0,0,1-6.1,1.3l-3.1.2h-1.6l-1.7-.2a2.5,2.5,0,0,1-2.2-2.7,2.6,2.6,0,0,1,2.3-2.2Z"></path><path fill="#31323d" d="M2185.5,2177.8c-6.5-5.4-12.9-10.4-20-14.2a93.5,93.5,0,0,0-11.1-5l-12-4.2a6.2,6.2,0,0,1,3.7-11.9c4.2,1.1,8.5,2.4,12.9,4a91.7,91.7,0,0,1,12.7,6,73.1,73.1,0,0,1,11.5,8.3,75.3,75.3,0,0,1,9.5,10.1,4.9,4.9,0,0,1-.8,7,5,5,0,0,1-6.3,0Z"></path><path fill="#31323d" d="M2117.9,2207.5h.1v-.3a2.2,2.2,0,0,0-.1-.8,9.2,9.2,0,0,0-.1-1.6c-.1-1-.4-2.1-.6-3.2a23.4,23.4,0,0,0-2.6-6.1,28,28,0,0,0-9.5-9.9,36.4,36.4,0,0,0-6.5-3.4,55.3,55.3,0,0,0-7.2-2.4,77.2,77.2,0,0,0-15.4-2.1h0a2.6,2.6,0,0,1-2.4-2.7,2.4,2.4,0,0,1,2.4-2.3,77.9,77.9,0,0,1,16.7.4,62.5,62.5,0,0,1,8.4,1.7,52.1,52.1,0,0,1,8.3,3.1,37.7,37.7,0,0,1,14.1,11.7,35.3,35.3,0,0,1,4.6,8.3,33.9,33.9,0,0,1,1.5,4.5,20.5,20.5,0,0,1,.5,2.4,5.9,5.9,0,0,1,.2,1.3v1.5a6.3,6.3,0,1,1-12.5,0Z"></path><path fill="#31323d" d="M2090.6,2257l-1,.8-1,.7a10,10,0,0,1-1.9,1.2,31.1,31.1,0,0,1-4,2.2,50.1,50.1,0,0,1-8.4,3.2,39.4,39.4,0,0,1-18.4.5,33,33,0,0,1-8.6-3.2l-1-.5-.9-.6-1.9-1.2a32.4,32.4,0,0,1-3.5-2.7,45.7,45.7,0,0,1-10.6-13.2,2.6,2.6,0,0,1,1.1-3.5,2.4,2.4,0,0,1,2.9.5h0a62.3,62.3,0,0,0,11.6,9.3,30,30,0,0,0,6.3,3,24.7,24.7,0,0,0,6.5,1.6,30.9,30.9,0,0,0,13.1-1.5,48.5,48.5,0,0,0,6.2-2.7l3-1.7,1.4-1,.6-.4.5-.4.3-.2a6.2,6.2,0,0,1,7.7,9.8Z"></path><path fill="#31323d" d="M2171.9,2195.9c0,.1-.1-.2-.1-.4v-.6l-.3-1.2c-.3-.8-.5-1.6-.9-2.5a29.2,29.2,0,0,0-2.3-4.7,27.1,27.1,0,0,0-7.1-8,27.4,27.4,0,0,0-4.6-2.9l-2.6-1.1a21.4,21.4,0,0,0-2.7-.9,43.7,43.7,0,0,0-11.5-1.5h-.1a2.5,2.5,0,0,1-2.5-2.5,2.6,2.6,0,0,1,2.1-2.5,50,50,0,0,1,13.4-.2l3.4.5,3.3.9a41.1,41.1,0,0,1,6.5,2.8,38.5,38.5,0,0,1,11,9.1,47.8,47.8,0,0,1,4.1,5.9,34.1,34.1,0,0,1,1.7,3.3c.2.5.5,1.1.7,1.7l.4.9a5.3,5.3,0,0,1,.3,1.1,6.2,6.2,0,1,1-12.1,2.8Z"></path><path fill="#31323d" d="M2208.1,2199.1v-.4a.7.7,0,0,1-.1-.5l-.3-1.2c-.2-.7-.4-1.5-.7-2.3a25.8,25.8,0,0,0-2.2-4.4,23.7,23.7,0,0,0-7-7.1,32.9,32.9,0,0,0-4.6-2.3,31.8,31.8,0,0,0-5.3-1.4,42.3,42.3,0,0,0-11.3-.5h0a2.5,2.5,0,0,1-2.7-2.3,2.4,2.4,0,0,1,1.9-2.6,49.3,49.3,0,0,1,12.8-1.4,37,37,0,0,1,6.6.7,29.9,29.9,0,0,1,6.6,2.1,31.1,31.1,0,0,1,11.4,8.3,35.1,35.1,0,0,1,4.2,5.9,31.8,31.8,0,0,1,1.6,3.2,12.2,12.2,0,0,1,.7,1.7l.3.9c.1.4.2.6.4,1.2a6.3,6.3,0,0,1-5,7.3A6.2,6.2,0,0,1,2208.1,2199.1Z"></path><path fill="none" stroke="#31323d" stroke-linecap="round" stroke-miterlimit="10" stroke-width="12.5" d="M1934.9,2233a251.6,251.6,0,0,0,90.2-128.3"></path><path fill="none" stroke="#31323d" stroke-linecap="round" stroke-miterlimit="10" stroke-width="12.5" d="M2025.1,2104.6a252.3,252.3,0,0,1-108.2,140.7"></path></g><g><path fill="#31323d" d="M1199.3,2265.7a67.2,67.2,0,0,0,7.3-16.7,73.5,73.5,0,0,0,2.8-18.1,90.5,90.5,0,0,0-1.2-18.7c-.5-3-1.2-6.1-2-9.1-.4-1.5-.8-3-1.3-4.5l-.7-2.2-.4-1-.4-1h0a4.8,4.8,0,0,1-.5-1.7v-3.1a24.4,24.4,0,0,0-.1-2.7v-5.2c.1-1.7.1-3.4.2-5.1s.1-3.5.2-5.2c.4-6.8,1.1-13.5,1.8-20.3,1.6-13.4,3.6-26.7,5.8-40.1l3.6-19.8c1.3-6.7,2.5-13.3,3.9-19.9,2.7-13.2,5.6-26.3,8.7-39.4a2.5,2.5,0,0,1,3-1.9,2.6,2.6,0,0,1,1.9,2.8h0l-5.2,39.9q-2.6,20-4.8,39.9c-1.5,13.3-2.8,26.6-3.9,39.8-.3,3.3-.6,6.7-.8,10l-.4,4.9-.4,5-.3,4.9-.3,4.9c0,1.6-.1,3.3-.1,4.9v4.5l-.5-2h0a9.8,9.8,0,0,0,.6,1.4l.4,1.3.9,2.6q.8,2.4,1.5,5.1c.9,3.4,1.6,6.8,2.2,10.3a99,99,0,0,1,1.4,21.1,85.9,85.9,0,0,1-3.3,21.2,78.6,78.6,0,0,1-8.6,19.7,6.2,6.2,0,1,1-10.7-6.4Z"></path><path fill="none" stroke="#31323d" stroke-linecap="round" stroke-linejoin="round" stroke-width="12.5" d="M1129,2350.9c2.2-43.8-35.2-44.4-35.2-44.4s-44.8,9-51.3,61.6c-5.8,47,20,62.2,20,62.2s13.2-90.9,66.6-77"></path><path fill="none" stroke="#31323d" stroke-linecap="round" stroke-linejoin="round" stroke-width="12.5" d="M1043.4,2344.9c-49.9-5.3-63.5,69.5-63.5,69.5s-16.9-16.1-4.7-61.8c13.8-51.2,60.4-51.2,60.4-51.2,7.8,0,11.5-.1,18.8,3,0,0,9.1,5.1,13.1,11.3"></path><path fill="#31323d" d="M1173.3,2210.9a56.8,56.8,0,0,1,7.4,3.7,64.5,64.5,0,0,1,6.9,4.7,58.6,58.6,0,0,1,11.6,12.2,70.1,70.1,0,0,1,4.4,7.5,63.4,63.4,0,0,1,3,8.3,52,52,0,0,1,1.4,8.8l.4,7.9c0,1.2.2,2.4.3,3.6l.2,1.8a11,11,0,0,0,.2,1.8c.2,1.2.3,2.4.5,3.6l.7,3.6a80.1,80.1,0,0,0,4.1,13.7,62.2,62.2,0,0,0,6.4,12.3,27.7,27.7,0,0,0,8.9,8.3l.6.4a6.2,6.2,0,0,1-2.4,11.6h0l-1.4.2h-1.2l-2.3.2h-4.7a58.8,58.8,0,0,1-9.2-1,59.9,59.9,0,0,1-17.6-5.9,50.1,50.1,0,0,1-7.9-5,13,13,0,0,1-1.8-1.5l-1.8-1.5-1.7-1.6-1.6-1.7a45.7,45.7,0,0,1-9.3-15.7,2.5,2.5,0,0,1,1.6-3.2,2.7,2.7,0,0,1,2.7.7h.1a69.2,69.2,0,0,0,11.6,10.8,53.6,53.6,0,0,0,13.3,7.2,74.3,74.3,0,0,0,14.7,4c2.5.4,5.1.7,7.6.9l3.9.2h3.5l-1.7,11.9a27.1,27.1,0,0,1-4.5-2.3l-2-1.4-1.9-1.5-.9-.7-.8-.8-1.6-1.7a43.8,43.8,0,0,1-2.9-3.4l-2.6-3.6-2.2-3.8-2-3.8c-.6-1.3-1.1-2.7-1.7-4a95.4,95.4,0,0,1-6.2-32.8v-7.7a38.1,38.1,0,0,0-.7-6.7,53.3,53.3,0,0,0-1.7-6.6,39.6,39.6,0,0,0-2.9-6.3,52,52,0,0,0-8.3-11.7,64.7,64.7,0,0,0-5.2-5.3l-2.8-2.5-2.9-2.2h-.1a2.6,2.6,0,0,1-.5-3.6A2.5,2.5,0,0,1,1173.3,2210.9Z"></path><path fill="#31323d" d="M1168.7,2327.4a28,28,0,0,1,.3,4,25.4,25.4,0,0,1,0,3.9,49.1,49.1,0,0,1-.9,7.7c-.2,1.3-.5,2.6-.8,3.9s-.7,2.5-1.1,3.8a51.6,51.6,0,0,1-2.9,7.4,49,49,0,0,1-9.3,13.3,65.5,65.5,0,0,1-12.8,10.1,69,69,0,0,1-14.8,6.4l-3.8,1.1a27,27,0,0,1-3.9.8,68.8,68.8,0,0,1-7.7,1.3c-1.3.2-2.6.2-3.9.3l-3.9.3h-7.7l-7.7-.5-7.6-.8a6.2,6.2,0,0,1,1.3-12.4h.2a128.3,128.3,0,0,0,27.7.1,67.5,67.5,0,0,0,25.3-7.9,48.6,48.6,0,0,0,10.3-7.7,80.3,80.3,0,0,0,8.2-10.1,71.5,71.5,0,0,0,6.4-11.9c.9-2.1,1.6-4.3,2.3-6.5s.7-2.3,1-3.4.6-2.3.8-3.3v-.2a2.5,2.5,0,0,1,4.9.2Z"></path><path fill="none" stroke="#31323d" stroke-linecap="round" stroke-linejoin="round" stroke-width="12.5" d="M1194.8,2314.1c8.8,16.4,5.6,40.9-13.9,59.9,0,0,0-21.8-16.5-25.1"></path><path fill="none" stroke="#31323d" stroke-linecap="round" stroke-linejoin="round" stroke-width="12.5" d="M1005.8,2362.8s16.9,9.5,32.9,11.2"></path><path fill="#31323d" d="M1052.4,2113.6l-8.2,17.2c-2.6,5.7-5.2,11.5-7.3,17.3a90.6,90.6,0,0,0-2.9,8.8c-.9,2.9-1.7,5.9-2.3,8.8s-1.1,5.9-1.5,8.8a64.3,64.3,0,0,0-.3,8.7v.4a6.2,6.2,0,0,1-6.2,6.2,6.2,6.2,0,0,1-4.9-2.4l-.4-.5-.3-.4-.5-.7-.9-1.3-1.5-2.7c-.9-1.8-1.6-3.6-2.3-5.4a65.3,65.3,0,0,1-3-11.1,92.3,92.3,0,0,1-1.2-22.2c.2-3.6.5-7.3,1-10.9l.9-5.3,1-5.3c1.3-6.5,2.4-13.1,3.1-19.7,1.4-13.2,1.3-26.5-1.6-39.1a86.5,86.5,0,0,0-6.4-18.3,103.7,103.7,0,0,0-10.6-16.9h0a2.5,2.5,0,0,1,3.6-3.5,73.9,73.9,0,0,1,14.6,15.9,77.2,77.2,0,0,1,9.6,19.8,93.7,93.7,0,0,1,4.1,21.6,142.9,142.9,0,0,1,0,21.7c-.6,7.1-1.6,14.2-2.9,21.2l-.9,4.9c-.2,1.7-.5,3.3-.7,4.9-.5,3.3-.8,6.5-1,9.8a93.2,93.2,0,0,0,.7,19.1,67,67,0,0,0,2.1,9.1c.4,1.4,1,2.8,1.5,4.1l.9,1.9.5.9.2.4h.1l-11.1,4.2a71.5,71.5,0,0,1,2.4-20.8c.9-3.3,1.9-6.5,3-9.7s2.5-6.3,3.9-9.3a146.8,146.8,0,0,1,9.5-17.5q2.7-4.2,5.7-8.1a66.9,66.9,0,0,1,6.5-7.6,2.5,2.5,0,0,1,3.5-.1,2.7,2.7,0,0,1,.6,2.9Z"></path><path fill="#31323d" d="M1066.1,2224.3a45.3,45.3,0,0,1-2.1,5.9,47.3,47.3,0,0,1-2.8,5.5,61.8,61.8,0,0,1-3.6,5.3,48.1,48.1,0,0,1-4.4,4.7,43.3,43.3,0,0,1-5.2,4.2,39.1,39.1,0,0,1-6.1,3.2,34,34,0,0,1-13.8,2.3,40.1,40.1,0,0,1-13.1-3.3,53.9,53.9,0,0,1-5.9-2.9l-2.7-1.6-1.4-.8-.3-.2h-.3l-.2-.2a7.7,7.7,0,0,1-2.8-3.6,6.6,6.6,0,0,1-.2-3.9,8.3,8.3,0,0,1,1.1-2.9,11.5,11.5,0,0,1,2.1-2.3,8.2,8.2,0,0,1,3.3-1.3l1.3-.4a21.7,21.7,0,0,0,3.8-2.2,40.1,40.1,0,0,0,7.3-7,65.3,65.3,0,0,0,10.8-18,77.8,77.8,0,0,0,5.3-20.7c1.7-14.2-.5-28.9-5.3-42.7a6.3,6.3,0,0,1,3.9-8,6.2,6.2,0,0,1,7.9,3.9h0c5.3,15.3,7.8,31.8,5.9,48.3a87.3,87.3,0,0,1-6.1,24,82.5,82.5,0,0,1-12.9,21.4,57.8,57.8,0,0,1-9.5,8.9,30.6,30.6,0,0,1-6.2,3.6,22,22,0,0,1-4.1,1.2,4.1,4.1,0,0,0,1.9-.8,3.8,3.8,0,0,0,1.1-1.1,4.4,4.4,0,0,0,.6-1.6,3.7,3.7,0,0,0-.2-2.5,5.2,5.2,0,0,0-1.8-2.5h.3l1.2.7,2.2,1.3a30.5,30.5,0,0,0,4.6,2,31.2,31.2,0,0,0,9.3,2.1,26.9,26.9,0,0,0,8.9-.8,17.9,17.9,0,0,0,4.4-1.6,20.4,20.4,0,0,0,4.3-2.4c5.6-3.6,10.7-9.2,14.9-15.1v-.2a2.5,2.5,0,0,1,3.5-.6A2.7,2.7,0,0,1,1066.1,2224.3Z"></path><path fill="#31323d" d="M1006.9,2275a52.8,52.8,0,0,1,2.8-10.7,40.9,40.9,0,0,1,6-10,34.3,34.3,0,0,1,9-7.5,46.3,46.3,0,0,1,10.4-4.2,6.3,6.3,0,0,1,3.5,12h-.3a33.7,33.7,0,0,0-7.3,2.9,22.5,22.5,0,0,0-5.8,4.8,25,25,0,0,0-3.9,6.5,39.7,39.7,0,0,0-2,7.9h0a6.2,6.2,0,0,1-7.1,5.2A6.2,6.2,0,0,1,1006.9,2275Z"></path><path fill="none" stroke="#31323d" stroke-linecap="round" stroke-linejoin="round" stroke-width="12.5" d="M1014.4,2304.4s-86.5-19-93,72.8c0,0,14.3-31.7,52.6-31.1"></path><path fill="#31323d" d="M1065.7,2313c.1-.7.2-1.1.3-1.6l.3-1.3a25.8,25.8,0,0,1,.8-2.6,40.9,40.9,0,0,1,1.8-4.9,54.8,54.8,0,0,1,5.2-9.2,40.3,40.3,0,0,1,16.2-13.6,39.5,39.5,0,0,1,9.9-3.2l2.5-.4,1.3-.2h1.3l2.5-.2h2.5a73.5,73.5,0,0,1,19.4,3.1,2.6,2.6,0,0,1,1.7,3.1,2.6,2.6,0,0,1-2.9,1.8h0a68.4,68.4,0,0,0-18-1.1l-2.2.2-2.1.4-1.1.2-1,.2-2.1.6a35.1,35.1,0,0,0-7.7,3.3,31.7,31.7,0,0,0-11.3,11.7,46,46,0,0,0-3.3,7.5c-.4,1.3-.7,2.7-1,4a17.7,17.7,0,0,0-.4,2v1a2.8,2.8,0,0,0-.1.8,6.3,6.3,0,0,1-12.6.8,3.3,3.3,0,0,1,0-1.4Z"></path><path fill="#31323d" d="M1011.7,2305c0-.3,0-.4.1-.5v-1.1a5,5,0,0,0,.2-1.2,20.5,20.5,0,0,1,.5-2.4,35,35,0,0,1,1.4-4.6,40.7,40.7,0,0,1,4.5-8.2,37,37,0,0,1,14.1-11.5,54.4,54.4,0,0,1,16.5-4.7,91.1,91.1,0,0,1,16.5-.3,2.5,2.5,0,0,1,2.3,2.6,2.6,2.6,0,0,1-2.3,2.4h-.1a84.3,84.3,0,0,0-15.2,2.1,43.8,43.8,0,0,0-13.5,5.6,27.8,27.8,0,0,0-9.4,9.6,23.5,23.5,0,0,0-2.4,6,18,18,0,0,0-.6,3.2c0,.5-.1,1-.1,1.5v1.1h0a6.3,6.3,0,0,1-6.1,6.4A6.3,6.3,0,0,1,1011.7,2305Z"></path><path fill="#31323d" d="M972.5,2298.2l.4-1.3a4.2,4.2,0,0,1,.4-1,16.7,16.7,0,0,1,.8-2,21.6,21.6,0,0,1,1.9-3.7,29.3,29.3,0,0,1,5-6.7,26.2,26.2,0,0,1,6.8-5.2,26.6,26.6,0,0,1,8-2.9,34.8,34.8,0,0,1,15.8,1.1,61.2,61.2,0,0,1,13.6,5.8,2.5,2.5,0,0,1,1,3.4,2.5,2.5,0,0,1-3.1,1.1h0a57.4,57.4,0,0,0-13-3.6,27.5,27.5,0,0,0-12.2.7,17.8,17.8,0,0,0-8.9,6.5,21.9,21.9,0,0,0-2.7,5,23.1,23.1,0,0,0-1,2.8l-.3,1.3-.2.7v.5a6.4,6.4,0,0,1-7.4,4.9A6.3,6.3,0,0,1,972.5,2298.2Z"></path><path fill="#31323d" d="M1120.1,2370.8l.8-1.2a6.4,6.4,0,0,0,.8-1.4l.8-1.3.6-1.5a25.1,25.1,0,0,0,1.6-5.8,21.7,21.7,0,0,0-.1-5.7,23.3,23.3,0,0,0-1.6-5.3v-.3a6.3,6.3,0,1,1,11.8-4.6,3.9,3.9,0,0,1,.4,1.8c.1,1.5.3,2.9.3,4.3a29.5,29.5,0,0,1-.2,4.2,31.1,31.1,0,0,1-2.1,8.1,34,34,0,0,1-4.1,6.9l-1.2,1.5-1.4,1.4a8.6,8.6,0,0,1-1.4,1.3l-1.6,1.3a2.4,2.4,0,0,1-3.5-.5,2.4,2.4,0,0,1-.1-2.9Z"></path></g><g><path fill="#31323d" d="M1691.9,2272.2a84.5,84.5,0,0,1-8.7-19.7,90.8,90.8,0,0,1-3.3-21.2,114,114,0,0,1,1.4-21.1c.6-3.5,1.4-6.9,2.3-10.4a41.3,41.3,0,0,1,1.5-5,25.8,25.8,0,0,1,.8-2.6l.5-1.3c.2-.4.3-.8.6-1.4h0l-.5,2.4v-5l-.3-5.1c-.3-3.4-.6-6.9-.8-10.3l-.9-10.4-.5-5.2-.5-5.1c-1.4-13.9-2.7-27.8-4.4-41.7s-3.4-27.7-5.1-41.6l-5.5-41.7a2.5,2.5,0,0,1,2.1-2.8,2.5,2.5,0,0,1,2.8,1.9c1.6,6.9,3.1,13.7,4.7,20.6s2.9,13.7,4.3,20.6l4.1,20.7c1.2,6.9,2.5,13.8,3.7,20.7,2.3,13.9,4.5,27.8,6.2,41.8.9,7.1,1.6,14.1,2.1,21.2.3,3.5.5,7,.7,10.6,0,1.8.1,3.6.1,5.4v6a5.8,5.8,0,0,1-.4,1.9h-.1l-.3,1-.4,1a18.7,18.7,0,0,0-.7,2.2,38.1,38.1,0,0,0-1.3,4.5,92.1,92.1,0,0,0-2,9.1,97.6,97.6,0,0,0-1.3,18.6,84.2,84.2,0,0,0,2.8,18.2,71.1,71.1,0,0,0,7.3,16.7h.1a6.2,6.2,0,0,1-2.2,8.6A6.1,6.1,0,0,1,1691.9,2272.2Z"></path><path fill="none" stroke="#31323d" stroke-linecap="round" stroke-linejoin="round" stroke-width="12.5" d="M1772.9,2350.9c-2.2-43.8,35.1-44.4,35.1-44.4s44.9,9,51.4,61.6c5.8,47-20.1,62.2-20.1,62.2s-13.2-90.9-66.5-77"></path><path fill="none" stroke="#31323d" stroke-linecap="round" stroke-linejoin="round" stroke-width="12.5" d="M1858.4,2344.9c49.9-5.3,63.6,69.5,63.6,69.5s16.9-16.1,4.6-61.8c-13.7-51.2-60.4-51.2-60.4-51.2-7.7,0-11.5-.1-18.8,3,0,0-9,5.1-13,11.3"></path><path fill="#31323d" d="M1730.8,2215.4c-.9.6-1.9,1.5-2.8,2.2l-2.8,2.5c-1.9,1.7-3.6,3.5-5.3,5.3a59.2,59.2,0,0,0-8.3,11.7,50.4,50.4,0,0,0-2.8,6.3,53.9,53.9,0,0,0-1.8,6.6,50.5,50.5,0,0,0-.6,6.7v7.7a90.9,90.9,0,0,1-6.2,32.8c-.5,1.3-1.1,2.7-1.7,4l-1.9,3.8c-.7,1.3-1.5,2.5-2.3,3.8l-2.5,3.6-2.9,3.4-1.6,1.7-.9.8-.9.7-1.8,1.5-2,1.4a31.7,31.7,0,0,1-4.5,2.3l-1.8-11.9h3.6l3.8-.2c2.6-.2,5.1-.5,7.6-.9a72.5,72.5,0,0,0,14.7-4,56.1,56.1,0,0,0,13.4-7.2,73.3,73.3,0,0,0,11.6-10.8h.1a2.5,2.5,0,0,1,3.5-.2,2.6,2.6,0,0,1,.8,2.7,46,46,0,0,1-9.4,15.7l-1.5,1.7-1.7,1.6-1.8,1.5-1.8,1.5a55.1,55.1,0,0,1-7.9,5,59.5,59.5,0,0,1-17.7,5.9,56.3,56.3,0,0,1-9.2,1h-4.6l-2.4-.2h-1.2l-1.3-.2h0a6.2,6.2,0,0,1-2.5-11.6l.7-.4a28.5,28.5,0,0,0,8.8-8.3,57.7,57.7,0,0,0,6.5-12.3,103.3,103.3,0,0,0,4.1-13.7l.6-3.6c.2-1.2.4-2.4.5-3.6l.3-1.8.2-1.8.3-3.6.3-7.9a52.2,52.2,0,0,1,1.5-8.8,51.6,51.6,0,0,1,3-8.3,55.7,55.7,0,0,1,16-19.7,75.1,75.1,0,0,1,6.8-4.7,58.1,58.1,0,0,1,7.5-3.7,2.5,2.5,0,0,1,3.2,1.4,2.6,2.6,0,0,1-.8,3Z"></path><path fill="#31323d" d="M1738.1,2327.4c.3,1,.5,2.2.8,3.3l1,3.4c.7,2.2,1.5,4.4,2.4,6.5a64.8,64.8,0,0,0,6.4,11.9,72.4,72.4,0,0,0,8.2,10.1,48,48,0,0,0,10.2,7.7,68.1,68.1,0,0,0,25.3,7.9,128.3,128.3,0,0,0,27.7-.1h.2a6.2,6.2,0,0,1,1.3,12.4l-7.6.8-7.6.5h-7.7l-3.9-.3c-1.3-.1-2.6-.1-3.9-.3a70.5,70.5,0,0,1-7.8-1.3,23.3,23.3,0,0,1-3.8-.8l-3.9-1.1a68.2,68.2,0,0,1-14.7-6.4,62.6,62.6,0,0,1-12.8-10.1,49,49,0,0,1-9.3-13.3,52.1,52.1,0,0,1-3-7.4c-.4-1.3-.7-2.6-1.1-3.8s-.6-2.6-.8-3.9a49,49,0,0,1-.8-7.7c-.1-1.3-.1-2.6-.1-3.9s.1-2.6.3-4a2.7,2.7,0,0,1,2.9-2.2,2.9,2.9,0,0,1,2.1,1.9Z"></path><path fill="none" stroke="#31323d" stroke-linecap="round" stroke-linejoin="round" stroke-width="12.5" d="M1707,2314.1c-8.8,16.4-5.5,40.9,13.9,59.9,0,0,0-21.8,16.6-25.1"></path><path fill="none" stroke="#31323d" stroke-linecap="round" stroke-linejoin="round" stroke-width="12.5" d="M1896,2362.8s-16.8,9.5-32.8,11.2"></path><path fill="#31323d" d="M1853.5,2110.7a78.9,78.9,0,0,1,6.5,7.6c2,2.6,3.8,5.3,5.6,8.1a147.3,147.3,0,0,1,9.6,17.5c1.3,3,2.7,6.1,3.8,9.3s2.2,6.4,3,9.7a65.2,65.2,0,0,1,2.4,20.8l-11-4.2h0v-.2l.2-.3a4.1,4.1,0,0,1,.5-.9l.9-1.9a40.9,40.9,0,0,0,1.6-4.2,66.8,66.8,0,0,0,2-9.1,95.1,95.1,0,0,0,.7-19.3c-.2-3.3-.6-6.5-1-9.8-.2-1.7-.5-3.3-.8-4.9l-.9-5.1a75.8,75.8,0,0,1-.8-22.8,85.4,85.4,0,0,1,5.7-21.8,109.5,109.5,0,0,1,10.7-19.3c8.3-11.9,18.3-22.1,28.8-31.4a2.6,2.6,0,0,1,3.6.2,2.6,2.6,0,0,1,.1,3.2c-8,11.4-16.4,22.4-23.1,34s-11.5,23.8-12.6,36.5a70.7,70.7,0,0,0,1.1,18.9l1,5.1.9,5.4a99.9,99.9,0,0,1,1.1,11,102.8,102.8,0,0,1,.1,11.1,72.5,72.5,0,0,1-1.3,11.3,57.2,57.2,0,0,1-3,11.1,29.6,29.6,0,0,1-2.4,5.5,18.2,18.2,0,0,1-1.5,2.7c-.3.4-.5.9-.9,1.4l-.5.7-.3.4-.4.5a6.2,6.2,0,0,1-11-3.9v-.4a87.1,87.1,0,0,0-.4-8.7c-.3-2.9-.8-5.8-1.4-8.8s-1.4-5.9-2.3-8.8-1.9-5.9-3-8.8c-2.1-5.8-4.6-11.6-7.3-17.3s-5.4-11.5-8.2-17.2h0a2.5,2.5,0,0,1,4.1-2.8Z"></path><path fill="#31323d" d="M1840.4,2222.4c4.2,5.9,9.3,11.5,14.9,15.1a19.7,19.7,0,0,0,4.2,2.4,21.4,21.4,0,0,0,4.4,1.6,27.5,27.5,0,0,0,9,.8,31.3,31.3,0,0,0,9.2-2.1,26.7,26.7,0,0,0,4.6-2l2.3-1.3,1.1-.7h.4a4.8,4.8,0,0,0-1.9,2.5,5.7,5.7,0,0,0-.2,2.5,7.6,7.6,0,0,0,.6,1.6,4.3,4.3,0,0,0,1.2,1.1,3.7,3.7,0,0,0,1.9.8,21,21,0,0,1-4.2-1.2,37.3,37.3,0,0,1-6.2-3.6,57.1,57.1,0,0,1-9.4-8.9,79.8,79.8,0,0,1-12.9-21.4,91.2,91.2,0,0,1-6.2-24c-1.9-16.5.6-33,5.9-48.3h0a6.2,6.2,0,1,1,11.8,4.1c-4.8,13.8-6.9,28.5-5.3,42.7a81.8,81.8,0,0,0,5.3,20.7,65.6,65.6,0,0,0,10.9,18,40.1,40.1,0,0,0,7.3,7,21.1,21.1,0,0,0,3.7,2.2l1.4.4a8.3,8.3,0,0,1,3.2,1.3,7.6,7.6,0,0,1,2.1,2.3,6.9,6.9,0,0,1,1.2,2.9,7.6,7.6,0,0,1-.3,3.9,8.2,8.2,0,0,1-2.7,3.6l-.3.2h-.2l-.4.2-1.3.8-2.8,1.6a52.3,52.3,0,0,1-5.8,2.9,40.7,40.7,0,0,1-13.2,3.3,34.6,34.6,0,0,1-13.8-2.3,44.2,44.2,0,0,1-6.1-3.2,53,53,0,0,1-5.2-4.2,46.9,46.9,0,0,1-4.3-4.7,45,45,0,0,1-3.6-5.3,35.5,35.5,0,0,1-2.8-5.5,34.2,34.2,0,0,1-2.1-5.9,2.4,2.4,0,0,1,1.7-3,2.6,2.6,0,0,1,2.8.9Z"></path><path fill="#31323d" d="M1882.6,2276.8a39.8,39.8,0,0,0-2.1-7.9,25,25,0,0,0-3.9-6.5,22.1,22.1,0,0,0-5.7-4.8,34.5,34.5,0,0,0-7.4-2.9h-.2a6.4,6.4,0,0,1-4.3-7.8,6.2,6.2,0,0,1,7.7-4.2,47,47,0,0,1,10.5,4.2,35.4,35.4,0,0,1,14.9,17.5,47,47,0,0,1,2.8,10.7,6.2,6.2,0,0,1-12.3,1.9Z"></path><path fill="none" stroke="#31323d" stroke-linecap="round" stroke-linejoin="round" stroke-width="12.5" d="M1887.5,2304.4s86.4-19,92.9,72.8c0,0-14.2-31.7-52.5-31.1"></path><path fill="#31323d" d="M1823.8,2314.5c0-.1-.1-.5-.1-.8v-1c-.1-.6-.3-1.3-.4-2s-.7-2.7-1.1-4a33.5,33.5,0,0,0-3.3-7.5,31,31,0,0,0-11.3-11.7,32.4,32.4,0,0,0-7.6-3.3l-2.1-.6-1.1-.2-1-.2-2.2-.4-2.2-.2a67.9,67.9,0,0,0-17.9,1.1h-.1a2.5,2.5,0,0,1-1.1-4.9,73.5,73.5,0,0,1,19.4-3.1h2.5l2.5.2h1.3l1.2.2,2.6.4a40.8,40.8,0,0,1,26,16.8,43.7,43.7,0,0,1,5.2,9.2c.7,1.6,1.3,3.2,1.9,4.9a25,25,0,0,1,.7,2.6,6.5,6.5,0,0,1,.4,1.3c.1.5.2.9.3,1.6v.9a6.2,6.2,0,0,1-5.2,7.2,6.3,6.3,0,0,1-7.3-5.2A6.5,6.5,0,0,1,1823.8,2314.5Z"></path><path fill="#31323d" d="M1877.6,2304.7h0c0-.1.1-.2.1-.4a2,2,0,0,0-.1-.7,7.6,7.6,0,0,0-.1-1.5c-.1-1.1-.3-2.1-.5-3.2a34.1,34.1,0,0,0-2.4-6,27.8,27.8,0,0,0-9.4-9.6,44.3,44.3,0,0,0-13.6-5.6,84.3,84.3,0,0,0-15.2-2.1h0a2.6,2.6,0,0,1-2.4-2.7,2.6,2.6,0,0,1,2.4-2.3,91.3,91.3,0,0,1,16.5.3,56.1,56.1,0,0,1,16.5,4.7,36.7,36.7,0,0,1,14,11.5,32.8,32.8,0,0,1,4.5,8.2,35.3,35.3,0,0,1,1.5,4.6c.1.8.3,1.6.4,2.4a5,5,0,0,1,.2,1.2v1.6a6.3,6.3,0,0,1-6.4,6.1A6.3,6.3,0,0,1,1877.6,2304.7Z"></path><path fill="#31323d" d="M1917.1,2300.7a2,2,0,0,1-.1-.5v-.7a6.5,6.5,0,0,0-.4-1.3,13.1,13.1,0,0,0-.9-2.8,22.2,22.2,0,0,0-2.8-5,17.9,17.9,0,0,0-8.8-6.5,27.9,27.9,0,0,0-12.3-.7,56.6,56.6,0,0,0-12.9,3.6h0a2.5,2.5,0,0,1-2.2-4.5,64.1,64.1,0,0,1,13.7-5.8,34.2,34.2,0,0,1,15.7-1.1,25.6,25.6,0,0,1,8,2.9,23.2,23.2,0,0,1,6.8,5.2,33,33,0,0,1,5.1,6.7c.7,1.2,1.3,2.5,1.9,3.7l.8,2a4.2,4.2,0,0,0,.4,1,13,13,0,0,1,.3,1.3,6.2,6.2,0,1,1-12.2,2.5Z"></path><path fill="#31323d" d="M1778.5,2374.5a7,7,0,0,1-1.6-1.3l-1.5-1.3-1.3-1.4-1.3-1.5a33.6,33.6,0,0,1-4-6.9,27.6,27.6,0,0,1-2.1-8.1,19.8,19.8,0,0,1-.3-4.2c0-1.4.2-2.8.3-4.3a6.3,6.3,0,0,1,6.8-5.8,6.4,6.4,0,0,1,5.9,6.8,11.6,11.6,0,0,1-.4,1.8l-.2.3a23.1,23.1,0,0,0-1.5,5.3,21.7,21.7,0,0,0-.1,5.7,20.7,20.7,0,0,0,1.5,5.8l.7,1.5a8.3,8.3,0,0,0,.7,1.3c.3.5.5,1,.8,1.4l.9,1.2.2.3a2.5,2.5,0,0,1-.6,3.5A2.4,2.4,0,0,1,1778.5,2374.5Z"></path></g></g></g></g><g id="item_f"></g><g id="eye"><defs><linearGradient id="eyeColor1" x2="0%" y2="100%"><stop offset="0%" stop-color="#b8bdff"></stop></linearGradient><linearGradient id="eyeColor2" x2="0%" y2="100%"><stop offset="0%" stop-color="#b8bdff"></stop></linearGradient></defs><defs><clipPath id="eyeClipPath"><circle cx="1696" cy="1101.3" r="129.7" transform="rotate(-70.1 1696.3476747 1101.3067021)" fill="#fff" stroke="#31323d" stroke-linecap="round" stroke-miterlimit="10" stroke-width="10"></circle></clipPath><clipPath id="eyeClipPath2"><circle cx="1168.9" cy="1127" r="129.7" transform="matrix(.95 -.31 .31 .95 -292.63 419.62)" fill="#fff" stroke="#31323d" stroke-linecap="round" stroke-miterlimit="10" stroke-width="10"></circle></clipPath></defs><circle cx="1696" cy="1101.3" r="129.7" transform="rotate(-70.1 1696.3476747 1101.3067021)" fill="#fff"></circle><g clip-path="url(#eyeClipPath)"><circle cx="1698.3" cy="1104.1" r="49.5" transform="rotate(-9.5 1704.4327591 1107.409399)" fill="url(#eyeColor1)"></circle><circle cx="1687" cy="1108.9" r="33.2" transform="matrix(.99 -.17 .17 .99 -159.55 296.31)" fill="#31323d"></circle><circle cx="1715" cy="1069.9" r="21.6" transform="rotate(-9.5 1721.22257477 1073.05726315)" fill="#fff"></circle></g><circle cx="1696" cy="1101.3" r="129.7" transform="rotate(-70.1 1696.3476747 1101.3067021)" fill="none" stroke="#31323d" stroke-linecap="round" stroke-miterlimit="10" stroke-width="10"></circle><circle cx="1168.9" cy="1127" r="129.7" transform="matrix(.95 -.31 .31 .95 -292.63 419.62)" fill="#fff"></circle><g clip-path="url(#eyeClipPath2)"><circle cx="1168.7" cy="1129.5" r="49.5" transform="rotate(-2.5 1183.20340345 1144.58616866)" fill="url(#eyeColor2)"></circle><circle cx="1167.4" cy="1130.2" r="33.2" transform="rotate(-2.5 1183.20340345 1144.58616866)" fill="#31323d"></circle><circle cx="1189.4" cy="1097.6" r="21.6" transform="rotate(-2.5 1204.57661148 1110.66415528)" fill="#fff"></circle></g><circle cx="1168.9" cy="1127" r="129.7" transform="matrix(.95 -.31 .31 .95 -292.63 419.62)" fill="none" stroke="#31323d" stroke-linecap="round" stroke-miterlimit="10" stroke-width="10"></circle><path d="M1062,1200.7a129.4,129.4,0,0,0,207,8.3s-35.3-30.7-100.1-32.9S1062,1200.7,1062,1200.7Z" fill="#73ffc3"></path><path d="M1062,1200.7a129.4,129.4,0,0,0,207,8.3s-35.3-30.7-100.1-32.9S1062,1200.7,1062,1200.7Z" fill="none" stroke="#31323d" stroke-linecap="round" stroke-miterlimit="10" stroke-width="10"></path><path d="M1598.7,1187.5a129.4,129.4,0,0,0,206.5-17s-40-26.1-104.6-20.3S1598.7,1187.5,1598.7,1187.5Z" fill="#73ffc3"></path><path d="M1598.7,1187.5a129.4,129.4,0,0,0,206.5-17s-40-26.1-104.6-20.3S1598.7,1187.5,1598.7,1187.5Z" fill="none" stroke="#31323d" stroke-linecap="round" stroke-miterlimit="10" stroke-width="10"></path><path d="M1300,1004.6l-2.6,1.3-3.4,1.6-5.4,2.5c-3.9,1.7-8.5,3.6-14.1,5.5a191.4,191.4,0,0,1-18.7,5.5,196.7,196.7,0,0,1-22.4,4.1,221.2,221.2,0,0,1-24.7,1.6c-8.4,0-17-.3-25.5-1.1s-16.9-1.8-25.2-3.1c-16.5-2.5-32.2-5.5-46.5-7.1a155.7,155.7,0,0,0-20.3-1.1,87.7,87.7,0,0,0-9.1.6,70.2,70.2,0,0,0-8.3,1.4,66.9,66.9,0,0,0-7.4,2.2,63.9,63.9,0,0,0-6.4,2.8,64.7,64.7,0,0,0-9.8,6.1c-2.6,2-4.5,3.7-5.8,5l-2,1.9-0.2.2a5,5,0,0,1-7.7-6.4l1.7-2.6a88.1,88.1,0,0,1,5.4-7,78.6,78.6,0,0,1,10.1-9.8,79.9,79.9,0,0,1,7.1-5.1,84.5,84.5,0,0,1,8.6-4.7,89.4,89.4,0,0,1,9.8-4,108.8,108.8,0,0,1,10.8-3.1,179.3,179.3,0,0,1,23.3-3.8c8-.8,16.1-1.3,24.2-1.7l24.1-1.3c7.9-.5,15.6-1.2,23-2.1s14.5-2.1,21.1-3.6a169.8,169.8,0,0,0,18.4-5.3,141.3,141.3,0,0,0,15.3-6.4,132.9,132.9,0,0,0,12-6.7c3.5-2.1,6.4-4.2,8.7-5.9l7.6-5.9a32.7,32.7,0,1,1,34.2,55.3H1300Z" fill="#31323d"></path><path d="M1591.6,932.4l7.9,5.6c2.4,1.6,5.4,3.5,9,5.5a133,133,0,0,0,12.3,6.1,141.5,141.5,0,0,0,15.6,5.7,169.8,169.8,0,0,0,18.6,4.4c6.7,1.2,13.8,2.1,21.2,2.7s15.2,0.9,23.1,1l24.1,0.2c8.1,0.1,16.3.2,24.3,0.6a179.3,179.3,0,0,1,23.4,2.7,108.8,108.8,0,0,1,10.9,2.6,89.4,89.4,0,0,1,10,3.5,84.6,84.6,0,0,1,8.8,4.3,79.8,79.8,0,0,1,7.4,4.8,78.5,78.5,0,0,1,10.5,9.3,88.2,88.2,0,0,1,5.7,6.8l1.8,2.5a5,5,0,0,1-7.4,6.7l-0.2-.2-2.1-1.8c-1.3-1.2-3.4-2.8-6-4.7a64.8,64.8,0,0,0-10.1-5.7,63.9,63.9,0,0,0-6.5-2.5,66.9,66.9,0,0,0-7.5-1.8,70.2,70.2,0,0,0-8.3-1,87.7,87.7,0,0,0-9.1-.2,155.7,155.7,0,0,0-20.2,2c-14.2,2.2-29.8,5.9-46.2,9.1-8.2,1.6-16.6,3.1-25,4.2s-17,1.9-25.4,2.2a221.2,221.2,0,0,1-24.7-.5,196.7,196.7,0,0,1-22.5-3,191.5,191.5,0,0,1-18.9-4.7c-5.6-1.7-10.4-3.4-14.3-4.9l-5.5-2.3-3.5-1.5-2.7-1.1h0a32.7,32.7,0,1,1,25.4-60.2A34.5,34.5,0,0,1,1591.6,932.4Z" fill="#31323d"></path></g><g id="item_e"></g><g id="mouth"><path fill="#73ffc3" d="M1318.3,1236.5c-11-20.4-63.9-37-112.2-38.9-66.2-2.7-119.6,34.9-119.2,83.8,0,0,24.4,71.1,117.6,55.4S1332.8,1265.8,1318.3,1236.5Z"></path><path fill="#31323d" d="M1317.7,1237.3a179,179,0,0,0-63.3-27.4,243.7,243.7,0,0,0-34.1-5c-5.7-.5-11.5-.8-17.2-.9a137.9,137.9,0,0,0-17,.5,157.5,157.5,0,0,0-16.8,2.2,131.8,131.8,0,0,0-16.4,4.3,113.1,113.1,0,0,0-30.3,14.6,83.6,83.6,0,0,0-23.7,23.7,69.4,69.4,0,0,0-7.5,15.2,73.6,73.6,0,0,0-3.5,16.9,1,1,0,0,1-1.1,1,1.2,1.2,0,0,1-.9-.9,65.2,65.2,0,0,1,7-35.6,85.3,85.3,0,0,1,23.7-28.3,116.8,116.8,0,0,1,32.4-17.9,156,156,0,0,1,17.7-5.2,165.6,165.6,0,0,1,18.3-2.9c6.1-.5,12.2-.7,18.4-.6,3.1,0,6.1.2,9.1.4l9,.7a209.3,209.3,0,0,1,35.8,6.8,150.2,150.2,0,0,1,33.5,14.3l3.9,2.4,3.8,2.5c2.5,1.7,4.9,3.6,7.3,5.4a128.1,128.1,0,0,1,13.2,12.3,1,1,0,0,1-.1,1.4A1,1,0,0,1,1317.7,1237.3Z"></path><path fill="#73ffc3" d="M1552.1,1231.4c11.9-20.1,66.3-35.2,115.6-35.8,67.7-.7,121.1,38.3,119.3,87.2,0,0-26.9,70.4-121.6,52.1S1536.5,1260.3,1552.1,1231.4Z"></path><path fill="#31323d" d="M1551.5,1230.6a132.1,132.1,0,0,1,13.9-11.9,146.3,146.3,0,0,1,15.6-9.8,150.5,150.5,0,0,1,34.5-13.4,204.2,204.2,0,0,1,36.4-5.7c6.2-.5,12.2-.7,18.4-.7s12.5.4,18.7,1.1,12.3,1.9,18.4,3.3a168.1,168.1,0,0,1,17.9,5.6,120.4,120.4,0,0,1,32.5,18.5c9.8,7.9,18.3,17.7,23.8,29a63.8,63.8,0,0,1,6.4,36.3.9.9,0,0,1-1.1.8c-.5,0-.8-.4-.9-.9a67.6,67.6,0,0,0-3.1-17.3,66.6,66.6,0,0,0-7.3-15.5,86.4,86.4,0,0,0-23.8-24.4,120.1,120.1,0,0,0-30.6-15.3,156.7,156.7,0,0,0-16.6-4.6,160.2,160.2,0,0,0-17.1-2.7,165.1,165.1,0,0,0-17.2-.9c-5.8,0-11.7.2-17.6.5a267.1,267.1,0,0,0-34.7,4,185.1,185.1,0,0,0-65.2,25.6,1.1,1.1,0,0,1-1.4-.3A1,1,0,0,1,1551.5,1230.6Z"></path><path fill="#31323d" d="M1322.4,1317.5l4.5,3.1c1.5,1,3.1,1.8,4.7,2.7a73.8,73.8,0,0,0,30.1,9.7,59.5,59.5,0,0,0,39.1-9.9,61.8,61.8,0,0,0,14.6-13.8,68.6,68.6,0,0,0,9.7-17.6,83,83,0,0,0,4.8-19.8c.3-1.6.3-3.4.5-5.1l.2-2.5v-7.7a5.8,5.8,0,0,1,.5-2.6,6.4,6.4,0,0,1,1.9-2.7l.4-.4a7.5,7.5,0,0,1,9.6-.2,7.3,7.3,0,0,1,2.1,2.8,7.7,7.7,0,0,1,.5,2.9v3l-.2,2.9-.2,2.9-.3,3c-.3,1.9-.5,3.9-.9,5.8a95.5,95.5,0,0,1-6.7,22.7,78.4,78.4,0,0,1-12.7,20.1,70,70,0,0,1-18.3,15.1,68.5,68.5,0,0,1-22.1,8.1,70.1,70.1,0,0,1-23.3-.1,76.9,76.9,0,0,1-21.6-7.5,96,96,0,0,1-9.6-6c-1.5-1.1-3-2.2-4.4-3.4l-4.3-3.7a1.1,1.1,0,0,1-.1-1.6,1,1,0,0,1,1.5-.2Z"></path><path fill="#31323d" d="M1561.4,1317.7l-4.3,3.7c-1.4,1.2-3,2.3-4.5,3.4l-1.2.9-1.2.7-2.4,1.6a49.1,49.1,0,0,1-5,2.8,79.2,79.2,0,0,1-21.9,7.7,77.7,77.7,0,0,1-23.6.4,73.4,73.4,0,0,1-22.6-7.5c-14.3-7.4-25.8-19.8-33.2-34.1a97.1,97.1,0,0,1-7.9-22.7l-.6-3-.5-2.9c-.3-2-.6-4-.7-6l-.3-3c-.1-1-.2-2-.2-3a8,8,0,0,1,.6-3,6.3,6.3,0,0,1,2-2.9,7.2,7.2,0,0,1,9.5,0l.5.3a7.9,7.9,0,0,1,1.9,2.7,5,5,0,0,1,.5,2.6,21.7,21.7,0,0,0,.1,2.6v2.6c0,1.8.2,3.5.3,5.2l.3,2.6.4,2.5a78.6,78.6,0,0,0,5.9,19.7,69.4,69.4,0,0,0,10.8,17.4,66.7,66.7,0,0,0,15.6,13.4,64.3,64.3,0,0,0,40.1,9.2,73.5,73.5,0,0,0,20.9-5.1l5-2.2,2.4-1.2,1.2-.7,1.2-.6c1.6-1,3.2-1.8,4.7-2.9l4.6-3h.1a1.2,1.2,0,0,1,1.6.3A1.1,1.1,0,0,1,1561.4,1317.7Z"></path><path fill="#31323d" d="M1390.8,1242.6a11.1,11.1,0,0,1,2.6-11.7c6.6-6.4,20.6-15.8,46.7-16s38.4,8.9,44.3,15.3a10.9,10.9,0,0,1,1.8,11.8h0a15.1,15.1,0,0,1-13.3,9c-7.4.2-17.5,2.4-23.9,11.6a10.7,10.7,0,0,1-1.4,1.6l-.2.2a13.1,13.1,0,0,1-18.6-1h0s-5.3-9.1-25-10.7a14.9,14.9,0,0,1-12.9-9.9Z"></path><path fill="#31323D" d="M1382.8,1275.8a211.7,211.7,0,0,0-20.1-8.9,167.1,167.1,0,0,0-20.8-6.5,147.9,147.9,0,0,0-43.5-4.2,145.9,145.9,0,0,0-43,9.3,175,175,0,0,0-20.2,9.3,220.4,220.4,0,0,0-19,11.7,194.9,194.9,0,0,1,18.4-12.8,179.5,179.5,0,0,1,19.9-10.5,148,148,0,0,1,43.5-12,154.4,154.4,0,0,1,45.5,1.8,207.4,207.4,0,0,1,43.5,13.7,5,5,0,0,1-4,9.2C1383,1275.8,1382.9,1275.8,1382.8,1275.8Z"></path><path fill="#31323D" d="M1380.4,1299a147.2,147.2,0,0,0-24.6-5.1,111.8,111.8,0,0,0-25.2-.3,79.7,79.7,0,0,0-24.4,6.2,63,63,0,0,0-20.7,14.8,61.9,61.9,0,0,1,19.6-17,85.6,85.6,0,0,1,24.8-9,122.3,122.3,0,0,1,26.4-2.2,156.8,156.8,0,0,1,26.4,2.9h0a5,5,0,0,1-1.8,9.8Z"></path><path fill="#31323D" d="M1505.7,1261.8a190.4,190.4,0,0,1,43.4-13.7,183.8,183.8,0,0,1,45-3.2,150.4,150.4,0,0,1,44.1,8.9,141,141,0,0,1,38.8,21.8,138.9,138.9,0,0,0-39.6-19.4,149,149,0,0,0-43.4-6.3,180.3,180.3,0,0,0-43.3,5.5,178.2,178.2,0,0,0-40.5,15.4h-.1a4.9,4.9,0,0,1-6.7-2.1,4.9,4.9,0,0,1,2-6.7Z"></path><path fill="#31323D" d="M1510.3,1284.4a140,140,0,0,1,26.4-5.9,81.6,81.6,0,0,1,27,.9,74.8,74.8,0,0,1,24.8,10,109.3,109.3,0,0,1,20.3,16.8,110.2,110.2,0,0,0-21.5-14.6,73.1,73.1,0,0,0-24.4-7.3,77.8,77.8,0,0,0-25,1.6,121.4,121.4,0,0,0-24.1,7.9h0a5.1,5.1,0,0,1-6.6-2.7,4.9,4.9,0,0,1,2.6-6.5Z"></path><path fill="#31323d" d="M1502,1384.3a42.8,42.8,0,0,1-3.2,9.1,59.5,59.5,0,0,1-5.2,8.2,59.6,59.6,0,0,1-14.7,13,69,69,0,0,1-37.6,9.8l-4.9-.3-4.8-.5a80.3,80.3,0,0,1-27.3-9.6c-11.1-6.5-20.6-15.9-25.9-27.3a2.5,2.5,0,0,1,4.1-2.8h0a82.8,82.8,0,0,0,27.5,18.8,79.6,79.6,0,0,0,31.6,6.7,72.2,72.2,0,0,0,31.1-6.3,60.6,60.6,0,0,0,13.6-8.5,77,77,0,0,0,5.9-5.6,83.8,83.8,0,0,0,5.2-6.6h.1a2.5,2.5,0,0,1,3.5-.6A2.3,2.3,0,0,1,1502,1384.3Z"></path><path style="mix-blend-mode:multiply" fill="#595959" d="M1381.7,1387.1s3.5,62,58.5,59.9c53.3-2.1,59.1-60.2,59.1-60.2s-19.1,25.9-53.5,26.4S1381.7,1387.1,1381.7,1387.1Z" opacity=".2"></path></g><g id="item_d"></g><g id="item_c"></g><g id="item_b"></g><g id="item_a"></g></svg>